<?xml version="1.0" standalone="no"?>
<!DOCTYPE svg PUBLIC "-//W3C//DTD SVG 1.1//EN" "http://www.w3.org/Graphics/SVG/1.1/DTD/svg11.dtd" >
<svg xmlns="http://www.w3.org/2000/svg" xmlns:xlink="http://www.w3.org/1999/xlink" version="1.1">
<metadata>
Created by FontForge 20170731 at Sun Aug 15 11:11:56 2021
 By Aleksey,,,
</metadata>
<defs>
<font id="NotoSerif-Medium" horiz-adv-x="1000" >
  <font-face 
    font-family="Noto Serif Med"
    font-weight="500"
    font-stretch="normal"
    units-per-em="1000"
    panose-1="2 2 6 2 6 5 5 2 2 4"
    ascent="800"
    descent="-200"
    x-height="536"
    cap-height="714"
    bbox="-699 -389 2797 1051"
    underline-thickness="50"
    underline-position="-125"
    unicode-range="U+000D-FFFD"
  />
<missing-glyph horiz-adv-x="595" 
d="M92 0v714h411v-714h-411zM143 51h309v612h-309v-612z" />
    <glyph glyph-name="f_f_i" unicode="ffi" horiz-adv-x="1022" 
d="M25 0v45h15q20 0 38.5 5t29.5 19.5t11 45.5v368h-90v53h90v11q0 105 49 159t141 54q78 0 107.5 -21.5t29.5 -50.5q0 -28 -24 -43t-64 -15q0 28 -13 54.5t-47 26.5q-38 0 -53.5 -38.5t-15.5 -113.5v-23h234v7q0 109 59.5 169.5t187.5 60.5q102 0 149.5 -22.5t47.5 -61.5
q0 -31 -28 -51t-79 -20q0 20 -9.5 44.5t-33 43t-65.5 18.5q-69 0 -94 -47t-25 -122v-19h343v-421q0 -31 11 -45.5t29 -19.5t39 -5h13v-45h-286v45h5q20 0 38 4.5t29.5 18.5t11.5 43v372h-233v-368q0 -31 11 -45.5t29.5 -19.5t38.5 -5h20v-45h-301v45h13q20 0 38 5t29.5 19.5
t11.5 45.5v368h-234v-368q0 -31 11.5 -45.5t29.5 -19.5t38 -5h21v-45h-304z" />
    <glyph glyph-name="f_f_l" unicode="ffl" horiz-adv-x="1021" 
d="M25 0v45h15q20 0 38.5 5t29.5 19.5t11 45.5v368h-90v53h90v11q0 105 49 159t141 54q78 0 107.5 -21.5t29.5 -50.5q0 -28 -24 -43t-64 -15q0 28 -13 54.5t-47 26.5q-38 0 -53.5 -38.5t-15.5 -113.5v-23h234v10q0 106 59.5 165t187.5 59q26 0 54 -3.5t44 -6.5h107v-645
q0 -31 11.5 -45.5t29.5 -19.5t38 -5h13v-45h-283v45h2q20 0 38.5 5t29.5 19.5t11 45.5v498q0 25 -11.5 50t-36.5 41.5t-65 16.5q-69 0 -94 -45t-25 -116v-24h145v-53h-145v-368q0 -31 11 -45.5t29.5 -19.5t38.5 -5h17v-45h-298v45h13q20 0 38 5t29.5 19.5t11.5 45.5v368
h-234v-368q0 -31 11.5 -45.5t29.5 -19.5t38 -5h18v-45h-301z" />
    <glyph glyph-name="f_i" unicode="fi" horiz-adv-x="678" 
d="M25 0v45h15q20 0 38.5 5t29.5 19.5t11 45.5v368h-90v53h90v23q0 97 60 155.5t188 58.5q101 0 148.5 -22.5t47.5 -61.5q0 -31 -27.5 -51t-79.5 -20q0 20 -9 44.5t-32 43t-66 18.5q-46 0 -72 -21t-37 -56t-11 -77v-34h344v-421q0 -31 11 -45.5t29.5 -19.5t38.5 -5h12v-45
h-286v45h6q20 0 38 4.5t29.5 18.5t11.5 43v372h-234v-368q0 -31 11.5 -45.5t29.5 -19.5t38 -5h21v-45h-304z" />
    <glyph glyph-name="f_l" unicode="fl" horiz-adv-x="678" 
d="M25 0v45h15q20 0 38.5 5t29.5 19.5t11 45.5v368h-90v53h90v23q0 97 60 154t188 57q25 0 53.5 -3.5t43.5 -6.5h108v-645q0 -31 11 -45.5t29 -19.5t39 -5h13v-45h-284v45h3q21 0 39 5t29 19.5t11 45.5v498q0 25 -12 50t-36.5 41.5t-64.5 16.5q-46 0 -72 -20t-37 -54.5
t-11 -76.5v-34h146v-53h-146v-368q0 -31 11.5 -45.5t29.5 -19.5t38 -5h18v-45h-301z" />
    <glyph glyph-name="f_f" unicode="ff" horiz-adv-x="723" 
d="M25 0v45h15q20 0 38.5 5t29.5 19.5t11 45.5v368h-90v53h90v11q0 105 49 159t141 54q78 0 107.5 -21.5t29.5 -50.5q0 -28 -24 -43t-64 -15q0 28 -13 54.5t-47 26.5q-38 0 -53.5 -38.5t-15.5 -113.5v-23h234v39q0 90 48 142.5t138 52.5q82 0 114 -20t32 -51
q0 -29 -25.5 -44t-68.5 -15q0 28 -12.5 54.5t-47.5 26.5q-39 0 -53.5 -35.5t-14.5 -99.5v-50h140v-53h-140v-368q0 -31 11 -45.5t29.5 -19.5t38.5 -5h40v-45h-321v45h13q20 0 38 5t29.5 19.5t11.5 45.5v368h-234v-368q0 -31 11.5 -45.5t29.5 -19.5t38 -5h21v-45h-304z" />
    <glyph glyph-name=".notdef" horiz-adv-x="595" 
d="M92 0v714h411v-714h-411zM143 51h309v612h-309v-612z" />
    <glyph glyph-name=".notdef" horiz-adv-x="595" 
d="M92 0v714h411v-714h-411zM143 51h309v612h-309v-612z" />
    <glyph glyph-name=".null" horiz-adv-x="0" 
 />
    <glyph glyph-name="nonmarkingreturn" horiz-adv-x="333" 
 />
    <glyph glyph-name="glyph8" horiz-adv-x="595" 
d="M92 0v714h411v-714h-411zM143 51h309v612h-309v-612z" />
    <glyph glyph-name="CR" unicode="&#xd;" horiz-adv-x="260" 
 />
    <glyph glyph-name="space" unicode=" " horiz-adv-x="260" 
 />
    <glyph glyph-name="exclam" unicode="!" horiz-adv-x="346" 
d="M144 208l-37 506h132l-37 -506h-58zM173 -7q-29 0 -48.5 15.5t-19.5 55.5q0 41 19.5 56t48.5 15q28 0 48 -15t20 -56q0 -40 -20 -55.5t-48 -15.5z" />
    <glyph glyph-name="quotedbl" unicode="&#x22;" horiz-adv-x="436" 
d="M290 468l-34 246h120l-34 -246h-52zM94 468l-34 246h120l-35 -246h-51z" />
    <glyph glyph-name="numbersign" unicode="#" horiz-adv-x="559" 
d="M82 0l38 202h-94v62h106l37 192h-111v62h122l36 196h64l-37 -196h130l37 196h63l-37 -196h97v-62h-109l-36 -192h113v-62h-126l-37 -202h-63l37 202h-129l-38 -202h-63zM195 264h130l36 192h-129z" />
    <glyph glyph-name="dollar" unicode="$" horiz-adv-x="559" 
d="M254 -79v120q-100 1 -150 40t-50 97q0 34 22 52.5t56 18.5q5 -44 18 -80t38 -58.5t66 -23.5v239q-66 28 -104 56t-54 61t-16 77q0 69 47 111.5t127 50.5v78h51v-76q90 -2 129 -33t39 -76q0 -31 -23.5 -49t-64.5 -18q0 26 -6.5 53.5t-24 47.5t-49.5 25v-222
q55 -25 97.5 -50t67.5 -58.5t25 -86.5q0 -76 -49.5 -120.5t-140.5 -53.5v-122h-51zM254 435v199q-37 -8 -57 -34t-20 -63t18.5 -60t58.5 -42zM305 90q43 8 66.5 36t23.5 68q0 38 -20.5 62t-69.5 47v-213z" />
    <glyph glyph-name="percent" unicode="%" horiz-adv-x="899" 
d="M210 280q-88 0 -128 61t-40 162t40 161t129 60q84 0 126 -60t42 -161t-42 -162t-127 -61zM236 0l354 714h68l-352 -714h-70zM210 323q40 0 55.5 47.5t15.5 132.5q0 83 -15 130t-55 47t-56.5 -47t-16.5 -130q0 -85 16.5 -132.5t55.5 -47.5zM688 -10q-88 0 -128 61t-40 162
t40 161t129 60q84 0 126 -60t42 -161t-42 -162t-127 -61zM688 33q40 0 55.5 47.5t15.5 132.5q0 83 -15 130t-55 47t-56.5 -47t-16.5 -130q0 -85 16.5 -132.5t55.5 -47.5z" />
    <glyph glyph-name="ampersand" unicode="&#x26;" horiz-adv-x="758" 
d="M281 -10q-121 0 -181.5 57.5t-60.5 153.5q0 57 20.5 94.5t57.5 63t85 45.5q-38 45 -57.5 84.5t-19.5 88.5q0 66 46.5 106.5t146.5 40.5q64 0 104 -19.5t58.5 -52t18.5 -70.5q0 -42 -17 -73t-53.5 -56t-94.5 -50l173 -183q11 42 15.5 85t4.5 77v40h190v-45h-11
q-34 0 -62.5 -11t-41.5 -57q-9 -31 -20.5 -67t-27.5 -72l95 -100q14 -15 33.5 -20t56.5 -5h9v-45h-170l-79 84q-37 -40 -89 -67t-129 -27zM298 443q55 25 79 56t24 82q0 38 -19 64.5t-67 26.5q-41 0 -63 -25.5t-22 -66.5q0 -38 16 -67.5t52 -69.5zM295 49q58 0 98 21.5
t67 54.5l-219 235q-44 -27 -67 -65.5t-23 -97.5q0 -69 39.5 -108.5t104.5 -39.5z" />
    <glyph glyph-name="quotesingle" unicode="'" horiz-adv-x="239" 
d="M94 468l-34 246h120l-35 -246h-51z" />
    <glyph glyph-name="parenleft" unicode="(" horiz-adv-x="361" 
d="M329 -131q-97 39 -157 99t-87.5 146t-27.5 203t27.5 202.5t87.5 145t157 98.5v-50q-67 -41 -99.5 -103.5t-42.5 -138t-10 -154.5t10 -154.5t42.5 -138t99.5 -104.5v-51z" />
    <glyph glyph-name="parenright" unicode=")" horiz-adv-x="361" 
d="M32 -131v51q66 42 98.5 104.5t43 138t10.5 154.5t-10.5 154.5t-43 138t-98.5 103.5v50q98 -39 157.5 -98.5t87 -145t27.5 -202.5t-27.5 -203t-87 -146t-157.5 -99z" />
    <glyph glyph-name="asterisk" unicode="*" horiz-adv-x="501" 
d="M202 375l27 159l-152 -98l-38 84l165 47l-165 48l38 84l152 -99l-27 160h94l-31 -159l154 97l38 -84l-166 -47l166 -46l-38 -83l-154 96l31 -159h-94z" />
    <glyph glyph-name="plus" unicode="+" horiz-adv-x="559" 
d="M247 143v183h-182v63h182v183h64v-183h183v-63h-183v-183h-64z" />
    <glyph glyph-name="comma" unicode="," horiz-adv-x="262" 
d="M34 -154v45q93 31 93 86q0 15 -11 23t-25.5 15.5t-25.5 20.5t-11 38q0 30 19 45.5t48 15.5q34 0 57.5 -24.5t23.5 -68.5q0 -64 -38 -117t-130 -79z" />
    <glyph glyph-name="hyphen" unicode="-" horiz-adv-x="310" 
d="M25 231v83h260v-83h-260z" />
    <glyph glyph-name="period" unicode="." horiz-adv-x="262" 
d="M131 -7q-29 0 -48.5 15.5t-19.5 55.5q0 41 19.5 56t48.5 15q28 0 48 -15t20 -56q0 -40 -20 -55.5t-48 -15.5z" />
    <glyph glyph-name="slash" unicode="/" horiz-adv-x="288" 
d="M0 -121l227 881h61l-225 -881h-63z" />
    <glyph glyph-name="zero" unicode="0" horiz-adv-x="559" 
d="M280 -10q-85 0 -137.5 46t-76.5 129t-24 194t24 193t77 127t138 45q81 0 133 -45t77.5 -127.5t25.5 -193.5t-25.5 -193.5t-78 -128.5t-133.5 -46zM280 47q68 0 93.5 82t25.5 229t-25.5 228t-92.5 81q-69 0 -95 -81t-26 -228t26 -229t94 -82z" />
    <glyph glyph-name="one" unicode="1" horiz-adv-x="559" 
d="M96 0v45h71q31 0 52.5 13t21.5 57v518q-38 -47 -68.5 -75.5t-60.5 -28.5q-22 0 -37.5 16.5t-15.5 43.5q30 7 64.5 23.5t84.5 53.5l70 52h77v-603q0 -43 20 -56.5t53 -13.5h58v-45h-390z" />
    <glyph glyph-name="two" unicode="2" horiz-adv-x="559" 
d="M54 0v81l162 182q55 62 86.5 108.5t45 88.5t13.5 89q0 57 -24 89.5t-71 32.5q-42 0 -65 -20.5t-32 -55.5t-9 -80q-41 0 -69 16t-28 59q0 56 51.5 95t151.5 39q99 0 154.5 -45t55.5 -122q0 -47 -20.5 -91.5t-63 -96t-108.5 -119.5l-150 -162h231q41 0 59 21.5t25 52.5
l5 21h47l-5 -183h-442z" />
    <glyph glyph-name="three" unicode="3" horiz-adv-x="559" 
d="M246 -10q-103 0 -149.5 34t-46.5 79q0 33 19.5 50.5t49.5 17.5q0 -55 33.5 -89t92.5 -34q37 0 69.5 14.5t52.5 49t20 94.5q0 61 -46.5 98.5t-127.5 37.5h-41v54h42q65 0 107 41.5t42 111.5q0 58 -24 90t-77 32q-43 0 -65 -21.5t-30 -55.5t-8 -74q-43 0 -70.5 16t-27.5 56
q0 56 51.5 94t151.5 38q98 0 156.5 -42t58.5 -118q0 -68 -45 -116.5t-113 -66.5q29 -4 60.5 -14t59.5 -30t45.5 -52t17.5 -80q0 -61 -23 -102t-60.5 -66t-83.5 -36t-91 -11z" />
    <glyph glyph-name="four" unicode="4" horiz-adv-x="559" 
d="M205 0v45h28q34 0 58 12.5t24 59.5v76h-299v47l302 474h107v-462h119v-59h-119v-76q0 -47 24 -59.5t58 -12.5h13v-45h-315zM87 252h228v182q0 44 1.5 100t5.5 103q-5 -11 -16 -30.5t-24.5 -43t-26 -44.5t-20.5 -33z" />
    <glyph glyph-name="five" unicode="5" horiz-adv-x="559" 
d="M244 -10q-74 0 -116 16.5t-59.5 41t-17.5 49.5q0 61 68 61q0 -43 28.5 -74.5t89.5 -31.5q39 0 70 15.5t49 52t18 99.5q0 77 -40 115t-108 38q-48 0 -74 -6.5t-45 -14.5l-30 10l32 353h346l5 -160h-46l-5 32q-4 20 -13.5 30t-38.5 10h-198l-18 -211q15 5 45 10t70 5
q68 0 121.5 -23.5t84 -70t30.5 -117.5q0 -73 -32 -124.5t-88 -78t-128 -26.5z" />
    <glyph glyph-name="six" unicode="6" horiz-adv-x="559" 
d="M293 -10q-69 0 -122 37.5t-83.5 117t-30.5 207.5q0 74 16.5 141t49.5 119t83 82t118 30q87 0 128 -33t41 -73q0 -29 -22 -47t-67 -18q0 31 -8 58.5t-26 44.5t-48 17q-70 0 -108.5 -73t-43.5 -213q23 19 57.5 33.5t84.5 14.5q91 0 145.5 -54.5t54.5 -150.5
q0 -71 -25.5 -125t-74.5 -84.5t-119 -30.5zM296 48q49 0 76 41t27 131q0 84 -29.5 122.5t-82.5 38.5q-36 0 -67.5 -17.5t-50.5 -37.5q1 -148 36 -213t91 -65z" />
    <glyph glyph-name="seven" unicode="7" horiz-adv-x="559" 
d="M183 0l244 626h-263q-52 0 -58 -51l-4 -50h-47l5 189h455v-35l-254 -679h-78z" />
    <glyph glyph-name="eight" unicode="8" horiz-adv-x="559" 
d="M273 -10q-77 0 -128.5 25.5t-77 69t-25.5 95.5q0 46 19.5 79t53 57t77.5 46q-58 33 -92.5 76.5t-34.5 105.5q0 46 22 87t70.5 67t127.5 26q97 0 149 -49t52 -124q0 -65 -37 -100.5t-98 -66.5q79 -38 122.5 -84t43.5 -110q0 -94 -65.5 -147t-178.5 -53zM299 410
q51 26 69.5 58.5t18.5 84.5q0 30 -10.5 57.5t-34.5 45.5t-63 18q-52 0 -79.5 -33.5t-27.5 -84.5q0 -53 32 -85t95 -61zM278 39q62 0 98.5 37t36.5 94q0 50 -38.5 86.5t-129.5 76.5q-43 -24 -69.5 -63t-26.5 -94q0 -62 33.5 -99.5t95.5 -37.5z" />
    <glyph glyph-name="nine" unicode="9" horiz-adv-x="559" 
d="M227 -11q-57 0 -90 14t-46.5 35.5t-13.5 44.5q0 19 10 32.5t25 17.5q14 -35 41.5 -61t75.5 -26q79 0 117 74t43 223q-22 -27 -58 -47.5t-88 -20.5q-86 0 -141 51.5t-55 152.5q0 72 26 127.5t74.5 86.5t117.5 31t122.5 -35t84 -109t30.5 -192q0 -80 -15.5 -152
t-48.5 -127.5t-85 -87.5t-126 -32zM271 338q45 0 75 23t44 54q-2 132 -35.5 191.5t-88.5 59.5q-50 0 -77.5 -45.5t-27.5 -132.5q0 -79 27.5 -114.5t82.5 -35.5z" />
    <glyph glyph-name="colon" unicode=":" horiz-adv-x="291" 
d="M146 399q-28 0 -48 15.5t-20 56.5t20 56t48 15t48 -15t20 -56t-20 -56.5t-48 -15.5zM146 -7q-28 0 -48 15.5t-20 55.5q0 41 20 56t48 15t48 -15t20 -56q0 -40 -20 -55.5t-48 -15.5z" />
    <glyph glyph-name="semicolon" unicode=";" horiz-adv-x="291" 
d="M146 399q-28 0 -48 15.5t-20 56.5t20 56t48 15t48 -15t20 -56t-20 -56.5t-48 -15.5zM50 -154v45q93 31 93 86q0 15 -11 23t-25.5 15.5t-25.5 20.5t-11 38q0 30 19 45.5t48 15.5q34 0 57.5 -24.5t23.5 -68.5q0 -64 -38 -117t-130 -79z" />
    <glyph glyph-name="less" unicode="&#x3c;" horiz-adv-x="559" 
d="M494 108l-429 231v37l429 232v-71l-332 -180l332 -178v-71z" />
    <glyph glyph-name="equal" unicode="=" horiz-adv-x="559" 
d="M64 424v62h431v-62h-431zM64 228v62h431v-62h-431z" />
    <glyph glyph-name="greater" unicode="&#x3e;" horiz-adv-x="559" 
d="M65 108v71l332 178l-332 180v71l429 -232v-37z" />
    <glyph glyph-name="question" unicode="?" horiz-adv-x="495" 
d="M194 208l-7 144q59 24 92 57t46 71.5t13 78.5q0 51 -24 82t-78 31q-57 0 -80 -38t-23 -90q-43 0 -71 16.5t-28 48.5q0 49 47.5 82t146.5 33q65 0 115.5 -21.5t79.5 -62t29 -98.5q0 -82 -50.5 -135t-142.5 -92l-6 -107h-59zM222 -7q-28 0 -48.5 15.5t-20.5 55.5
q0 41 20.5 56t48.5 15q27 0 47.5 -15t20.5 -56q0 -40 -20.5 -55.5t-47.5 -15.5z" />
    <glyph glyph-name="at" unicode="@" horiz-adv-x="921" 
d="M441 -142q-109 0 -194.5 40.5t-135.5 121.5t-50 205q0 105 34.5 194t97.5 155t148.5 103t188.5 37q113 0 189 -43t114.5 -116t38.5 -163q0 -98 -30 -168.5t-76 -108.5t-93 -38q-88 0 -119 92h-6q-21 -39 -52.5 -65.5t-82.5 -26.5q-41 0 -76 18.5t-56.5 56.5t-21.5 96
q0 40 14.5 88.5t45 92.5t80 72t119.5 28q33 0 56.5 -9t39.5 -21l40 21h24l-48 -254q-1 -3 -4 -26t-3 -41q0 -37 17.5 -52.5t39.5 -15.5q29 0 58 30.5t48 89t19 142.5q0 89 -36 149t-99.5 90.5t-145.5 30.5q-73 0 -140.5 -30t-121.5 -87t-85.5 -138t-31.5 -183
q0 -113 42 -182.5t112 -101t153 -31.5q82 0 148.5 26t110.5 57l23 -37q-50 -38 -125 -68t-168 -30zM433 131q33 0 54 18t33 46.5t17 58.5l38 204q-6 14 -22 21.5t-33 7.5q-43 0 -73.5 -27t-49.5 -67.5t-27.5 -83.5t-8.5 -74q0 -52 20 -78t52 -26z" />
    <glyph glyph-name="A" unicode="A" horiz-adv-x="718" 
d="M1 0v45h17q28 0 44 15t33 62l221 592h94l221 -611q13 -35 29 -46.5t44 -11.5h14v-45h-290v45h27q26 0 41 11t15 35q0 9 -2.5 18t-5.5 20l-39 109h-258l-35 -100q-10 -27 -10 -47q0 -46 60 -46h29v-45h-249zM226 291h219l-59 172q-14 41 -27 81t-21 76q-8 -35 -19 -70.5
t-28 -78.5z" />
    <glyph glyph-name="B" unicode="B" horiz-adv-x="659" 
d="M35 0v45h21q31 0 52.5 12t21.5 58v487q0 43 -22 55t-52 12h-21v45h275q134 0 199.5 -43.5t65.5 -136.5q0 -67 -35.5 -102.5t-89.5 -52.5v-5q69 -14 112 -58.5t43 -121.5q0 -194 -265 -194h-305zM246 400h61q83 0 113.5 32t30.5 102q0 72 -33 99.5t-113 27.5h-59v-261z
M246 53h89q79 0 112.5 32.5t33.5 111.5q0 77 -30.5 113.5t-113.5 36.5h-91v-294z" />
    <glyph glyph-name="C" unicode="C" horiz-adv-x="629" 
d="M372 -10q-104 0 -174.5 46t-106 128.5t-35.5 193.5q0 108 37 190.5t110 129t181 46.5q106 0 157.5 -32.5t51.5 -80.5q0 -34 -26.5 -54.5t-70.5 -20.5q0 32 -11 62t-36 50t-68 20q-109 0 -153.5 -81t-44.5 -229q0 -92 21 -158.5t66.5 -103t119.5 -36.5q73 0 114.5 27
t67.5 61q8 -6 13 -16t5 -24q0 -26 -22.5 -53.5t-70.5 -46t-125 -18.5z" />
    <glyph glyph-name="D" unicode="D" horiz-adv-x="738" 
d="M35 0v45h21q31 0 52.5 12t21.5 58v488q0 43 -22 54.5t-52 11.5h-21v45h313q158 0 246 -91.5t88 -261.5q0 -109 -37.5 -190.5t-112 -126t-184.5 -44.5h-313zM246 54h79q115 0 172.5 80t57.5 227t-57.5 223.5t-171.5 76.5h-80v-607z" />
    <glyph glyph-name="E" unicode="E" horiz-adv-x="631" 
d="M35 0v45h21q30 0 52 11t22 54v489q0 46 -21.5 58t-52.5 12h-21v45h518l5 -177h-57l-5 44q-4 34 -22 57t-59 23h-168v-262h240v-52h-240v-294h195q42 0 61.5 23.5t24.5 56.5l7 44h57l-7 -177h-550z" />
    <glyph glyph-name="F" unicode="F" horiz-adv-x="599" 
d="M35 0v45h21q30 0 52 11t22 54v493q0 43 -22 54.5t-52 11.5h-21v45h518l5 -177h-57l-5 44q-4 35 -24 57.5t-63 22.5h-163v-285h240v-51h-240v-210q0 -46 22 -58t52 -12h41v-45h-326z" />
    <glyph glyph-name="G" unicode="G" horiz-adv-x="729" 
d="M407 -10q-118 0 -196 46t-116.5 128.5t-38.5 193.5q0 108 40.5 190.5t120 129t196.5 46.5q115 0 172 -32.5t57 -80.5q0 -33 -28.5 -53.5t-74.5 -20.5q0 33 -13 63t-41.5 49t-75.5 19q-122 0 -174 -81t-52 -229t54.5 -228t185.5 -80q25 0 50 2.5t45 8.5v157q0 43 -22.5 56
t-56.5 13h-6v45h275v-45h-7q-29 0 -47.5 -13.5t-18.5 -59.5v-176q-53 -24 -108 -36t-120 -12z" />
    <glyph glyph-name="H" unicode="H" horiz-adv-x="800" 
d="M35 0v45h21q31 0 52.5 12t21.5 58v488q0 43 -22 54.5t-52 11.5h-21v45h306v-45h-21q-30 0 -52 -12t-22 -58v-200h308v200q0 46 -21.5 58t-52.5 12h-21v45h306v-45h-21q-30 0 -52 -12t-22 -58v-489q0 -43 22.5 -54t51.5 -11h21v-45h-306v45h21q31 0 52.5 12t21.5 58v231
h-308v-231q0 -46 22 -58t52 -12h21v-45h-306z" />
    <glyph glyph-name="I" unicode="I" horiz-adv-x="376" 
d="M35 0v45h21q31 0 52.5 12t21.5 58v484q0 46 -21.5 58t-52.5 12h-21v45h306v-45h-21q-30 0 -51.5 -12t-21.5 -58v-484q0 -46 21.5 -58t51.5 -12h21v-45h-306z" />
    <glyph glyph-name="J" unicode="J" horiz-adv-x="368" 
d="M-14 -240v50h12q40 0 69.5 17t46 57t16.5 109v610q0 43 -22 54.5t-51 11.5h-21v45h306v-45h-21q-31 0 -52.5 -12t-21.5 -58v-605q0 -90 -32.5 -141t-86.5 -72t-120 -21h-22z" />
    <glyph glyph-name="K" unicode="K" horiz-adv-x="709" 
d="M35 0v45h21q30 0 52 11t22 54v493q0 43 -22 54.5t-52 11.5h-21v45h306v-45h-21q-30 0 -52 -12t-22 -58v-269l193 219q32 36 44 58.5t12 38.5q0 24 -51 24v44h234v-44q-36 0 -67 -25t-69 -67l-142 -158l204 -295q29 -41 56 -60.5t56 -19.5h2v-45h-23q-52 0 -85.5 4.5
t-55.5 15t-38.5 28t-33.5 43.5l-162 242l-74 -60v-158q0 -46 22 -58t52 -12h21v-45h-306z" />
    <glyph glyph-name="L" unicode="L" horiz-adv-x="632" 
d="M35 0v45h21q31 0 52.5 12t21.5 58v484q0 46 -21.5 58t-52.5 12h-21v45h306v-45h-21q-29 0 -51 -11.5t-22 -54.5v-550h194q42 0 61.5 27.5t24.5 61.5l12 75h53l-7 -217h-550z" />
    <glyph glyph-name="M" unicode="M" horiz-adv-x="942" 
d="M35 0v45h21q30 0 52 11t22 54v493q0 43 -22 54.5t-52 11.5h-21v45h245l195 -547l193 547h239v-45h-21q-31 0 -52.5 -12t-21.5 -58v-484q0 -46 21.5 -58t52.5 -12h21v-45h-281v45h5q31 0 49 10.5t20 50.5v526l-221 -632h-58l-226 631v-516q0 -46 19 -58t53 -12h4v-45h-236
z" />
    <glyph glyph-name="N" unicode="N" horiz-adv-x="770" 
d="M35 0v45h21q31 0 52.5 12t21.5 58v488q0 43 -22 54.5t-52 11.5h-21v45h194l357 -538v427q0 43 -22.5 54.5t-51.5 11.5h-21v45h254v-45h-21q-30 0 -52 -12t-22 -58v-599h-76l-379 569v-454q0 -46 21.5 -58t51.5 -12h21v-45h-254z" />
    <glyph glyph-name="O" unicode="O" horiz-adv-x="754" 
d="M377 -10q-108 0 -179.5 46t-106.5 129t-35 194t35.5 193t107 127.5t179.5 45.5q102 0 173.5 -45.5t109 -128t37.5 -193.5t-37.5 -193.5t-109 -128.5t-174.5 -46zM377 47q107 0 150.5 82t43.5 229t-43.5 228.5t-149.5 81.5t-151 -81.5t-45 -228.5t44.5 -229t150.5 -82z
" />
    <glyph glyph-name="P" unicode="P" horiz-adv-x="613" 
d="M35 0v45h21q31 0 52.5 12t21.5 58v488q0 43 -22 54.5t-52 11.5h-21v45h288q130 0 192 -56t62 -154q0 -60 -26.5 -111.5t-87.5 -83.5t-162 -32h-55v-167q0 -43 22.5 -54t51.5 -11h41v-45h-326zM246 327h45q86 0 123.5 39.5t37.5 133.5q0 83 -33 123t-113 40h-60v-336z" />
    <glyph glyph-name="Q" unicode="Q" horiz-adv-x="754" 
d="M564 -233q-55 0 -107 21t-88.5 70.5t-42.5 134.5q-91 11 -151 59t-89.5 126.5t-29.5 180.5q0 111 35.5 193t107 127.5t179.5 45.5q102 0 173.5 -45.5t109 -128t37.5 -193.5q0 -145 -63.5 -241t-182.5 -120q6 -70 26 -109t51 -55t70 -16h16v-50h-51zM377 47
q107 0 150.5 82t43.5 229t-43.5 228.5t-149.5 81.5t-151 -81.5t-45 -228.5t44.5 -229t150.5 -82z" />
    <glyph glyph-name="R" unicode="R" horiz-adv-x="670" 
d="M35 0v45h21q30 0 52 11t22 54v493q0 43 -22 54.5t-52 11.5h-21v45h284q133 0 197.5 -48t64.5 -143q0 -53 -21.5 -89.5t-54.5 -59t-68 -35.5l132 -213q25 -41 48.5 -61t54.5 -20h4v-45h-20q-62 0 -97.5 6.5t-58.5 26t-45 57.5l-130 224h-79v-204q0 -43 22.5 -54t51.5 -11
h21v-45h-306zM246 364h67q83 0 113.5 38t30.5 115q0 79 -33.5 112.5t-112.5 33.5h-65v-299z" />
    <glyph glyph-name="S" unicode="S" horiz-adv-x="556" 
d="M252 -10q-109 0 -159 41t-50 100q0 35 23 54.5t60 19.5q2 -69 35 -116t101 -47q64 0 101 32.5t37 88.5q0 36 -15.5 61.5t-50.5 47t-93 45.5q-96 39 -140 90t-44 130q0 59 29.5 100.5t80.5 64t116 22.5q95 0 144.5 -34t49.5 -79q0 -33 -24 -51.5t-67 -18.5q0 30 -10.5 60
t-35 50t-65.5 20q-53 0 -84 -29t-31 -79q0 -37 14 -63.5t48 -49t95 -46.5q92 -38 140 -85t48 -123q0 -96 -68.5 -151t-184.5 -55z" />
    <glyph glyph-name="T" unicode="T" horiz-adv-x="624" 
d="M151 0v45h28q30 0 52 11.5t22 54.5v550h-92q-44 0 -61 -23t-21 -56l-6 -48h-56l5 180h580l5 -180h-56l-6 48q-4 33 -21 56t-62 23h-92v-546q0 -46 21.5 -58t51.5 -12h28v-45h-320z" />
    <glyph glyph-name="U" unicode="U" horiz-adv-x="725" 
d="M369 -10q-122 0 -190.5 52t-68.5 175v386q0 43 -22 54.5t-51 11.5h-22v45h306v-45h-21q-30 0 -51.5 -12t-21.5 -58v-389q0 -86 45 -121.5t117 -35.5q81 0 121 41.5t40 112.5v396q0 43 -21.5 54.5t-51.5 11.5h-21v45h254v-45h-21q-31 0 -52.5 -12t-21.5 -58v-394
q0 -101 -62 -158t-184 -57z" />
    <glyph glyph-name="V" unicode="V" horiz-adv-x="681" 
d="M299 0l-215 617q-10 31 -26 41.5t-42 10.5h-16v45h290v-45h-29q-54 0 -54 -44q0 -17 8 -39l108 -320q13 -38 23 -78.5t17 -74.5q7 33 17.5 72t24.5 80l108 314q4 12 7 24.5t3 20.5q0 45 -59 45h-31v45h248v-45h-27q-25 0 -38.5 -14.5t-29.5 -62.5l-206 -592h-81z" />
    <glyph glyph-name="W" unicode="W" horiz-adv-x="1053" 
d="M274 0l-183 616q-10 32 -26 42.5t-45 10.5h-13v45h291v-45h-23q-60 0 -60 -48q0 -8 2.5 -19t5.5 -23l85 -295q13 -43 24 -88.5t18 -80.5q8 37 17.5 78.5t21.5 84.5l122 429h73l128 -419q15 -49 27 -95t18 -78q7 36 17 79t23 91l78 283q3 12 7 28.5t4 24.5q0 48 -66 48
h-23v45h249v-45h-19q-29 0 -45.5 -14.5t-30.5 -63.5l-165 -591h-97l-164 535l-151 -535h-100z" />
    <glyph glyph-name="X" unicode="X" horiz-adv-x="680" 
d="M9 0v45h6q36 0 56.5 16.5t47.5 53.5l169 236l-165 265q-34 53 -86 53h-13v45h287v-45h-3q-34 0 -45.5 -8.5t-11.5 -20.5q0 -10 4.5 -22.5t19.5 -36.5l88 -140l93 138q10 17 18 32t8 29q0 18 -16 23.5t-39 5.5h-3v45h223v-45h-9q-29 0 -49.5 -15.5t-49.5 -56.5l-145 -206
l184 -293q21 -30 41 -41.5t39 -11.5h13v-45h-286v45h5q60 0 60 33q0 11 -6 23.5t-27 45.5l-97 154l-110 -160q-9 -13 -17.5 -30.5t-8.5 -33.5q0 -32 63 -32h3v-45h-241z" />
    <glyph glyph-name="Y" unicode="Y" horiz-adv-x="644" 
d="M160 0v45h30q31 0 53 10.5t22 54.5v176l-185 330q-16 28 -30 40.5t-41 12.5h-13v45h292v-45h-32q-28 0 -38 -10.5t-10 -25.5q0 -13 5.5 -27.5t11.5 -25.5l74 -138q17 -31 29 -59.5t20 -51.5q9 23 25 53.5t33 62.5l62 117q10 18 14 33.5t4 26.5q0 45 -62 45h-27v45h249
v-45h-14q-22 0 -39 -16t-42 -62l-169 -306v-171q0 -46 22 -57.5t53 -11.5h30v-45h-327z" />
    <glyph glyph-name="Z" unicode="Z" horiz-adv-x="612" 
d="M38 0v43l375 618h-212q-45 0 -61.5 -24.5t-20.5 -60.5l-5 -46h-57l5 184h490v-44l-376 -617h242q50 0 67.5 26.5t21.5 60.5l5 44h58l-5 -184h-527z" />
    <glyph glyph-name="bracketleft" unicode="[" horiz-adv-x="375" 
d="M100 -128v888h238v-45h-43q-34 0 -58 -12.5t-24 -59.5v-654q0 -47 24 -59.5t58 -12.5h43v-45h-238z" />
    <glyph glyph-name="backslash" unicode="\" horiz-adv-x="288" 
d="M225 -121l-225 881h62l226 -881h-63z" />
    <glyph glyph-name="bracketright" unicode="]" horiz-adv-x="375" 
d="M37 -128v45h43q34 0 58 12.5t24 59.5v654q0 47 -24 59.5t-58 12.5h-43v45h238v-888h-238z" />
    <glyph glyph-name="asciicircum" unicode="^" horiz-adv-x="559" 
d="M50 265l210 449h37l211 -449h-70l-160 352l-158 -352h-70z" />
    <glyph glyph-name="underscore" unicode="_" horiz-adv-x="459" 
d="M-5 -142v59h469v-59h-469z" />
    <glyph glyph-name="grave" unicode="`" horiz-adv-x="291" 
d="M204 606q-28 18 -61.5 46.5t-62 57t-40.5 46.5v10h121q11 -22 26.5 -49t32 -53t31.5 -45v-13h-47z" />
    <glyph glyph-name="a" unicode="a" horiz-adv-x="573" 
d="M204 -10q-67 0 -111 39t-44 122q0 79 56 118t171 43l82 3v58q0 35 -5.5 62.5t-23.5 43t-55 15.5q-52 0 -68.5 -31t-16.5 -78q-49 0 -73.5 14.5t-24.5 49.5t25.5 56.5t67.5 31.5t94 10q95 0 142.5 -38.5t47.5 -133.5v-258q0 -42 14 -57t48 -15h3v-45h-149l-17 81h-9
q-21 -27 -41 -47.5t-46.5 -32t-66.5 -11.5zM236 55q56 0 89 37t33 99v79l-59 -3q-77 -3 -107 -33.5t-30 -87.5q0 -91 74 -91z" />
    <glyph glyph-name="b" unicode="b" horiz-adv-x="624" 
d="M367 -10q-58 0 -94.5 24.5t-58.5 63.5h-7l-21 -78h-168v45h7q33 0 57 12.5t24 58.5v531q0 44 -24.5 56t-56.5 12h-7v45h198v-180q0 -17 -1 -42.5t-2 -49.5t-2 -36h5q22 44 58 69.5t94 25.5q98 0 150.5 -66.5t52.5 -211.5t-52.5 -212t-151.5 -67zM343 57q61 0 88 54.5
t27 158.5q0 106 -27 158t-89 52q-73 0 -99.5 -52t-26.5 -159q0 -103 27 -157.5t100 -54.5z" />
    <glyph glyph-name="c" unicode="c" horiz-adv-x="502" 
d="M286 -10q-68 0 -121 27.5t-82.5 88t-29.5 159.5q0 107 30 169t82 87.5t117 25.5q48 0 89 -12t66 -35t25 -56q0 -34 -23 -51.5t-77 -17.5q0 49 -16 84t-63 35q-36 0 -62.5 -20t-40.5 -70t-14 -138q0 -105 33 -156.5t109 -51.5q48 0 83.5 20.5t52.5 52.5q19 -14 19 -41
q0 -24 -19.5 -47t-58.5 -38t-99 -15z" />
    <glyph glyph-name="d" unicode="d" horiz-adv-x="624" 
d="M257 -10q-99 0 -151.5 66.5t-52.5 210.5q0 145 52.5 212.5t150.5 67.5q57 0 93.5 -24.5t58.5 -61.5h6q-3 25 -4.5 57t-1.5 56v75q0 43 -24.5 54.5t-57.5 11.5h-8v45h200v-646q0 -45 24.5 -57t57.5 -12h7v-45h-176l-16 87h-5q-22 -44 -58 -70.5t-95 -26.5zM281 57
q73 0 100 52t27 159q0 103 -27 157.5t-101 54.5q-62 0 -88.5 -55t-26.5 -158q0 -106 27 -158t89 -52z" />
    <glyph glyph-name="e" unicode="e" horiz-adv-x="545" 
d="M292 -10q-114 0 -176.5 72t-62.5 202q0 141 59.5 212t169.5 71q100 0 157.5 -60.5t57.5 -179.5v-47h-331q2 -107 38.5 -155.5t105.5 -48.5q52 0 88.5 22t54.5 51q8 -4 14.5 -14t6.5 -24q0 -22 -19.5 -45.5t-60 -39.5t-102.5 -16zM168 317h214q0 79 -23 126t-78 47
q-52 0 -80.5 -44.5t-32.5 -128.5z" />
    <glyph glyph-name="f" unicode="f" horiz-adv-x="379" 
d="M25 0v45h15q20 0 38.5 5t29.5 19.5t11 45.5v368h-90v53h90v46q0 91 48.5 139.5t136.5 48.5q83 0 115 -20t32 -51q0 -29 -25 -44t-68 -15q0 28 -13.5 54.5t-48.5 26.5q-38 0 -52.5 -31.5t-14.5 -95.5v-58h140v-53h-140v-368q0 -31 11.5 -45.5t29.5 -19.5t38 -5h41v-45
h-324z" />
    <glyph glyph-name="g" unicode="g" horiz-adv-x="544" 
d="M232 -240q-108 0 -161.5 37.5t-53.5 106.5q0 57 37 87t91 38q-23 9 -41.5 30t-18.5 54q0 31 18.5 53.5t53.5 43.5q-43 17 -68.5 58t-25.5 94q0 86 48 135.5t146 49.5q36 0 67.5 -10t47.5 -23q18 20 43 37.5t56 17.5q32 0 47.5 -16t15.5 -37q0 -22 -13 -38t-45 -16
q0 14 -8 25t-26 11q-22 0 -41 -11q19 -22 30.5 -52t11.5 -71q0 -75 -45.5 -124t-140.5 -49q-12 0 -28.5 1.5t-25.5 3.5q-18 -9 -31 -24t-13 -36q0 -18 11.5 -27t46.5 -9h115q92 0 132 -42t40 -109q0 -88 -66 -138.5t-206 -50.5zM254 242q46 0 64.5 30.5t18.5 92.5
q0 65 -18.5 97.5t-65.5 32.5q-46 0 -65 -33.5t-19 -97.5q0 -61 19.5 -91.5t65.5 -30.5zM234 -188q68 0 107 14.5t55 40t16 60.5q0 42 -25 57t-71 15h-103q-26 0 -50 -7t-39.5 -26.5t-15.5 -56.5q0 -43 27.5 -70t98.5 -27z" />
    <glyph glyph-name="h" unicode="h" horiz-adv-x="644" 
d="M19 0v45h6q34 0 57.5 12.5t23.5 58.5v533q0 29 -11.5 43t-30 18.5t-37.5 4.5h-9v45h198v-205q0 -20 -1 -42.5t-3 -38.5l-1 -15h6q25 48 62 68t86 20q83 0 128.5 -46.5t45.5 -148.5v-235q0 -47 20 -59.5t54 -12.5h3v-45h-187v341q0 65 -23 100.5t-79 35.5q-59 0 -85 -44.5
t-26 -115.5v-206q0 -43 23 -54.5t56 -11.5h3v-45h-279z" />
    <glyph glyph-name="i" unicode="i" horiz-adv-x="329" 
d="M164 633q-28 0 -46.5 15t-18.5 50q0 36 18.5 50.5t46.5 14.5q26 0 45.5 -14.5t19.5 -50.5q0 -35 -19.5 -50t-45.5 -15zM21 0v45h13q20 0 38 4.5t29.5 18.5t11.5 43v314q0 29 -11.5 43t-29.5 18.5t-38 4.5h-5v45h194v-421q0 -31 11 -45.5t29.5 -19.5t38.5 -5h13v-45h-294z
" />
    <glyph glyph-name="j" unicode="j" horiz-adv-x="312" 
d="M157 633q-28 0 -46.5 15t-18.5 50q0 36 18.5 50.5t46.5 14.5q26 0 45.5 -14.5t19.5 -50.5q0 -35 -19.5 -50t-45.5 -15zM-14 -240v51h7q54 0 83.5 39t29.5 143v431q0 44 -24.5 55.5t-57.5 11.5h-3v45h195v-544q0 -90 -27.5 -140.5t-75.5 -71t-110 -20.5h-17z" />
    <glyph glyph-name="k" unicode="k" horiz-adv-x="599" 
d="M18 0v45h9q20 0 38 5t29.5 19.5t11.5 45.5v534q0 29 -11.5 43t-30 18.5t-37.5 4.5h-9v45h198v-386q0 -14 -0.5 -34t-1.5 -39.5t-2 -32.5v-14l125 138q28 32 37.5 48.5t9.5 29.5t-12.5 17.5t-37.5 4.5v44h230v-44q-34 0 -68 -23.5t-73 -67.5l-68 -77l133 -198
q26 -40 52 -60.5t57 -20.5h3v-45h-14q-46 0 -77.5 3t-53 12t-39.5 28t-39 52l-97 152l-64 -48v-88q0 -29 11.5 -43t29.5 -18.5t38 -4.5h5v-45h-282z" />
    <glyph glyph-name="l" unicode="l" horiz-adv-x="322" 
d="M14 0v45h13q20 0 38 5t29.5 19.5t11.5 45.5v534q0 29 -11.5 43t-30 18.5t-37.5 4.5h-13v45h202v-645q0 -31 11 -45.5t29 -19.5t39 -5h12v-45h-293z" />
    <glyph glyph-name="m" unicode="m" horiz-adv-x="956" 
d="M26 0v45h10q34 0 55.5 12.5t21.5 58.5v309q0 43 -21.5 55t-54.5 12h-3v44h172l13 -78h5q30 56 67.5 72.5t84.5 16.5q50 0 89 -20t57 -69h9q30 56 70.5 72.5t86.5 16.5q76 0 120 -46.5t44 -148.5v-235q0 -47 20 -59.5t54 -12.5h3v-45h-187v341q0 65 -22 100.5t-76 35.5
q-39 0 -62 -20.5t-33 -53.5t-10 -73v-213q0 -47 20 -59.5t54 -12.5h3v-45h-187v341q0 65 -22 100.5t-76 35.5q-41 0 -64.5 -22.5t-33.5 -58.5t-10 -79v-206q0 -43 23 -54.5t56 -11.5h3v-45h-279z" />
    <glyph glyph-name="n" unicode="n" horiz-adv-x="651" 
d="M26 0v45h6q34 0 57.5 12.5t23.5 58.5v308q0 44 -22.5 55.5t-55.5 11.5h-4v45h175l13 -78h5q31 56 69 72.5t86 16.5q79 0 123 -46.5t44 -148.5v-235q0 -47 19.5 -59.5t53.5 -12.5h5v-45h-188v341q0 65 -22.5 100.5t-78.5 35.5q-42 0 -66.5 -22.5t-35 -58.5t-10.5 -79v-206
q0 -43 22.5 -54.5t55.5 -11.5h4v-45h-279z" />
    <glyph glyph-name="o" unicode="o" horiz-adv-x="587" 
d="M292 -10q-111 0 -175 69t-64 210t61 209.5t181 68.5q111 0 175 -68.5t64 -209.5t-61.5 -210t-180.5 -69zM294 45q70 0 98.5 57t28.5 167q0 111 -28.5 166.5t-99.5 55.5t-99 -55.5t-28 -166.5q0 -110 29 -167t99 -57z" />
    <glyph glyph-name="p" unicode="p" horiz-adv-x="623" 
d="M17 -240v45h9q20 0 38 5t29.5 19.5t11.5 45.5v547q0 45 -23.5 57t-54.5 12h-12v45h181l12 -87h4q22 44 58.5 70.5t94.5 26.5q100 0 152.5 -66.5t52.5 -211.5t-52.5 -212t-150.5 -67q-58 0 -94.5 24t-58.5 62h-4q2 -27 3.5 -61t1.5 -54v-89q0 -29 11.5 -43t29.5 -18.5
t38 -4.5h8v-45h-285zM342 56q62 0 88.5 54.5t26.5 158.5t-26.5 157t-88.5 53q-74 0 -100.5 -52.5t-26.5 -158.5q0 -104 26.5 -158t100.5 -54z" />
    <glyph glyph-name="q" unicode="q" horiz-adv-x="623" 
d="M297 -240v45h29q34 0 58 11.5t24 57.5v83q0 17 0.5 41t1.5 47t3 39h-5q-22 -42 -58 -68t-94 -26q-98 0 -150.5 66.5t-52.5 211.5q0 144 52.5 211t151.5 67q58 0 94.5 -24t58.5 -64h7l18 78h172v-45h-7q-34 0 -58 -12.5t-24 -58.5v-549q0 -43 24 -54.5t57 -11.5h11v-45
h-313zM281 57q73 0 100 52t27 158q0 104 -27 158t-101 54q-62 0 -88.5 -54.5t-26.5 -157.5q0 -105 27 -157.5t89 -52.5z" />
    <glyph glyph-name="r" unicode="r" horiz-adv-x="485" 
d="M29 0v45h3q34 0 57.5 12.5t23.5 59.5v306q0 44 -23 56t-56 12h-3v45h167l19 -93h5q13 30 28.5 53.5t41 37t68.5 13.5q56 0 83 -20t27 -56q0 -35 -24.5 -56.5t-77.5 -21.5q0 41 -11.5 60.5t-40.5 19.5q-28 0 -46 -21t-28.5 -53t-14.5 -66t-4 -60v-161q0 -44 23.5 -55.5
t55.5 -11.5h29v-45h-302z" />
    <glyph glyph-name="s" unicode="s" horiz-adv-x="461" 
d="M216 -10q-85 0 -130 28.5t-45 80.5q0 29 12 44t28.5 21t30.5 6q0 -56 25.5 -92.5t82.5 -36.5q53 0 80 23.5t27 61.5q0 24 -10.5 40t-37.5 31t-75 35q-52 22 -86.5 43.5t-51.5 51t-17 73.5q0 71 53.5 108.5t141.5 37.5q78 0 116 -28t38 -64q0 -29 -20 -46t-60 -17
q0 50 -21.5 78t-65.5 28q-46 0 -68.5 -20.5t-22.5 -54.5q0 -37 28.5 -57.5t99.5 -47.5q75 -31 112.5 -66.5t37.5 -98.5q0 -80 -55 -121t-147 -41z" />
    <glyph glyph-name="t" unicode="t" horiz-adv-x="367" 
d="M241 -10q-73 0 -109.5 34.5t-36.5 121.5v330h-75v43q22 0 44.5 9t38.5 26q31 33 46 105h56v-123h130v-60h-130v-330q0 -49 19.5 -72t54.5 -23q18 0 33.5 2t31.5 5v-50q-14 -6 -43 -12t-60 -6z" />
    <glyph glyph-name="u" unicode="u" horiz-adv-x="644" 
d="M269 -10q-79 0 -121.5 47t-42.5 150v235q0 44 -22 56.5t-56 12.5h-3v45h191v-338q0 -65 20.5 -101.5t76.5 -36.5q61 0 88.5 43.5t27.5 115.5v202q0 31 -11 46t-29 19.5t-39 4.5h-3v45h192v-425q0 -44 23 -55t55 -11h4v-45h-170l-15 78h-5q-31 -55 -72 -71.5t-89 -16.5z
" />
    <glyph glyph-name="v" unicode="v" horiz-adv-x="586" 
d="M240 0l-161 439q-11 31 -28 41.5t-48 10.5v45h266v-45h-21q-52 0 -52 -44q0 -17 8 -39l68 -189q13 -35 25 -76t19 -67q5 22 18.5 59.5t25.5 69.5l71 196q9 25 9 46q0 44 -58 44h-13v45h215v-45h-14q-27 0 -41 -14.5t-32 -62.5l-154 -414h-103z" />
    <glyph glyph-name="w" unicode="w" horiz-adv-x="860" 
d="M204 0l-130 438q-11 32 -26.5 42.5t-44.5 10.5h-3v45h260v-45h-13q-30 0 -45 -8.5t-15 -33.5q0 -8 2.5 -20t5.5 -23l44 -158q10 -36 19.5 -79.5t13.5 -68.5h3q5 25 15.5 61.5t23.5 73.5l103 297h64l99 -295q12 -36 23 -75t16 -62h3q8 47 35 135l49 157q4 13 6.5 27.5
t2.5 22.5q0 49 -66 49h-7v45h218v-45h-13q-29 0 -44.5 -14.5t-30.5 -63.5l-129 -413h-88l-129 394l-135 -394h-87z" />
    <glyph glyph-name="x" unicode="x" horiz-adv-x="597" 
d="M7 0v45h9q36 0 57.5 13.5t51.5 50.5l126 160l-126 169q-22 26 -42.5 39.5t-43.5 13.5h-13v45h270v-45h-3q-35 0 -46 -8.5t-11 -20.5q0 -10 6 -20t17 -26l63 -84l51 70q11 16 18 31t7 29q0 18 -15 23.5t-38 5.5h-3v45h222v-45h-9q-29 0 -49.5 -12t-51.5 -52l-103 -134
l147 -195q22 -29 41.5 -41t38.5 -12h13v-45h-274v45h5q60 0 60 33q0 11 -7.5 24.5t-30.5 44.5l-65 84l-70 -95q-9 -12 -17 -28t-8 -31q0 -17 14.5 -24.5t47.5 -7.5h3v-45h-242z" />
    <glyph glyph-name="y" unicode="y" horiz-adv-x="569" 
d="M35 -240v50q68 0 111.5 25t69.5 68t43 99l-184 437q-13 30 -27.5 40t-41.5 10h-3v47h252v-45h-3q-60 0 -60 -45q0 -17 9 -38l72 -179q14 -35 26 -73t16 -61q5 26 16 56t19 54l67 195q5 11 7 23.5t2 20.5q0 47 -67 47h-3v45h213v-45h-3q-29 0 -44.5 -15.5t-31.5 -61.5
l-152 -417q-26 -73 -50 -119.5t-54 -72t-74.5 -35.5t-113.5 -10h-11z" />
    <glyph glyph-name="z" unicode="z" horiz-adv-x="516" 
d="M35 0v40l292 436h-153q-35 0 -48.5 -19t-23.5 -59l-2 -10h-47l10 148h397v-42l-293 -434h181q33 0 46.5 23.5t20.5 58.5l5 25h47l-5 -167h-427z" />
    <glyph glyph-name="braceleft" unicode="{" horiz-adv-x="432" 
d="M313 -127q-74 0 -112.5 39t-38.5 106v173q0 40 -16 62t-42.5 30.5t-59.5 10.5v47q33 1 59.5 10t42.5 30.5t16 61.5v173q0 69 38.5 106.5t112.5 37.5h74v-46h-32q-44 0 -61.5 -26t-17.5 -77v-170q0 -48 -27.5 -79.5t-83.5 -42.5v-3q57 -10 84 -42t27 -80v-172
q0 -50 17.5 -76.5t61.5 -26.5h32v-46h-74z" />
    <glyph glyph-name="bar" unicode="|" horiz-adv-x="559" 
d="M247 -240v1000h64v-1000h-64z" />
    <glyph glyph-name="braceright" unicode="}" horiz-adv-x="432" 
d="M44 -127v46h33q43 0 61 26.5t18 76.5v172q0 48 27 80t84 42v3q-56 11 -83.5 42.5t-27.5 79.5v170q0 51 -18 77t-61 26h-33v46h74q74 0 113 -37.5t39 -106.5v-173q0 -40 15.5 -61.5t42 -30.5t59.5 -10v-47q-33 -2 -59.5 -10.5t-42 -30.5t-15.5 -62v-173q0 -67 -39 -106
t-113 -39h-74z" />
    <glyph glyph-name="asciitilde" unicode="~" horiz-adv-x="559" 
d="M52 267q2 41 13 82.5t37 69t75 27.5q35 0 61.5 -16.5t63.5 -49.5q24 -22 42.5 -36t37.5 -14q28 0 41.5 30t18.5 86h64q-3 -30 -9.5 -61t-20 -58t-36.5 -43.5t-58 -16.5q-34 0 -62.5 17t-59.5 47q-26 25 -44 38.5t-39 13.5q-29 0 -43.5 -28.5t-18.5 -87.5h-63z" />
    <glyph glyph-name="uni00A0" unicode="&#xa0;" horiz-adv-x="260" 
 />
    <glyph glyph-name="exclamdown" unicode="&#xa1;" horiz-adv-x="346" 
d="M202 326l37 -506h-132l37 506h58zM173 541q29 0 48.5 -15.5t19.5 -55.5q0 -41 -19.5 -56t-48.5 -15q-28 0 -48 15t-20 56q0 40 20 55.5t48 15.5z" />
    <glyph glyph-name="cent" unicode="&#xa2;" horiz-adv-x="559" 
d="M283 0v87q-62 6 -109.5 35t-74 87t-26.5 151q0 99 28 159t75.5 88.5t106.5 33.5v73h54v-73q43 -3 81 -16t61 -34.5t23 -51.5q0 -34 -23.5 -51.5t-76.5 -17.5q0 41 -15 74t-50 41v-437q47 1 84.5 22.5t54.5 53.5q19 -13 19 -41q0 -35 -36.5 -64.5t-121.5 -33.5v-85h-54z
M283 156v429q-43 -11 -70.5 -61t-27.5 -163q0 -174 98 -205z" />
    <glyph glyph-name="sterling" unicode="&#xa3;" horiz-adv-x="559" 
d="M403 -10q-27 0 -54 7.5t-52 15.5q-23 8 -48 15t-50 7q-34 0 -62 -9.5t-59 -23.5l-21 -11v63l22 14q23 14 46 36.5t38 54t15 71.5q0 28 -7 55.5t-17 53.5h-112v51h92q-13 30 -24.5 71t-11.5 82q0 86 55.5 133.5t153.5 47.5q100 0 141.5 -32.5t41.5 -80.5
q0 -33 -24.5 -51.5t-67.5 -18.5q0 31 -7.5 61t-28 49.5t-60.5 19.5q-52 0 -78 -32t-26 -93q0 -46 13 -87t25 -69h172v-51l-157 1q7 -24 13 -48t6 -52q0 -42 -24 -75.5t-65 -61.5l3 -4q34 16 69 16q20 0 43 -6.5t49 -13.5q23 -7 43 -12.5t37 -5.5q35 0 60.5 19.5t44.5 44.5
v-78q-19 -28 -49.5 -50.5t-77.5 -22.5z" />
    <glyph glyph-name="currency" unicode="&#xa4;" horiz-adv-x="559" 
d="M109 144l-44 44l63 64q-32 46 -32 105q0 62 33 107l-64 64l44 44l64 -64q46 33 106 33q58 0 104 -33l66 65l44 -45l-64 -65q16 -23 25 -49.5t9 -56.5q0 -29 -9 -56t-25 -49l64 -64l-43 -44l-65 64q-23 -16 -50 -25t-56 -9q-60 0 -106 34zM279 233q35 0 63 17t44.5 45
t16.5 62q0 35 -16.5 64t-44.5 45.5t-63 16.5t-63 -16.5t-44.5 -45.5t-16.5 -64q0 -34 16.5 -62t44.5 -45t63 -17z" />
    <glyph glyph-name="yen" unicode="&#xa5;" horiz-adv-x="559" 
d="M122 0v45h23q22 0 40 3.5t29.5 17.5t12.5 43v65h-140v50h140v67h-140v50h122l-131 275q-14 29 -27.5 41t-41.5 12h-3v45h254v-45h-7q-57 0 -57 -39q0 -12 4 -27t12 -32l46 -103q14 -32 25.5 -67.5t17.5 -55.5q3 12 14.5 37.5t20.5 46.5l53 118q12 29 17.5 49.5t5.5 32.5
q0 20 -14 30t-47 10h-3v45h205v-45h-7q-26 0 -40 -15.5t-36 -62.5l-117 -250h126v-50h-140v-67h140v-50h-140v-60q0 -32 11 -46.5t29.5 -18.5t41.5 -4h23v-45h-322z" />
    <glyph glyph-name="brokenbar" unicode="&#xa6;" horiz-adv-x="559" 
d="M247 360v400h64v-400h-64zM247 -240v400h64v-400h-64z" />
    <glyph glyph-name="section" unicode="&#xa7;" horiz-adv-x="544" 
d="M273 -114q-87 0 -132 33t-45 87q0 40 23 56t47 16q0 -38 12.5 -70t38 -51.5t65.5 -19.5q58 0 87 26.5t29 72.5q0 22 -6 38.5t-23.5 32.5t-52.5 35.5t-93 47.5q-80 40 -114.5 83.5t-34.5 103.5q0 37 17.5 65t43.5 45q-18 20 -28.5 48t-10.5 65q0 76 53.5 118t134.5 42
q83 0 125 -32t42 -81q0 -31 -20.5 -47.5t-56.5 -16.5q0 31 -8.5 60t-29 47.5t-56.5 18.5q-47 0 -74.5 -25t-27.5 -72q0 -34 17 -55t49 -37t79 -39q91 -44 132.5 -87t41.5 -103q0 -36 -18.5 -69.5t-43.5 -54.5q15 -20 24 -45.5t9 -55.5q0 -80 -47 -130t-148 -50zM399 203
q7 11 12.5 24t5.5 29q0 22 -10 42.5t-37.5 42t-79.5 46.5q-35 17 -66 33t-56 36q-10 -10 -16.5 -23t-6.5 -31q0 -27 13 -47t44.5 -40.5t87.5 -47.5q31 -15 58.5 -30t50.5 -34z" />
    <glyph glyph-name="dieresis" unicode="&#xa8;" horiz-adv-x="577" 
d="M385 630q-23 0 -38 13t-15 45t15 45t38 13q22 0 37.5 -13t15.5 -45t-15.5 -45t-37.5 -13zM191 630q-23 0 -38 13t-15 45t15 45t38 13q22 0 37.5 -13t15.5 -45t-15.5 -45t-37.5 -13z" />
    <glyph glyph-name="copyright" unicode="&#xa9;" horiz-adv-x="845" 
d="M422 -10q-106 0 -189 45.5t-130.5 128t-47.5 194.5q0 111 47 193.5t130 128t190 45.5t190 -45.5t130.5 -128t47.5 -194.5q0 -111 -47.5 -193.5t-130.5 -128t-190 -45.5zM423 46q93 0 162 38.5t107 109t38 164.5q0 95 -39 165t-108 108t-160 38t-160.5 -38t-108.5 -108
t-39 -166q0 -97 39.5 -167t109.5 -107t159 -37zM428 128q-104 0 -155.5 63t-51.5 167q0 101 56 164.5t165 63.5q71 0 106 -22t35 -53q0 -23 -20.5 -35.5t-49.5 -12.5q0 29 -16.5 53.5t-56.5 24.5q-72 0 -102.5 -47.5t-30.5 -135.5t34.5 -136t99.5 -48q47 0 80 22t46 47
q16 -10 16 -32q0 -29 -39 -56t-116 -27z" />
    <glyph glyph-name="ordfeminine" unicode="&#xaa;" horiz-adv-x="392" 
d="M139 380q-49 0 -77.5 26t-28.5 76t40.5 73.5t123.5 27.5l43 2v28q0 30 -8 48.5t-39 18.5q-29 0 -37 -19t-8 -47q-42 0 -65 10t-23 33q0 34 40 48t95 14q68 0 102 -24.5t34 -82.5v-151q0 -22 9.5 -30t33.5 -8v-37h-102l-20 47h-5q-18 -20 -43.5 -36.5t-64.5 -16.5z
M172 429q32 0 50 21.5t18 55.5v45l-29 -1q-47 -2 -65 -19t-18 -49q0 -30 12.5 -41.5t31.5 -11.5z" />
    <glyph glyph-name="guillemotleft" unicode="&#xab;" horiz-adv-x="525" 
d="M405 77l-153 174v38l153 174h55l-101 -193l101 -193h-55zM218 77l-153 174v38l153 174h56l-101 -193l101 -193h-56z" />
    <glyph glyph-name="logicalnot" unicode="&#xac;" horiz-adv-x="559" 
d="M431 129v197h-366v63h429v-260h-63z" />
    <glyph glyph-name="uni00AD" unicode="&#xad;" horiz-adv-x="310" 
d="M25 231v83h260v-83h-260z" />
    <glyph glyph-name="registered" unicode="&#xae;" horiz-adv-x="845" 
d="M422 -10q-106 0 -189 45.5t-130.5 128t-47.5 194.5q0 111 47 193.5t130 128t190 45.5t190 -45.5t130.5 -128t47.5 -194.5q0 -111 -47.5 -193.5t-130.5 -128t-190 -45.5zM423 46q93 0 162 38.5t107 109t38 164.5q0 95 -39 165t-108 108t-160 38t-160.5 -38t-108.5 -108
t-39 -166q0 -97 39.5 -167t109.5 -107t159 -37zM231 141v34h13q20 0 34.5 6t14.5 29v293q0 23 -14.5 29t-34.5 6h-13v37h183q173 0 173 -120q0 -49 -28 -74.5t-64 -37.5l89 -141q10 -16 20 -21.5t34 -5.5v-34h-108l-110 185h-49v-116q0 -23 14.5 -29t34.5 -6h14v-34h-203z
M371 368h42q53 0 73.5 20t20.5 64t-22.5 61.5t-74.5 17.5h-39v-163z" />
    <glyph glyph-name="overscore" unicode="&#xaf;" horiz-adv-x="459" 
d="M-5 760v59h469v-59h-469z" />
    <glyph glyph-name="degree" unicode="&#xb0;" horiz-adv-x="400" 
d="M199 423q-68 0 -110 41.5t-42 109.5q0 67 42 109.5t110 42.5t110.5 -42.5t42.5 -109.5q0 -68 -42.5 -109.5t-110.5 -41.5zM200 484q40 0 62 25t22 65q0 42 -22.5 66.5t-61.5 24.5q-38 0 -61.5 -24.5t-23.5 -66.5q0 -40 22.5 -65t62.5 -25z" />
    <glyph glyph-name="plusminus" unicode="&#xb1;" horiz-adv-x="559" 
d="M247 143v183h-182v63h182v183h64v-183h183v-63h-183v-183h-64zM65 0v62h429v-62h-429z" />
    <glyph glyph-name="uni00B2" unicode="&#xb2;" horiz-adv-x="400" 
d="M41 387v52l122 108q47 41 63.5 82t16.5 81q0 33 -12.5 53.5t-42.5 20.5q-36 0 -49 -28t-13 -63q-34 0 -55.5 10t-21.5 38q0 36 35 60t104 24q73 0 111.5 -28t38.5 -80q0 -31 -10.5 -57.5t-36 -55t-72.5 -66.5l-99 -84h149q23 0 32 11.5t12 27.5l4 23h35l-4 -129h-307z
" />
    <glyph glyph-name="uni00B3" unicode="&#xb3;" horiz-adv-x="400" 
d="M172 380q-65 0 -99.5 22.5t-34.5 59.5q0 21 12.5 35t35.5 14q0 -32 21 -58t63 -26q40 0 64 19.5t24 65.5q0 35 -24.5 55.5t-79.5 20.5h-33v43h33q38 0 62.5 22.5t24.5 62.5q0 32 -13 49.5t-42 17.5q-36 0 -49 -26.5t-13 -60.5q-37 0 -57.5 8.5t-20.5 34.5q0 36 36 60.5
t105 24.5q67 0 108 -26t41 -73q0 -43 -28 -69.5t-71 -38.5v-5q29 -4 55.5 -15t43.5 -31t17 -55q0 -49 -28.5 -77.5t-70.5 -41t-82 -12.5z" />
    <glyph glyph-name="acute" unicode="&#xb4;" horiz-adv-x="291" 
d="M40 606v13q14 19 31 45t33 53t26 49h121v-10q-13 -18 -41.5 -46.5t-62 -57t-61.5 -46.5h-46z" />
    <glyph glyph-name="uni00B5" unicode="&#xb5;" horiz-adv-x="629" 
d="M169 -240q-33 0 -58.5 26.5t-25.5 95.5q0 40 2.5 87.5t5.5 110t4 145.5v311h110v-334q0 -62 19.5 -102t73.5 -40q52 0 82.5 44t30.5 116v316h110v-405q0 -44 19.5 -65t44.5 -21h4v-45h-63q-44 0 -70 21.5t-36 60.5h-4q-23 -41 -54.5 -66.5t-84.5 -25.5q-42 0 -72.5 15.5
t-49.5 43.5q1 -55 6.5 -98.5t24 -70.5t57.5 -33q0 -37 -19 -62t-57 -25z" />
    <glyph glyph-name="paragraph" unicode="&#xb6;" horiz-adv-x="620" 
d="M169 -111v45h13q34 0 58 12.5t24 59.5v380h-71q-59 0 -92 27.5t-47 72t-14 96.5q0 80 35 129t120 49h384v-45h-13q-34 0 -58 -12.5t-24 -59.5v-637q0 -47 24 -59.5t58 -12.5h13v-45h-159v817h-92v-817h-159z" />
    <glyph glyph-name="periodcentered" unicode="&#xb7;" horiz-adv-x="262" 
d="M131 284q-29 0 -48.5 16t-19.5 56t19.5 55.5t48.5 15.5q28 0 48 -15.5t20 -55.5t-20 -56t-48 -16z" />
    <glyph glyph-name="cedilla" unicode="&#xb8;" horiz-adv-x="333" 
d="M137 -240q-16 0 -39 3t-41 8v54q38 -8 68 -8q29 0 45 13.5t16 39.5q0 29 -21.5 42.5t-53.5 15.5l21 81h50l-10 -43q49 -4 74.5 -28t25.5 -64q0 -53 -35.5 -83.5t-99.5 -30.5z" />
    <glyph glyph-name="uni00B9" unicode="&#xb9;" horiz-adv-x="400" 
d="M62 387v37h54q18 0 30 6t12 32v287q-28 -28 -43.5 -38.5t-35.5 -10.5q-16 0 -26 12t-10 31q15 3 29.5 6t37.5 15t63 39l21 16h57v-357q0 -26 12.5 -32t30.5 -6h44v-37h-276z" />
    <glyph glyph-name="ordmasculine" unicode="&#xba;" horiz-adv-x="408" 
d="M204 380q-80 0 -124.5 42t-44.5 128q0 169 171 169q77 0 122 -41.5t45 -127.5t-43.5 -128t-125.5 -42zM205 423q41 0 57.5 32t16.5 95q0 62 -17.5 93t-57.5 31q-41 0 -57.5 -31t-16.5 -93q0 -63 16.5 -95t58.5 -32z" />
    <glyph glyph-name="guillemotright" unicode="&#xbb;" horiz-adv-x="525" 
d="M252 77l101 193l-101 193h55l153 -174v-38l-153 -174h-55zM65 77l101 193l-101 193h56l153 -174v-38l-153 -174h-56z" />
    <glyph glyph-name="onequarter" unicode="&#xbc;" horiz-adv-x="840" 
d="M27 287v37h54q18 0 30 6t12 32v287q-28 -28 -43.5 -38.5t-35.5 -10.5q-16 0 -26 12t-10 31q15 3 29.5 6t37.5 15t63 39l21 16h57v-357q0 -26 12.5 -32t30.5 -6h44v-37h-276zM208 0l357 714h69l-356 -714h-70zM566 0v37h28q16 0 28.5 6t12.5 32v49h-181v33l190 275h83
v-262h91v-46h-91v-49q0 -26 12.5 -32t29.5 -6h20v-37h-223zM515 170h120v115q0 16 1.5 34t3.5 37q-4 -8 -8.5 -16t-6.5 -12z" />
    <glyph glyph-name="onehalf" unicode="&#xbd;" horiz-adv-x="840" 
d="M27 287v37h54q18 0 30 6t12 32v287q-28 -28 -43.5 -38.5t-35.5 -10.5q-16 0 -26 12t-10 31q15 3 29.5 6t37.5 15t63 39l21 16h57v-357q0 -26 12.5 -32t30.5 -6h44v-37h-276zM188 0l357 714h69l-356 -714h-70zM495 0v52l122 108q47 41 63.5 82t16.5 81q0 33 -12.5 53.5
t-42.5 20.5q-36 0 -49 -28t-13 -63q-34 0 -55.5 10t-21.5 38q0 36 35 60t104 24q73 0 111.5 -28t38.5 -80q0 -31 -10.5 -57.5t-36 -55t-72.5 -66.5l-99 -84h149q23 0 32 11.5t12 27.5l4 23h35l-4 -129h-307z" />
    <glyph glyph-name="threequarters" unicode="&#xbe;" horiz-adv-x="840" 
d="M172 280q-65 0 -99.5 22.5t-34.5 59.5q0 21 12.5 35t35.5 14q0 -32 21 -58t63 -26q40 0 64 19.5t24 65.5q0 35 -24.5 55.5t-79.5 20.5h-33v43h33q38 0 62.5 22.5t24.5 62.5q0 32 -13 49.5t-42 17.5q-36 0 -49 -26.5t-13 -60.5q-37 0 -57.5 8.5t-20.5 34.5q0 36 36 60.5
t105 24.5q67 0 108 -26t41 -73q0 -43 -28 -69.5t-71 -38.5v-5q29 -4 55.5 -15t43.5 -31t17 -55q0 -49 -28.5 -77.5t-70.5 -41t-82 -12.5zM228 0l357 714h69l-356 -714h-70zM566 0v37h28q16 0 28.5 6t12.5 32v49h-181v33l190 275h83v-262h91v-46h-91v-49q0 -26 12.5 -32
t29.5 -6h20v-37h-223zM515 170h120v115q0 16 1.5 34t3.5 37q-4 -8 -8.5 -16t-6.5 -12z" />
    <glyph glyph-name="questiondown" unicode="&#xbf;" horiz-adv-x="495" 
d="M301 324l7 -144q-59 -24 -92 -57t-46 -71.5t-13 -78.5q0 -51 24 -82t78 -31q57 0 80 38t23 90q43 0 71 -16.5t28 -48.5q0 -49 -47.5 -82t-146.5 -33q-65 0 -115.5 21.5t-79.5 62t-29 98.5q0 82 50.5 135t142.5 92l6 107h59zM273 539q28 0 48.5 -15.5t20.5 -55.5
q0 -41 -20.5 -56t-48.5 -15q-27 0 -47.5 15t-20.5 56q0 40 20.5 55.5t47.5 15.5z" />
    <glyph glyph-name="Agrave" unicode="&#xc0;" horiz-adv-x="718" 
d="M1 0v45h17q28 0 44 15t33 62l221 592h94l221 -611q13 -35 29 -46.5t44 -11.5h14v-45h-290v45h27q26 0 41 11t15 35q0 9 -2.5 18t-5.5 20l-39 109h-258l-35 -100q-10 -27 -10 -47q0 -46 60 -46h29v-45h-249zM226 291h219l-59 172q-14 41 -27 81t-21 76q-8 -35 -19 -70.5
t-28 -78.5zM359 771q-28 18 -61.5 46.5t-62 57t-40.5 46.5v10h121q11 -22 26.5 -49t32 -53t31.5 -45v-13h-47z" />
    <glyph glyph-name="Aacute" unicode="&#xc1;" horiz-adv-x="718" 
d="M1 0v45h17q28 0 44 15t33 62l221 592h94l221 -611q13 -35 29 -46.5t44 -11.5h14v-45h-290v45h27q26 0 41 11t15 35q0 9 -2.5 18t-5.5 20l-39 109h-258l-35 -100q-10 -27 -10 -47q0 -46 60 -46h29v-45h-249zM226 291h219l-59 172q-14 41 -27 81t-21 76q-8 -35 -19 -70.5
t-28 -78.5zM312 771v13q14 19 31 45t33 53t26 49h121v-10q-13 -18 -41.5 -46.5t-62 -57t-61.5 -46.5h-46z" />
    <glyph glyph-name="Acircumflex" unicode="&#xc2;" horiz-adv-x="718" 
d="M1 0v45h17q28 0 44 15t33 62l221 592h94l221 -611q13 -35 29 -46.5t44 -11.5h14v-45h-290v45h27q26 0 41 11t15 35q0 9 -2.5 18t-5.5 20l-39 109h-258l-35 -100q-10 -27 -10 -47q0 -46 60 -46h29v-45h-249zM226 291h219l-59 172q-14 41 -27 81t-21 76q-8 -35 -19 -70.5
t-28 -78.5zM205 771v13q16 19 36 45t38 53t29 49h106q11 -22 29 -49t38 -53t36 -45v-13h-48q-26 16 -56 41.5t-53 48.5q-23 -23 -52 -48.5t-56 -41.5h-47z" />
    <glyph glyph-name="Atilde" unicode="&#xc3;" horiz-adv-x="718" 
d="M1 0v45h17q28 0 44 15t33 62l221 592h94l221 -611q13 -35 29 -46.5t44 -11.5h14v-45h-290v45h27q26 0 41 11t15 35q0 9 -2.5 18t-5.5 20l-39 109h-258l-35 -100q-10 -27 -10 -47q0 -46 60 -46h29v-45h-249zM226 291h219l-59 172q-14 41 -27 81t-21 76q-8 -35 -19 -70.5
t-28 -78.5zM433 771q-27 0 -49 9.5t-40.5 22t-35 22t-32.5 9.5q-28 0 -37 -16.5t-12 -36.5h-51q3 50 30.5 88t81.5 38q27 0 48.5 -9.5t40 -22t35 -22t32.5 -9.5q27 0 36.5 16.5t12.5 36.5h50q-2 -33 -14.5 -61.5t-36.5 -46.5t-59 -18z" />
    <glyph glyph-name="Adieresis" unicode="&#xc4;" horiz-adv-x="718" 
d="M1 0v45h17q28 0 44 15t33 62l221 592h94l221 -611q13 -35 29 -46.5t44 -11.5h14v-45h-290v45h27q26 0 41 11t15 35q0 9 -2.5 18t-5.5 20l-39 109h-258l-35 -100q-10 -27 -10 -47q0 -46 60 -46h29v-45h-249zM226 291h219l-59 172q-14 41 -27 81t-21 76q-8 -35 -19 -70.5
t-28 -78.5zM456 795q-23 0 -38 13t-15 45t15 45t38 13q22 0 37.5 -13t15.5 -45t-15.5 -45t-37.5 -13zM262 795q-23 0 -38 13t-15 45t15 45t38 13q22 0 37.5 -13t15.5 -45t-15.5 -45t-37.5 -13z" />
    <glyph glyph-name="Aring" unicode="&#xc5;" horiz-adv-x="718" 
d="M1 0v45h17q28 0 44 15t33 62l207 553q-28 12 -44.5 36.5t-16.5 60.5q0 53 35 81t85 28t85 -28t35 -81q0 -34 -16 -58.5t-42 -36.5l208 -574q13 -35 29 -46.5t44 -11.5h14v-45h-290v45h27q26 0 41 11t15 35q0 9 -2.5 18t-5.5 20l-39 109h-258l-35 -100q-10 -27 -10 -47
q0 -46 60 -46h29v-45h-249zM361 714q26 0 45 13t19 45t-19 45.5t-45 13.5t-45 -13.5t-19 -45.5q0 -31 18.5 -44.5t45.5 -13.5zM226 291h219l-59 172q-14 41 -27 81t-21 76q-8 -35 -19 -70.5t-28 -78.5z" />
    <glyph glyph-name="AE" unicode="&#xc6;" horiz-adv-x="963" 
d="M0 0v45h15q26 0 47 18.5t42 59.5l287 541l-75 5v45h569l4 -177h-57l-5 44q-4 34 -22 56.5t-59 23.5h-168v-262h240v-52h-240v-294h195q43 0 62 23.5t24 56.5l8 44h56l-7 -177h-549v45h21q32 0 52 13t21 52v126h-230l-51 -99q-8 -16 -12 -30t-4 -23q0 -39 60 -39h21v-45
h-245zM259 289h202v372h-13z" />
    <glyph glyph-name="Ccedilla" unicode="&#xc7;" horiz-adv-x="629" 
d="M372 -10q-104 0 -174.5 46t-106 128.5t-35.5 193.5q0 108 37 190.5t110 129t181 46.5q106 0 157.5 -32.5t51.5 -80.5q0 -34 -26.5 -54.5t-70.5 -20.5q0 32 -11 62t-36 50t-68 20q-109 0 -153.5 -81t-44.5 -229q0 -92 21 -158.5t66.5 -103t119.5 -36.5q73 0 114.5 27
t67.5 61q8 -6 13 -16t5 -24q0 -26 -22.5 -53.5t-70.5 -46t-125 -18.5zM338 -240q-16 0 -39 3t-41 8v54q38 -8 68 -8q29 0 45 13.5t16 39.5q0 29 -21.5 42.5t-53.5 15.5l21 81h50l-10 -43q49 -4 74.5 -28t25.5 -64q0 -53 -35.5 -83.5t-99.5 -30.5z" />
    <glyph glyph-name="Egrave" unicode="&#xc8;" horiz-adv-x="631" 
d="M35 0v45h21q30 0 52 11t22 54v489q0 46 -21.5 58t-52.5 12h-21v45h518l5 -177h-57l-5 44q-4 34 -22 57t-59 23h-168v-262h240v-52h-240v-294h195q42 0 61.5 23.5t24.5 56.5l7 44h57l-7 -177h-550zM327 771q-28 18 -61.5 46.5t-62 57t-40.5 46.5v10h121q11 -22 26.5 -49
t32 -53t31.5 -45v-13h-47z" />
    <glyph glyph-name="Eacute" unicode="&#xc9;" horiz-adv-x="631" 
d="M35 0v45h21q30 0 52 11t22 54v489q0 46 -21.5 58t-52.5 12h-21v45h518l5 -177h-57l-5 44q-4 34 -22 57t-59 23h-168v-262h240v-52h-240v-294h195q42 0 61.5 23.5t24.5 56.5l7 44h57l-7 -177h-550zM263 771v13q14 19 31 45t33 53t26 49h121v-10q-13 -18 -41.5 -46.5
t-62 -57t-61.5 -46.5h-46z" />
    <glyph glyph-name="Ecircumflex" unicode="&#xca;" horiz-adv-x="631" 
d="M35 0v45h21q30 0 52 11t22 54v489q0 46 -21.5 58t-52.5 12h-21v45h518l5 -177h-57l-5 44q-4 34 -22 57t-59 23h-168v-262h240v-52h-240v-294h195q42 0 61.5 23.5t24.5 56.5l7 44h57l-7 -177h-550zM163 771v13q16 19 36 45t38 53t29 49h106q11 -22 29 -49t38 -53t36 -45
v-13h-48q-26 16 -56 41.5t-53 48.5q-23 -23 -52 -48.5t-56 -41.5h-47z" />
    <glyph glyph-name="Edieresis" unicode="&#xcb;" horiz-adv-x="631" 
d="M35 0v45h21q30 0 52 11t22 54v489q0 46 -21.5 58t-52.5 12h-21v45h518l5 -177h-57l-5 44q-4 34 -22 57t-59 23h-168v-262h240v-52h-240v-294h195q42 0 61.5 23.5t24.5 56.5l7 44h57l-7 -177h-550zM416 795q-23 0 -38 13t-15 45t15 45t38 13q22 0 37.5 -13t15.5 -45
t-15.5 -45t-37.5 -13zM222 795q-23 0 -38 13t-15 45t15 45t38 13q22 0 37.5 -13t15.5 -45t-15.5 -45t-37.5 -13z" />
    <glyph glyph-name="Igrave" unicode="&#xcc;" horiz-adv-x="376" 
d="M35 0v45h21q31 0 52.5 12t21.5 58v484q0 46 -21.5 58t-52.5 12h-21v45h306v-45h-21q-30 0 -51.5 -12t-21.5 -58v-484q0 -46 21.5 -58t51.5 -12h21v-45h-306zM196 771q-28 18 -61.5 46.5t-62 57t-40.5 46.5v10h121q11 -22 26.5 -49t32 -53t31.5 -45v-13h-47z" />
    <glyph glyph-name="Iacute" unicode="&#xcd;" horiz-adv-x="376" 
d="M35 0v45h21q31 0 52.5 12t21.5 58v484q0 46 -21.5 58t-52.5 12h-21v45h306v-45h-21q-30 0 -51.5 -12t-21.5 -58v-484q0 -46 21.5 -58t51.5 -12h21v-45h-306zM130 771v13q14 19 31 45t33 53t26 49h121v-10q-13 -18 -41.5 -46.5t-62 -57t-61.5 -46.5h-46z" />
    <glyph glyph-name="Icircumflex" unicode="&#xce;" horiz-adv-x="376" 
d="M35 0v45h21q31 0 52.5 12t21.5 58v484q0 46 -21.5 58t-52.5 12h-21v45h306v-45h-21q-30 0 -51.5 -12t-21.5 -58v-484q0 -46 21.5 -58t51.5 -12h21v-45h-306zM32 771v13q16 19 36 45t38 53t29 49h106q11 -22 29 -49t38 -53t36 -45v-13h-48q-26 16 -56 41.5t-53 48.5
q-23 -23 -52 -48.5t-56 -41.5h-47z" />
    <glyph glyph-name="Idieresis" unicode="&#xcf;" horiz-adv-x="376" 
d="M35 0v45h21q31 0 52.5 12t21.5 58v484q0 46 -21.5 58t-52.5 12h-21v45h306v-45h-21q-30 0 -51.5 -12t-21.5 -58v-484q0 -46 21.5 -58t51.5 -12h21v-45h-306zM283 795q-23 0 -38 13t-15 45t15 45t38 13q22 0 37.5 -13t15.5 -45t-15.5 -45t-37.5 -13zM89 795q-23 0 -38 13
t-15 45t15 45t38 13q22 0 37.5 -13t15.5 -45t-15.5 -45t-37.5 -13z" />
    <glyph glyph-name="Eth" unicode="&#xd0;" horiz-adv-x="738" 
d="M35 0v45h21q31 0 52.5 12t21.5 58v232h-92v53h92v203q0 43 -22 54.5t-52 11.5h-21v45h313q158 0 246 -91.5t88 -261.5q0 -109 -37.5 -190.5t-112 -126t-184.5 -44.5h-313zM246 54h79q115 0 172.5 80t57.5 227t-57.5 223.5t-171.5 76.5h-80v-261h158v-53h-158v-293z" />
    <glyph glyph-name="Ntilde" unicode="&#xd1;" horiz-adv-x="770" 
d="M35 0v45h21q31 0 52.5 12t21.5 58v488q0 43 -22 54.5t-52 11.5h-21v45h194l357 -538v427q0 43 -22.5 54.5t-51.5 11.5h-21v45h254v-45h-21q-30 0 -52 -12t-22 -58v-599h-76l-379 569v-454q0 -46 21.5 -58t51.5 -12h21v-45h-254zM470 771q-27 0 -49 9.5t-40.5 22t-35 22
t-32.5 9.5q-28 0 -37 -16.5t-12 -36.5h-51q3 50 30.5 88t81.5 38q27 0 48.5 -9.5t40 -22t35 -22t32.5 -9.5q27 0 36.5 16.5t12.5 36.5h50q-2 -33 -14.5 -61.5t-36.5 -46.5t-59 -18z" />
    <glyph glyph-name="Ograve" unicode="&#xd2;" horiz-adv-x="754" 
d="M377 -10q-108 0 -179.5 46t-106.5 129t-35 194t35.5 193t107 127.5t179.5 45.5q102 0 173.5 -45.5t109 -128t37.5 -193.5t-37.5 -193.5t-109 -128.5t-174.5 -46zM377 47q107 0 150.5 82t43.5 229t-43.5 228.5t-149.5 81.5t-151 -81.5t-45 -228.5t44.5 -229t150.5 -82z
M386 771q-28 18 -61.5 46.5t-62 57t-40.5 46.5v10h121q11 -22 26.5 -49t32 -53t31.5 -45v-13h-47z" />
    <glyph glyph-name="Oacute" unicode="&#xd3;" horiz-adv-x="754" 
d="M377 -10q-108 0 -179.5 46t-106.5 129t-35 194t35.5 193t107 127.5t179.5 45.5q102 0 173.5 -45.5t109 -128t37.5 -193.5t-37.5 -193.5t-109 -128.5t-174.5 -46zM377 47q107 0 150.5 82t43.5 229t-43.5 228.5t-149.5 81.5t-151 -81.5t-45 -228.5t44.5 -229t150.5 -82z
M319 771v13q14 19 31 45t33 53t26 49h121v-10q-13 -18 -41.5 -46.5t-62 -57t-61.5 -46.5h-46z" />
    <glyph glyph-name="Ocircumflex" unicode="&#xd4;" horiz-adv-x="754" 
d="M377 -10q-108 0 -179.5 46t-106.5 129t-35 194t35.5 193t107 127.5t179.5 45.5q102 0 173.5 -45.5t109 -128t37.5 -193.5t-37.5 -193.5t-109 -128.5t-174.5 -46zM377 47q107 0 150.5 82t43.5 229t-43.5 228.5t-149.5 81.5t-151 -81.5t-45 -228.5t44.5 -229t150.5 -82z
M222 771v13q16 19 36 45t38 53t29 49h106q11 -22 29 -49t38 -53t36 -45v-13h-48q-26 16 -56 41.5t-53 48.5q-23 -23 -52 -48.5t-56 -41.5h-47z" />
    <glyph glyph-name="Otilde" unicode="&#xd5;" horiz-adv-x="754" 
d="M377 -10q-108 0 -179.5 46t-106.5 129t-35 194t35.5 193t107 127.5t179.5 45.5q102 0 173.5 -45.5t109 -128t37.5 -193.5t-37.5 -193.5t-109 -128.5t-174.5 -46zM377 47q107 0 150.5 82t43.5 229t-43.5 228.5t-149.5 81.5t-151 -81.5t-45 -228.5t44.5 -229t150.5 -82z
M445 771q-27 0 -49 9.5t-40.5 22t-35 22t-32.5 9.5q-28 0 -37 -16.5t-12 -36.5h-51q3 50 30.5 88t81.5 38q27 0 48.5 -9.5t40 -22t35 -22t32.5 -9.5q27 0 36.5 16.5t12.5 36.5h50q-2 -33 -14.5 -61.5t-36.5 -46.5t-59 -18z" />
    <glyph glyph-name="Odieresis" unicode="&#xd6;" horiz-adv-x="754" 
d="M377 -10q-108 0 -179.5 46t-106.5 129t-35 194t35.5 193t107 127.5t179.5 45.5q102 0 173.5 -45.5t109 -128t37.5 -193.5t-37.5 -193.5t-109 -128.5t-174.5 -46zM377 47q107 0 150.5 82t43.5 229t-43.5 228.5t-149.5 81.5t-151 -81.5t-45 -228.5t44.5 -229t150.5 -82z
M471 795q-23 0 -38 13t-15 45t15 45t38 13q22 0 37.5 -13t15.5 -45t-15.5 -45t-37.5 -13zM277 795q-23 0 -38 13t-15 45t15 45t38 13q22 0 37.5 -13t15.5 -45t-15.5 -45t-37.5 -13z" />
    <glyph glyph-name="multiply" unicode="&#xd7;" horiz-adv-x="559" 
d="M118 153l-44 45l161 161l-161 160l44 44l161 -161l161 162l44 -45l-161 -161l161 -161l-44 -44l-161 161z" />
    <glyph glyph-name="Oslash" unicode="&#xd8;" horiz-adv-x="754" 
d="M128 -40l50 90q-62 47 -92 126.5t-30 182.5q0 111 35.5 193t107 127.5t179.5 45.5q86 0 152 -34l35 64h61l-50 -92q59 -47 90.5 -125.5t31.5 -179.5q0 -111 -37.5 -193.5t-109 -128.5t-174.5 -46q-87 0 -153 32l-33 -62h-63zM224 135l271 492q-44 41 -117 41
q-106 0 -151 -81.5t-45 -228.5q0 -71 10 -127t32 -96zM377 47q107 0 150.5 82t43.5 229q0 70 -9.5 126t-31.5 96l-270 -493q44 -40 117 -40z" />
    <glyph glyph-name="Ugrave" unicode="&#xd9;" horiz-adv-x="725" 
d="M369 -10q-122 0 -190.5 52t-68.5 175v386q0 43 -22 54.5t-51 11.5h-22v45h306v-45h-21q-30 0 -51.5 -12t-21.5 -58v-389q0 -86 45 -121.5t117 -35.5q81 0 121 41.5t40 112.5v396q0 43 -21.5 54.5t-51.5 11.5h-21v45h254v-45h-21q-31 0 -52.5 -12t-21.5 -58v-394
q0 -101 -62 -158t-184 -57zM383 771q-28 18 -61.5 46.5t-62 57t-40.5 46.5v10h121q11 -22 26.5 -49t32 -53t31.5 -45v-13h-47z" />
    <glyph glyph-name="Uacute" unicode="&#xda;" horiz-adv-x="725" 
d="M369 -10q-122 0 -190.5 52t-68.5 175v386q0 43 -22 54.5t-51 11.5h-22v45h306v-45h-21q-30 0 -51.5 -12t-21.5 -58v-389q0 -86 45 -121.5t117 -35.5q81 0 121 41.5t40 112.5v396q0 43 -21.5 54.5t-51.5 11.5h-21v45h254v-45h-21q-31 0 -52.5 -12t-21.5 -58v-394
q0 -101 -62 -158t-184 -57zM316 771v13q14 19 31 45t33 53t26 49h121v-10q-13 -18 -41.5 -46.5t-62 -57t-61.5 -46.5h-46z" />
    <glyph glyph-name="Ucircumflex" unicode="&#xdb;" horiz-adv-x="725" 
d="M369 -10q-122 0 -190.5 52t-68.5 175v386q0 43 -22 54.5t-51 11.5h-22v45h306v-45h-21q-30 0 -51.5 -12t-21.5 -58v-389q0 -86 45 -121.5t117 -35.5q81 0 121 41.5t40 112.5v396q0 43 -21.5 54.5t-51.5 11.5h-21v45h254v-45h-21q-31 0 -52.5 -12t-21.5 -58v-394
q0 -101 -62 -158t-184 -57zM228 771v13q16 19 36 45t38 53t29 49h106q11 -22 29 -49t38 -53t36 -45v-13h-48q-26 16 -56 41.5t-53 48.5q-23 -23 -52 -48.5t-56 -41.5h-47z" />
    <glyph glyph-name="Udieresis" unicode="&#xdc;" horiz-adv-x="725" 
d="M369 -10q-122 0 -190.5 52t-68.5 175v386q0 43 -22 54.5t-51 11.5h-22v45h306v-45h-21q-30 0 -51.5 -12t-21.5 -58v-389q0 -86 45 -121.5t117 -35.5q81 0 121 41.5t40 112.5v396q0 43 -21.5 54.5t-51.5 11.5h-21v45h254v-45h-21q-31 0 -52.5 -12t-21.5 -58v-394
q0 -101 -62 -158t-184 -57zM483 795q-23 0 -38 13t-15 45t15 45t38 13q22 0 37.5 -13t15.5 -45t-15.5 -45t-37.5 -13zM289 795q-23 0 -38 13t-15 45t15 45t38 13q22 0 37.5 -13t15.5 -45t-15.5 -45t-37.5 -13z" />
    <glyph glyph-name="Yacute" unicode="&#xdd;" horiz-adv-x="644" 
d="M160 0v45h30q31 0 53 10.5t22 54.5v176l-185 330q-16 28 -30 40.5t-41 12.5h-13v45h292v-45h-32q-28 0 -38 -10.5t-10 -25.5q0 -13 5.5 -27.5t11.5 -25.5l74 -138q17 -31 29 -59.5t20 -51.5q9 23 25 53.5t33 62.5l62 117q10 18 14 33.5t4 26.5q0 45 -62 45h-27v45h249
v-45h-14q-22 0 -39 -16t-42 -62l-169 -306v-171q0 -46 22 -57.5t53 -11.5h30v-45h-327zM282 771v13q14 19 31 45t33 53t26 49h121v-10q-13 -18 -41.5 -46.5t-62 -57t-61.5 -46.5h-46z" />
    <glyph glyph-name="Thorn" unicode="&#xde;" horiz-adv-x="613" 
d="M35 0v45h21q31 0 52.5 12t21.5 58v484q0 46 -21.5 58t-52.5 12h-21v45h313v-45h-28q-30 0 -52 -11.5t-22 -57.5v-26h77q130 -1 192 -53.5t62 -149.5q0 -59 -26.5 -109.5t-87.5 -80.5t-162 -30h-55v-37q1 -46 22.5 -57.5t51.5 -11.5h28v-45h-313zM246 201h45
q86 0 123.5 36t37.5 130q0 83 -33 119.5t-113 36.5h-60v-322z" />
    <glyph glyph-name="germandbls" unicode="&#xdf;" horiz-adv-x="663" 
d="M444 -10q-76 0 -120 28.5t-44 80.5q0 27 11 42t26 20.5t27 5.5q3 -54 26 -90t73 -36q35 0 57.5 21t22.5 63q0 34 -19 59.5t-79 53.5q-66 32 -96.5 69t-30.5 97q0 63 41.5 99t122.5 37q0 94 -29 135.5t-92 41.5q-58 0 -88 -36.5t-30 -102.5v-578h-205v45h22q30 0 51.5 12
t21.5 58v368h-81v53h81v24q0 76 30 121t81.5 64.5t116.5 19.5q85 0 135 -31.5t71 -92.5t22 -150h-68q-52 0 -79.5 -18.5t-27.5 -58.5q0 -32 23 -52.5t83 -48.5q71 -33 95.5 -75.5t24.5 -88.5q0 -79 -47 -119t-129 -40z" />
    <glyph glyph-name="agrave" unicode="&#xe0;" horiz-adv-x="573" 
d="M204 -10q-67 0 -111 39t-44 122q0 79 56 118t171 43l82 3v58q0 35 -5.5 62.5t-23.5 43t-55 15.5q-52 0 -68.5 -31t-16.5 -78q-49 0 -73.5 14.5t-24.5 49.5t25.5 56.5t67.5 31.5t94 10q95 0 142.5 -38.5t47.5 -133.5v-258q0 -42 14 -57t48 -15h3v-45h-149l-17 81h-9
q-21 -27 -41 -47.5t-46.5 -32t-66.5 -11.5zM236 55q56 0 89 37t33 99v79l-59 -3q-77 -3 -107 -33.5t-30 -87.5q0 -91 74 -91zM291 606q-28 18 -61.5 46.5t-62 57t-40.5 46.5v10h121q11 -22 26.5 -49t32 -53t31.5 -45v-13h-47z" />
    <glyph glyph-name="aacute" unicode="&#xe1;" horiz-adv-x="573" 
d="M204 -10q-67 0 -111 39t-44 122q0 79 56 118t171 43l82 3v58q0 35 -5.5 62.5t-23.5 43t-55 15.5q-52 0 -68.5 -31t-16.5 -78q-49 0 -73.5 14.5t-24.5 49.5t25.5 56.5t67.5 31.5t94 10q95 0 142.5 -38.5t47.5 -133.5v-258q0 -42 14 -57t48 -15h3v-45h-149l-17 81h-9
q-21 -27 -41 -47.5t-46.5 -32t-66.5 -11.5zM236 55q56 0 89 37t33 99v79l-59 -3q-77 -3 -107 -33.5t-30 -87.5q0 -91 74 -91zM229 606v13q14 19 31 45t33 53t26 49h121v-10q-13 -18 -41.5 -46.5t-62 -57t-61.5 -46.5h-46z" />
    <glyph glyph-name="acircumflex" unicode="&#xe2;" horiz-adv-x="573" 
d="M204 -10q-67 0 -111 39t-44 122q0 79 56 118t171 43l82 3v58q0 35 -5.5 62.5t-23.5 43t-55 15.5q-52 0 -68.5 -31t-16.5 -78q-49 0 -73.5 14.5t-24.5 49.5t25.5 56.5t67.5 31.5t94 10q95 0 142.5 -38.5t47.5 -133.5v-258q0 -42 14 -57t48 -15h3v-45h-149l-17 81h-9
q-21 -27 -41 -47.5t-46.5 -32t-66.5 -11.5zM236 55q56 0 89 37t33 99v79l-59 -3q-77 -3 -107 -33.5t-30 -87.5q0 -91 74 -91zM126 606v13q16 19 36 45t38 53t29 49h106q11 -22 29 -49t38 -53t36 -45v-13h-48q-26 16 -56 41.5t-53 48.5q-23 -23 -52 -48.5t-56 -41.5h-47z" />
    <glyph glyph-name="atilde" unicode="&#xe3;" horiz-adv-x="573" 
d="M204 -10q-67 0 -111 39t-44 122q0 79 56 118t171 43l82 3v58q0 35 -5.5 62.5t-23.5 43t-55 15.5q-52 0 -68.5 -31t-16.5 -78q-49 0 -73.5 14.5t-24.5 49.5t25.5 56.5t67.5 31.5t94 10q95 0 142.5 -38.5t47.5 -133.5v-258q0 -42 14 -57t48 -15h3v-45h-149l-17 81h-9
q-21 -27 -41 -47.5t-46.5 -32t-66.5 -11.5zM236 55q56 0 89 37t33 99v79l-59 -3q-77 -3 -107 -33.5t-30 -87.5q0 -91 74 -91zM358 606q-27 0 -49 9.5t-40.5 22t-35 22t-32.5 9.5q-28 0 -37 -16.5t-12 -36.5h-51q3 50 30.5 88t81.5 38q27 0 48.5 -9.5t40 -22t35 -22
t32.5 -9.5q27 0 36.5 16.5t12.5 36.5h50q-2 -33 -14.5 -61.5t-36.5 -46.5t-59 -18z" />
    <glyph glyph-name="adieresis" unicode="&#xe4;" horiz-adv-x="573" 
d="M204 -10q-67 0 -111 39t-44 122q0 79 56 118t171 43l82 3v58q0 35 -5.5 62.5t-23.5 43t-55 15.5q-52 0 -68.5 -31t-16.5 -78q-49 0 -73.5 14.5t-24.5 49.5t25.5 56.5t67.5 31.5t94 10q95 0 142.5 -38.5t47.5 -133.5v-258q0 -42 14 -57t48 -15h3v-45h-149l-17 81h-9
q-21 -27 -41 -47.5t-46.5 -32t-66.5 -11.5zM236 55q56 0 89 37t33 99v79l-59 -3q-77 -3 -107 -33.5t-30 -87.5q0 -91 74 -91zM375 630q-23 0 -38 13t-15 45t15 45t38 13q22 0 37.5 -13t15.5 -45t-15.5 -45t-37.5 -13zM181 630q-23 0 -38 13t-15 45t15 45t38 13
q22 0 37.5 -13t15.5 -45t-15.5 -45t-37.5 -13z" />
    <glyph glyph-name="aring" unicode="&#xe5;" horiz-adv-x="573" 
d="M204 -10q-67 0 -111 39t-44 122q0 79 56 118t171 43l82 3v58q0 35 -5.5 62.5t-23.5 43t-55 15.5q-52 0 -68.5 -31t-16.5 -78q-49 0 -73.5 14.5t-24.5 49.5t25.5 56.5t67.5 31.5t94 10q95 0 142.5 -38.5t47.5 -133.5v-258q0 -42 14 -57t48 -15h3v-45h-149l-17 81h-9
q-21 -27 -41 -47.5t-46.5 -32t-66.5 -11.5zM236 55q56 0 89 37t33 99v79l-59 -3q-77 -3 -107 -33.5t-30 -87.5q0 -91 74 -91zM286 596q-50 0 -85 28t-35 81t35 81t85 28t85 -28t35 -81t-35 -81t-85 -28zM286 647q26 0 45 13.5t19 44.5t-19 44.5t-45 13.5t-45 -13.5
t-19 -44.5t19 -44.5t45 -13.5z" />
    <glyph glyph-name="ae" unicode="&#xe6;" horiz-adv-x="850" 
d="M204 -10q-67 0 -111 39t-44 122q0 79 56 118t171 43l82 3v58q0 35 -5.5 62.5t-23.5 43t-55 15.5q-52 0 -68.5 -31t-16.5 -78q-49 0 -73.5 14.5t-24.5 49.5t25.5 56.5t67.5 31.5t94 10q56 0 95 -14.5t62 -45.5q57 60 152 60q101 0 158.5 -60.5t57.5 -179.5v-47h-332
q2 -107 38.5 -155.5t110.5 -48.5q46 0 82.5 21t55.5 52q21 -9 21 -38q0 -22 -19.5 -45.5t-59 -39.5t-100.5 -16q-147 0 -205 109q-23 -47 -71.5 -78t-119.5 -31zM473 317h214q0 79 -22.5 126t-77.5 47q-52 0 -80.5 -44.5t-33.5 -128.5zM236 55q56 0 89 37t33 99v79l-59 -3
q-77 -3 -107 -33.5t-30 -87.5q0 -91 74 -91z" />
    <glyph glyph-name="ccedilla" unicode="&#xe7;" horiz-adv-x="502" 
d="M286 -10q-68 0 -121 27.5t-82.5 88t-29.5 159.5q0 107 30 169t82 87.5t117 25.5q48 0 89 -12t66 -35t25 -56q0 -34 -23 -51.5t-77 -17.5q0 49 -16 84t-63 35q-36 0 -62.5 -20t-40.5 -70t-14 -138q0 -105 33 -156.5t109 -51.5q48 0 83.5 20.5t52.5 52.5q19 -14 19 -41
q0 -24 -19.5 -47t-58.5 -38t-99 -15zM257 -240q-16 0 -39 3t-41 8v54q38 -8 68 -8q29 0 45 13.5t16 39.5q0 29 -21.5 42.5t-53.5 15.5l21 81h50l-10 -43q49 -4 74.5 -28t25.5 -64q0 -53 -35.5 -83.5t-99.5 -30.5z" />
    <glyph glyph-name="egrave" unicode="&#xe8;" horiz-adv-x="545" 
d="M292 -10q-114 0 -176.5 72t-62.5 202q0 141 59.5 212t169.5 71q100 0 157.5 -60.5t57.5 -179.5v-47h-331q2 -107 38.5 -155.5t105.5 -48.5q52 0 88.5 22t54.5 51q8 -4 14.5 -14t6.5 -24q0 -22 -19.5 -45.5t-60 -39.5t-102.5 -16zM168 317h214q0 79 -23 126t-78 47
q-52 0 -80.5 -44.5t-32.5 -128.5zM300 606q-28 18 -61.5 46.5t-62 57t-40.5 46.5v10h121q11 -22 26.5 -49t32 -53t31.5 -45v-13h-47z" />
    <glyph glyph-name="eacute" unicode="&#xe9;" horiz-adv-x="545" 
d="M292 -10q-114 0 -176.5 72t-62.5 202q0 141 59.5 212t169.5 71q100 0 157.5 -60.5t57.5 -179.5v-47h-331q2 -107 38.5 -155.5t105.5 -48.5q52 0 88.5 22t54.5 51q8 -4 14.5 -14t6.5 -24q0 -22 -19.5 -45.5t-60 -39.5t-102.5 -16zM168 317h214q0 79 -23 126t-78 47
q-52 0 -80.5 -44.5t-32.5 -128.5zM231 606v13q14 19 31 45t33 53t26 49h121v-10q-13 -18 -41.5 -46.5t-62 -57t-61.5 -46.5h-46z" />
    <glyph glyph-name="ecircumflex" unicode="&#xea;" horiz-adv-x="545" 
d="M292 -10q-114 0 -176.5 72t-62.5 202q0 141 59.5 212t169.5 71q100 0 157.5 -60.5t57.5 -179.5v-47h-331q2 -107 38.5 -155.5t105.5 -48.5q52 0 88.5 22t54.5 51q8 -4 14.5 -14t6.5 -24q0 -22 -19.5 -45.5t-60 -39.5t-102.5 -16zM168 317h214q0 79 -23 126t-78 47
q-52 0 -80.5 -44.5t-32.5 -128.5zM124 606v13q16 19 36 45t38 53t29 49h106q11 -22 29 -49t38 -53t36 -45v-13h-48q-26 16 -56 41.5t-53 48.5q-23 -23 -52 -48.5t-56 -41.5h-47z" />
    <glyph glyph-name="edieresis" unicode="&#xeb;" horiz-adv-x="545" 
d="M292 -10q-114 0 -176.5 72t-62.5 202q0 141 59.5 212t169.5 71q100 0 157.5 -60.5t57.5 -179.5v-47h-331q2 -107 38.5 -155.5t105.5 -48.5q52 0 88.5 22t54.5 51q8 -4 14.5 -14t6.5 -24q0 -22 -19.5 -45.5t-60 -39.5t-102.5 -16zM168 317h214q0 79 -23 126t-78 47
q-52 0 -80.5 -44.5t-32.5 -128.5zM374 630q-23 0 -38 13t-15 45t15 45t38 13q22 0 37.5 -13t15.5 -45t-15.5 -45t-37.5 -13zM180 630q-23 0 -38 13t-15 45t15 45t38 13q22 0 37.5 -13t15.5 -45t-15.5 -45t-37.5 -13z" />
    <glyph glyph-name="igrave" unicode="&#xec;" horiz-adv-x="329" 
d="M21 0v45h13q20 0 38 4.5t29.5 18.5t11.5 43v314q0 29 -11.5 43t-29.5 18.5t-38 4.5h-5v45h194v-421q0 -31 11 -45.5t29.5 -19.5t38.5 -5h13v-45h-294zM175 606q-28 18 -61.5 46.5t-62 57t-40.5 46.5v10h121q11 -22 26.5 -49t32 -53t31.5 -45v-13h-47z" />
    <glyph glyph-name="iacute" unicode="&#xed;" horiz-adv-x="329" 
d="M21 0v45h13q20 0 38 4.5t29.5 18.5t11.5 43v314q0 29 -11.5 43t-29.5 18.5t-38 4.5h-5v45h194v-421q0 -31 11 -45.5t29.5 -19.5t38.5 -5h13v-45h-294zM112 606v13q14 19 31 45t33 53t26 49h121v-10q-13 -18 -41.5 -46.5t-62 -57t-61.5 -46.5h-46z" />
    <glyph glyph-name="icircumflex" unicode="&#xee;" horiz-adv-x="329" 
d="M21 0v45h13q20 0 38 4.5t29.5 18.5t11.5 43v314q0 29 -11.5 43t-29.5 18.5t-38 4.5h-5v45h194v-421q0 -31 11 -45.5t29.5 -19.5t38.5 -5h13v-45h-294zM3 606v13q16 19 36 45t38 53t29 49h106q11 -22 29 -49t38 -53t36 -45v-13h-48q-26 16 -56 41.5t-53 48.5
q-23 -23 -52 -48.5t-56 -41.5h-47z" />
    <glyph glyph-name="idieresis" unicode="&#xef;" horiz-adv-x="329" 
d="M21 0v45h13q20 0 38 4.5t29.5 18.5t11.5 43v314q0 29 -11.5 43t-29.5 18.5t-38 4.5h-5v45h194v-421q0 -31 11 -45.5t29.5 -19.5t38.5 -5h13v-45h-294zM253 630q-23 0 -38 13t-15 45t15 45t38 13q22 0 37.5 -13t15.5 -45t-15.5 -45t-37.5 -13zM59 630q-23 0 -38 13t-15 45
t15 45t38 13q22 0 37.5 -13t15.5 -45t-15.5 -45t-37.5 -13z" />
    <glyph glyph-name="eth" unicode="&#xf0;" horiz-adv-x="587" 
d="M292 -10q-111 0 -175 64.5t-64 196.5q0 131 60 195t176 64q33 0 62 -7.5t52 -19.5q-11 33 -35 68.5t-62 68.5l-129 -72v59l85 47q-51 34 -114 51v56q43 -9 91.5 -27t87.5 -44l128 72v-59l-83 -47q72 -58 117 -151.5t45 -213.5q0 -152 -62 -226.5t-180 -74.5zM294 45
q70 0 98.5 52t28.5 153q0 102 -28.5 153t-99.5 51q-70 0 -98.5 -50.5t-28.5 -153.5q0 -101 29 -153t99 -52z" />
    <glyph glyph-name="ntilde" unicode="&#xf1;" horiz-adv-x="651" 
d="M26 0v45h6q34 0 57.5 12.5t23.5 58.5v308q0 44 -22.5 55.5t-55.5 11.5h-4v45h175l13 -78h5q31 56 69 72.5t86 16.5q79 0 123 -46.5t44 -148.5v-235q0 -47 19.5 -59.5t53.5 -12.5h5v-45h-188v341q0 65 -22.5 100.5t-78.5 35.5q-42 0 -66.5 -22.5t-35 -58.5t-10.5 -79v-206
q0 -43 22.5 -54.5t55.5 -11.5h4v-45h-279zM400 606q-27 0 -49 9.5t-40.5 22t-35 22t-32.5 9.5q-28 0 -37 -16.5t-12 -36.5h-51q3 50 30.5 88t81.5 38q27 0 48.5 -9.5t40 -22t35 -22t32.5 -9.5q27 0 36.5 16.5t12.5 36.5h50q-2 -33 -14.5 -61.5t-36.5 -46.5t-59 -18z" />
    <glyph glyph-name="ograve" unicode="&#xf2;" horiz-adv-x="587" 
d="M292 -10q-111 0 -175 69t-64 210t61 209.5t181 68.5q111 0 175 -68.5t64 -209.5t-61.5 -210t-180.5 -69zM294 45q70 0 98.5 57t28.5 167q0 111 -28.5 166.5t-99.5 55.5t-99 -55.5t-28 -166.5q0 -110 29 -167t99 -57zM301 606q-28 18 -61.5 46.5t-62 57t-40.5 46.5v10h121
q11 -22 26.5 -49t32 -53t31.5 -45v-13h-47z" />
    <glyph glyph-name="oacute" unicode="&#xf3;" horiz-adv-x="587" 
d="M292 -10q-111 0 -175 69t-64 210t61 209.5t181 68.5q111 0 175 -68.5t64 -209.5t-61.5 -210t-180.5 -69zM294 45q70 0 98.5 57t28.5 167q0 111 -28.5 166.5t-99.5 55.5t-99 -55.5t-28 -166.5q0 -110 29 -167t99 -57zM249 606v13q14 19 31 45t33 53t26 49h121v-10
q-13 -18 -41.5 -46.5t-62 -57t-61.5 -46.5h-46z" />
    <glyph glyph-name="ocircumflex" unicode="&#xf4;" horiz-adv-x="587" 
d="M292 -10q-111 0 -175 69t-64 210t61 209.5t181 68.5q111 0 175 -68.5t64 -209.5t-61.5 -210t-180.5 -69zM294 45q70 0 98.5 57t28.5 167q0 111 -28.5 166.5t-99.5 55.5t-99 -55.5t-28 -166.5q0 -110 29 -167t99 -57zM135 606v13q16 19 36 45t38 53t29 49h106
q11 -22 29 -49t38 -53t36 -45v-13h-48q-26 16 -56 41.5t-53 48.5q-23 -23 -52 -48.5t-56 -41.5h-47z" />
    <glyph glyph-name="otilde" unicode="&#xf5;" horiz-adv-x="587" 
d="M292 -10q-111 0 -175 69t-64 210t61 209.5t181 68.5q111 0 175 -68.5t64 -209.5t-61.5 -210t-180.5 -69zM294 45q70 0 98.5 57t28.5 167q0 111 -28.5 166.5t-99.5 55.5t-99 -55.5t-28 -166.5q0 -110 29 -167t99 -57zM364 606q-27 0 -49 9.5t-40.5 22t-35 22t-32.5 9.5
q-28 0 -37 -16.5t-12 -36.5h-51q3 50 30.5 88t81.5 38q27 0 48.5 -9.5t40 -22t35 -22t32.5 -9.5q27 0 36.5 16.5t12.5 36.5h50q-2 -33 -14.5 -61.5t-36.5 -46.5t-59 -18z" />
    <glyph glyph-name="odieresis" unicode="&#xf6;" horiz-adv-x="587" 
d="M292 -10q-111 0 -175 69t-64 210t61 209.5t181 68.5q111 0 175 -68.5t64 -209.5t-61.5 -210t-180.5 -69zM294 45q70 0 98.5 57t28.5 167q0 111 -28.5 166.5t-99.5 55.5t-99 -55.5t-28 -166.5q0 -110 29 -167t99 -57zM387 630q-23 0 -38 13t-15 45t15 45t38 13
q22 0 37.5 -13t15.5 -45t-15.5 -45t-37.5 -13zM193 630q-23 0 -38 13t-15 45t15 45t38 13q22 0 37.5 -13t15.5 -45t-15.5 -45t-37.5 -13z" />
    <glyph glyph-name="divide" unicode="&#xf7;" horiz-adv-x="559" 
d="M280 490q-22 0 -37 13t-15 44q0 32 15 44.5t37 12.5t37 -12.5t15 -44.5q0 -31 -15 -44t-37 -13zM65 326v63h429v-63h-429zM280 111q-22 0 -37 12.5t-15 44.5t15 44.5t37 12.5t37 -12.5t15 -44.5t-15 -44.5t-37 -12.5z" />
    <glyph glyph-name="oslash" unicode="&#xf8;" horiz-adv-x="587" 
d="M75 -40l53 86q-75 70 -75 223q0 141 61 209.5t181 68.5q72 0 124 -29l36 58h62l-55 -90q34 -34 53 -88t19 -129q0 -141 -61.5 -210t-180.5 -69q-34 0 -64 6t-55 20l-35 -56h-63zM182 134l198 319q-32 38 -87 38q-71 0 -99 -55.5t-28 -166.5q0 -41 4 -75t12 -60zM294 45
q70 0 98.5 57t28.5 167q0 77 -15 127l-196 -318q30 -33 84 -33z" />
    <glyph glyph-name="ugrave" unicode="&#xf9;" horiz-adv-x="644" 
d="M269 -10q-79 0 -121.5 47t-42.5 150v235q0 44 -22 56.5t-56 12.5h-3v45h191v-338q0 -65 20.5 -101.5t76.5 -36.5q61 0 88.5 43.5t27.5 115.5v202q0 31 -11 46t-29 19.5t-39 4.5h-3v45h192v-425q0 -44 23 -55t55 -11h4v-45h-170l-15 78h-5q-31 -55 -72 -71.5t-89 -16.5z
M309 606q-28 18 -61.5 46.5t-62 57t-40.5 46.5v10h121q11 -22 26.5 -49t32 -53t31.5 -45v-13h-47z" />
    <glyph glyph-name="uacute" unicode="&#xfa;" horiz-adv-x="644" 
d="M269 -10q-79 0 -121.5 47t-42.5 150v235q0 44 -22 56.5t-56 12.5h-3v45h191v-338q0 -65 20.5 -101.5t76.5 -36.5q61 0 88.5 43.5t27.5 115.5v202q0 31 -11 46t-29 19.5t-39 4.5h-3v45h192v-425q0 -44 23 -55t55 -11h4v-45h-170l-15 78h-5q-31 -55 -72 -71.5t-89 -16.5z
M262 606v13q14 19 31 45t33 53t26 49h121v-10q-13 -18 -41.5 -46.5t-62 -57t-61.5 -46.5h-46z" />
    <glyph glyph-name="ucircumflex" unicode="&#xfb;" horiz-adv-x="644" 
d="M269 -10q-79 0 -121.5 47t-42.5 150v235q0 44 -22 56.5t-56 12.5h-3v45h191v-338q0 -65 20.5 -101.5t76.5 -36.5q61 0 88.5 43.5t27.5 115.5v202q0 31 -11 46t-29 19.5t-39 4.5h-3v45h192v-425q0 -44 23 -55t55 -11h4v-45h-170l-15 78h-5q-31 -55 -72 -71.5t-89 -16.5z
M161 606v13q16 19 36 45t38 53t29 49h106q11 -22 29 -49t38 -53t36 -45v-13h-48q-26 16 -56 41.5t-53 48.5q-23 -23 -52 -48.5t-56 -41.5h-47z" />
    <glyph glyph-name="udieresis" unicode="&#xfc;" horiz-adv-x="644" 
d="M269 -10q-79 0 -121.5 47t-42.5 150v235q0 44 -22 56.5t-56 12.5h-3v45h191v-338q0 -65 20.5 -101.5t76.5 -36.5q61 0 88.5 43.5t27.5 115.5v202q0 31 -11 46t-29 19.5t-39 4.5h-3v45h192v-425q0 -44 23 -55t55 -11h4v-45h-170l-15 78h-5q-31 -55 -72 -71.5t-89 -16.5z
M415 630q-23 0 -38 13t-15 45t15 45t38 13q22 0 37.5 -13t15.5 -45t-15.5 -45t-37.5 -13zM221 630q-23 0 -38 13t-15 45t15 45t38 13q22 0 37.5 -13t15.5 -45t-15.5 -45t-37.5 -13z" />
    <glyph glyph-name="yacute" unicode="&#xfd;" horiz-adv-x="569" 
d="M35 -240v50q68 0 111.5 25t69.5 68t43 99l-184 437q-13 30 -27.5 40t-41.5 10h-3v47h252v-45h-3q-60 0 -60 -45q0 -17 9 -38l72 -179q14 -35 26 -73t16 -61q5 26 16 56t19 54l67 195q5 11 7 23.5t2 20.5q0 47 -67 47h-3v45h213v-45h-3q-29 0 -44.5 -15.5t-31.5 -61.5
l-152 -417q-26 -73 -50 -119.5t-54 -72t-74.5 -35.5t-113.5 -10h-11zM240 606v13q14 19 31 45t33 53t26 49h121v-10q-13 -18 -41.5 -46.5t-62 -57t-61.5 -46.5h-46z" />
    <glyph glyph-name="thorn" unicode="&#xfe;" horiz-adv-x="623" 
d="M17 -240v45h9q20 0 38 5t29.5 19.5t11.5 45.5v771q0 45 -23.5 57t-54.5 12h-8v45h196v-184q0 -22 -1.5 -51.5t-3.5 -52.5l-2 -23h4q22 44 58.5 70.5t94.5 26.5q100 0 152.5 -66.5t52.5 -211.5t-52.5 -212t-150.5 -67q-58 0 -94.5 24t-58.5 62h-4l1 -13l1 -34l2 -39l1 -29
v-89q0 -29 11.5 -43t29.5 -18.5t38 -4.5h8v-45h-285zM342 56q62 0 88.5 54.5t26.5 158.5t-26.5 157t-88.5 53q-74 0 -100.5 -52.5t-26.5 -158.5q0 -104 26.5 -158t100.5 -54z" />
    <glyph glyph-name="ydieresis" unicode="&#xff;" horiz-adv-x="569" 
d="M35 -240v50q68 0 111.5 25t69.5 68t43 99l-184 437q-13 30 -27.5 40t-41.5 10h-3v47h252v-45h-3q-60 0 -60 -45q0 -17 9 -38l72 -179q14 -35 26 -73t16 -61q5 26 16 56t19 54l67 195q5 11 7 23.5t2 20.5q0 47 -67 47h-3v45h213v-45h-3q-29 0 -44.5 -15.5t-31.5 -61.5
l-152 -417q-26 -73 -50 -119.5t-54 -72t-74.5 -35.5t-113.5 -10h-11zM396 630q-23 0 -38 13t-15 45t15 45t38 13q22 0 37.5 -13t15.5 -45t-15.5 -45t-37.5 -13zM202 630q-23 0 -38 13t-15 45t15 45t38 13q22 0 37.5 -13t15.5 -45t-15.5 -45t-37.5 -13z" />
    <glyph glyph-name="Amacron" unicode="&#x100;" horiz-adv-x="718" 
d="M1 0v45h17q28 0 44 15t33 62l221 592h94l221 -611q13 -35 29 -46.5t44 -11.5h14v-45h-290v45h27q26 0 41 11t15 35q0 9 -2.5 18t-5.5 20l-39 109h-258l-35 -100q-10 -27 -10 -47q0 -46 60 -46h29v-45h-249zM226 291h219l-59 172q-14 41 -27 81t-21 76q-8 -35 -19 -70.5
t-28 -78.5zM212 778v65h290v-65h-290z" />
    <glyph glyph-name="amacron" unicode="&#x101;" horiz-adv-x="573" 
d="M204 -10q-67 0 -111 39t-44 122q0 79 56 118t171 43l82 3v58q0 35 -5.5 62.5t-23.5 43t-55 15.5q-52 0 -68.5 -31t-16.5 -78q-49 0 -73.5 14.5t-24.5 49.5t25.5 56.5t67.5 31.5t94 10q95 0 142.5 -38.5t47.5 -133.5v-258q0 -42 14 -57t48 -15h3v-45h-149l-17 81h-9
q-21 -27 -41 -47.5t-46.5 -32t-66.5 -11.5zM236 55q56 0 89 37t33 99v79l-59 -3q-77 -3 -107 -33.5t-30 -87.5q0 -91 74 -91zM130 613v65h290v-65h-290z" />
    <glyph glyph-name="Abreve" unicode="&#x102;" horiz-adv-x="718" 
d="M1 0v45h17q28 0 44 15t33 62l221 592h94l221 -611q13 -35 29 -46.5t44 -11.5h14v-45h-290v45h27q26 0 41 11t15 35q0 9 -2.5 18t-5.5 20l-39 109h-258l-35 -100q-10 -27 -10 -47q0 -46 60 -46h29v-45h-249zM226 291h219l-59 172q-14 41 -27 81t-21 76q-8 -35 -19 -70.5
t-28 -78.5zM359 771q-49 0 -81 20t-48 53t-17 70h52q8 -36 32.5 -52t61.5 -16t61.5 16t32.5 52h51q-1 -37 -17 -70t-48 -53t-80 -20z" />
    <glyph glyph-name="abreve" unicode="&#x103;" horiz-adv-x="573" 
d="M204 -10q-67 0 -111 39t-44 122q0 79 56 118t171 43l82 3v58q0 35 -5.5 62.5t-23.5 43t-55 15.5q-52 0 -68.5 -31t-16.5 -78q-49 0 -73.5 14.5t-24.5 49.5t25.5 56.5t67.5 31.5t94 10q95 0 142.5 -38.5t47.5 -133.5v-258q0 -42 14 -57t48 -15h3v-45h-149l-17 81h-9
q-21 -27 -41 -47.5t-46.5 -32t-66.5 -11.5zM236 55q56 0 89 37t33 99v79l-59 -3q-77 -3 -107 -33.5t-30 -87.5q0 -91 74 -91zM278 606q-49 0 -81 20t-48 53t-17 70h52q8 -36 32.5 -52t61.5 -16t61.5 16t32.5 52h51q-1 -37 -17 -70t-48 -53t-80 -20z" />
    <glyph glyph-name="Aogonek" unicode="&#x104;" horiz-adv-x="718" 
d="M1 0v45h17q28 0 44 15t33 62l221 592h94l221 -611q13 -35 29 -46.5t44 -11.5h14v-45h-290v45h27q26 0 41 11t15 35q0 9 -2.5 18t-5.5 20l-39 109h-258l-35 -100q-10 -27 -10 -47q0 -46 60 -46h29v-45h-249zM226 291h219l-59 172q-14 41 -27 81t-21 76q-8 -35 -19 -70.5
t-28 -78.5zM612 -240q-67 0 -104 26.5t-37 83.5q0 31 17 58t44 46t57 26h63q-21 -6 -42.5 -21.5t-36 -39t-14.5 -54.5t19.5 -45.5t49.5 -14.5q13 0 29 2t34 6v-57q-16 -8 -39.5 -12t-39.5 -4z" />
    <glyph glyph-name="aogonek" unicode="&#x105;" horiz-adv-x="573" 
d="M204 -10q-67 0 -111 39t-44 122q0 79 56 118t171 43l82 3v58q0 35 -5.5 62.5t-23.5 43t-55 15.5q-52 0 -68.5 -31t-16.5 -78q-49 0 -73.5 14.5t-24.5 49.5t25.5 56.5t67.5 31.5t94 10q95 0 142.5 -38.5t47.5 -133.5v-258q0 -42 14 -57t48 -15h3v-45h-149l-17 81h-9
q-21 -27 -41 -47.5t-46.5 -32t-66.5 -11.5zM236 55q56 0 89 37t33 99v79l-59 -3q-77 -3 -107 -33.5t-30 -87.5q0 -91 74 -91zM406 -240q-67 0 -104 26.5t-37 83.5q0 31 17 58t44 46t57 26h63q-21 -6 -42.5 -21.5t-36 -39t-14.5 -54.5t19.5 -45.5t49.5 -14.5q13 0 29 2t34 6
v-57q-16 -8 -39.5 -12t-39.5 -4z" />
    <glyph glyph-name="Cacute" unicode="&#x106;" horiz-adv-x="629" 
d="M372 -10q-104 0 -174.5 46t-106 128.5t-35.5 193.5q0 108 37 190.5t110 129t181 46.5q106 0 157.5 -32.5t51.5 -80.5q0 -34 -26.5 -54.5t-70.5 -20.5q0 32 -11 62t-36 50t-68 20q-109 0 -153.5 -81t-44.5 -229q0 -92 21 -158.5t66.5 -103t119.5 -36.5q73 0 114.5 27
t67.5 61q8 -6 13 -16t5 -24q0 -26 -22.5 -53.5t-70.5 -46t-125 -18.5zM323 771v13q14 19 31 45t33 53t26 49h121v-10q-13 -18 -41.5 -46.5t-62 -57t-61.5 -46.5h-46z" />
    <glyph glyph-name="cacute" unicode="&#x107;" horiz-adv-x="502" 
d="M286 -10q-68 0 -121 27.5t-82.5 88t-29.5 159.5q0 107 30 169t82 87.5t117 25.5q48 0 89 -12t66 -35t25 -56q0 -34 -23 -51.5t-77 -17.5q0 49 -16 84t-63 35q-36 0 -62.5 -20t-40.5 -70t-14 -138q0 -105 33 -156.5t109 -51.5q48 0 83.5 20.5t52.5 52.5q19 -14 19 -41
q0 -24 -19.5 -47t-58.5 -38t-99 -15zM225 606v13q14 19 31 45t33 53t26 49h121v-10q-13 -18 -41.5 -46.5t-62 -57t-61.5 -46.5h-46z" />
    <glyph glyph-name="Ccircumflex" unicode="&#x108;" horiz-adv-x="629" 
d="M372 -10q-104 0 -174.5 46t-106 128.5t-35.5 193.5q0 108 37 190.5t110 129t181 46.5q106 0 157.5 -32.5t51.5 -80.5q0 -34 -26.5 -54.5t-70.5 -20.5q0 32 -11 62t-36 50t-68 20q-109 0 -153.5 -81t-44.5 -229q0 -92 21 -158.5t66.5 -103t119.5 -36.5q73 0 114.5 27
t67.5 61q8 -6 13 -16t5 -24q0 -26 -22.5 -53.5t-70.5 -46t-125 -18.5zM218 771v13q16 19 36 45t38 53t29 49h106q11 -22 29 -49t38 -53t36 -45v-13h-48q-26 16 -56 41.5t-53 48.5q-23 -23 -52 -48.5t-56 -41.5h-47z" />
    <glyph glyph-name="ccircumflex" unicode="&#x109;" horiz-adv-x="502" 
d="M286 -10q-68 0 -121 27.5t-82.5 88t-29.5 159.5q0 107 30 169t82 87.5t117 25.5q48 0 89 -12t66 -35t25 -56q0 -34 -23 -51.5t-77 -17.5q0 49 -16 84t-63 35q-36 0 -62.5 -20t-40.5 -70t-14 -138q0 -105 33 -156.5t109 -51.5q48 0 83.5 20.5t52.5 52.5q19 -14 19 -41
q0 -24 -19.5 -47t-58.5 -38t-99 -15zM128 606v13q16 19 36 45t38 53t29 49h106q11 -22 29 -49t38 -53t36 -45v-13h-48q-26 16 -56 41.5t-53 48.5q-23 -23 -52 -48.5t-56 -41.5h-47z" />
    <glyph glyph-name="Cdot" unicode="&#x10a;" horiz-adv-x="629" 
d="M372 -10q-104 0 -174.5 46t-106 128.5t-35.5 193.5q0 108 37 190.5t110 129t181 46.5q106 0 157.5 -32.5t51.5 -80.5q0 -34 -26.5 -54.5t-70.5 -20.5q0 32 -11 62t-36 50t-68 20q-109 0 -153.5 -81t-44.5 -229q0 -92 21 -158.5t66.5 -103t119.5 -36.5q73 0 114.5 27
t67.5 61q8 -6 13 -16t5 -24q0 -26 -22.5 -53.5t-70.5 -46t-125 -18.5zM379 798q-28 0 -46.5 15t-18.5 50q0 36 18.5 50.5t46.5 14.5q26 0 45.5 -14.5t19.5 -50.5q0 -35 -19.5 -50t-45.5 -15z" />
    <glyph glyph-name="cdot" unicode="&#x10b;" horiz-adv-x="502" 
d="M286 -10q-68 0 -121 27.5t-82.5 88t-29.5 159.5q0 107 30 169t82 87.5t117 25.5q48 0 89 -12t66 -35t25 -56q0 -34 -23 -51.5t-77 -17.5q0 49 -16 84t-63 35q-36 0 -62.5 -20t-40.5 -70t-14 -138q0 -105 33 -156.5t109 -51.5q48 0 83.5 20.5t52.5 52.5q19 -14 19 -41
q0 -24 -19.5 -47t-58.5 -38t-99 -15zM285 633q-28 0 -46.5 15t-18.5 50q0 36 18.5 50.5t46.5 14.5q26 0 45.5 -14.5t19.5 -50.5q0 -35 -19.5 -50t-45.5 -15z" />
    <glyph glyph-name="Ccaron" unicode="&#x10c;" horiz-adv-x="629" 
d="M372 -10q-104 0 -174.5 46t-106 128.5t-35.5 193.5q0 108 37 190.5t110 129t181 46.5q106 0 157.5 -32.5t51.5 -80.5q0 -34 -26.5 -54.5t-70.5 -20.5q0 32 -11 62t-36 50t-68 20q-109 0 -153.5 -81t-44.5 -229q0 -92 21 -158.5t66.5 -103t119.5 -36.5q73 0 114.5 27
t67.5 61q8 -6 13 -16t5 -24q0 -26 -22.5 -53.5t-70.5 -46t-125 -18.5zM313 771q-11 22 -29 49t-38 53t-36 45v13h47q27 -17 56 -42.5t52 -48.5q23 23 53 48.5t56 42.5h48v-13q-16 -19 -36 -45t-38 -53t-29 -49h-106z" />
    <glyph glyph-name="ccaron" unicode="&#x10d;" horiz-adv-x="502" 
d="M286 -10q-68 0 -121 27.5t-82.5 88t-29.5 159.5q0 107 30 169t82 87.5t117 25.5q48 0 89 -12t66 -35t25 -56q0 -34 -23 -51.5t-77 -17.5q0 49 -16 84t-63 35q-36 0 -62.5 -20t-40.5 -70t-14 -138q0 -105 33 -156.5t109 -51.5q48 0 83.5 20.5t52.5 52.5q19 -14 19 -41
q0 -24 -19.5 -47t-58.5 -38t-99 -15zM230 606q-11 22 -29 49t-38 53t-36 45v13h47q27 -17 56 -42.5t52 -48.5q23 23 53 48.5t56 42.5h48v-13q-16 -19 -36 -45t-38 -53t-29 -49h-106z" />
    <glyph glyph-name="Dcaron" unicode="&#x10e;" horiz-adv-x="738" 
d="M35 0v45h21q31 0 52.5 12t21.5 58v488q0 43 -22 54.5t-52 11.5h-21v45h313q158 0 246 -91.5t88 -261.5q0 -109 -37.5 -190.5t-112 -126t-184.5 -44.5h-313zM246 54h79q115 0 172.5 80t57.5 227t-57.5 223.5t-171.5 76.5h-80v-607zM288 771q-11 22 -29 49t-38 53t-36 45
v13h47q27 -17 56 -42.5t52 -48.5q23 23 53 48.5t56 42.5h48v-13q-16 -19 -36 -45t-38 -53t-29 -49h-106z" />
    <glyph glyph-name="dcaron" unicode="&#x10f;" horiz-adv-x="624" 
d="M257 -10q-99 0 -151.5 66.5t-52.5 210.5q0 145 52.5 212.5t150.5 67.5q57 0 93.5 -24.5t58.5 -61.5h6q-3 25 -4.5 57t-1.5 56v75q0 43 -24.5 54.5t-57.5 11.5h-8v45h200v-646q0 -45 24.5 -57t57.5 -12h7v-45h-176l-16 87h-5q-22 -44 -58 -70.5t-95 -26.5zM281 57
q73 0 100 52t27 159q0 103 -27 157.5t-101 54.5q-62 0 -88.5 -55t-26.5 -158q0 -106 27 -158t89 -52zM572 600v13q9 32 18 72t15 75h95v-10q-9 -21 -24 -48t-31.5 -54t-31.5 -48h-41z" />
    <glyph glyph-name="Dcroat" unicode="&#x110;" horiz-adv-x="738" 
d="M35 0v45h21q31 0 52.5 12t21.5 58v232h-92v53h92v203q0 43 -22 54.5t-52 11.5h-21v45h313q158 0 246 -91.5t88 -261.5q0 -109 -37.5 -190.5t-112 -126t-184.5 -44.5h-313zM246 54h79q115 0 172.5 80t57.5 227t-57.5 223.5t-171.5 76.5h-80v-261h158v-53h-158v-293z" />
    <glyph glyph-name="dcroat" unicode="&#x111;" horiz-adv-x="624" 
d="M257 -10q-99 0 -151.5 63.5t-52.5 202.5t52.5 203.5t150.5 64.5q57 0 93.5 -24t58.5 -62h6l-1 14l-2 34l-2 40l-1 30v33h-167v49h167v11q0 43 -24.5 54.5t-57.5 11.5h-8v45h200v-122h89v-49h-89v-475q0 -45 24.5 -57t57.5 -12h7v-45h-176l-16 87h-5q-22 -44 -58 -70.5
t-95 -26.5zM281 57q73 0 100 49.5t27 149.5q0 98 -27 149.5t-101 51.5q-62 0 -88.5 -52t-26.5 -150q0 -99 27 -148.5t89 -49.5z" />
    <glyph glyph-name="Emacron" unicode="&#x112;" horiz-adv-x="631" 
d="M35 0v45h21q30 0 52 11t22 54v489q0 46 -21.5 58t-52.5 12h-21v45h518l5 -177h-57l-5 44q-4 34 -22 57t-59 23h-168v-262h240v-52h-240v-294h195q42 0 61.5 23.5t24.5 56.5l7 44h57l-7 -177h-550zM176 778v65h290v-65h-290z" />
    <glyph glyph-name="emacron" unicode="&#x113;" horiz-adv-x="545" 
d="M292 -10q-114 0 -176.5 72t-62.5 202q0 141 59.5 212t169.5 71q100 0 157.5 -60.5t57.5 -179.5v-47h-331q2 -107 38.5 -155.5t105.5 -48.5q52 0 88.5 22t54.5 51q8 -4 14.5 -14t6.5 -24q0 -22 -19.5 -45.5t-60 -39.5t-102.5 -16zM168 317h214q0 79 -23 126t-78 47
q-52 0 -80.5 -44.5t-32.5 -128.5zM136 613v65h290v-65h-290z" />
    <glyph glyph-name="Ebreve" unicode="&#x114;" horiz-adv-x="631" 
d="M35 0v45h21q30 0 52 11t22 54v489q0 46 -21.5 58t-52.5 12h-21v45h518l5 -177h-57l-5 44q-4 34 -22 57t-59 23h-168v-262h240v-52h-240v-294h195q42 0 61.5 23.5t24.5 56.5l7 44h57l-7 -177h-550zM319 771q-49 0 -81 20t-48 53t-17 70h52q8 -36 32.5 -52t61.5 -16
t61.5 16t32.5 52h51q-1 -37 -17 -70t-48 -53t-80 -20z" />
    <glyph glyph-name="ebreve" unicode="&#x115;" horiz-adv-x="545" 
d="M292 -10q-114 0 -176.5 72t-62.5 202q0 141 59.5 212t169.5 71q100 0 157.5 -60.5t57.5 -179.5v-47h-331q2 -107 38.5 -155.5t105.5 -48.5q52 0 88.5 22t54.5 51q8 -4 14.5 -14t6.5 -24q0 -22 -19.5 -45.5t-60 -39.5t-102.5 -16zM168 317h214q0 79 -23 126t-78 47
q-52 0 -80.5 -44.5t-32.5 -128.5zM282 606q-49 0 -81 20t-48 53t-17 70h52q8 -36 32.5 -52t61.5 -16t61.5 16t32.5 52h51q-1 -37 -17 -70t-48 -53t-80 -20z" />
    <glyph glyph-name="Edotaccent" unicode="&#x116;" horiz-adv-x="631" 
d="M35 0v45h21q30 0 52 11t22 54v489q0 46 -21.5 58t-52.5 12h-21v45h518l5 -177h-57l-5 44q-4 34 -22 57t-59 23h-168v-262h240v-52h-240v-294h195q42 0 61.5 23.5t24.5 56.5l7 44h57l-7 -177h-550zM325 784q-28 0 -46.5 15t-18.5 50q0 36 18.5 50.5t46.5 14.5
q26 0 45.5 -14.5t19.5 -50.5q0 -35 -19.5 -50t-45.5 -15z" />
    <glyph glyph-name="edotaccent" unicode="&#x117;" horiz-adv-x="545" 
d="M292 -10q-114 0 -176.5 72t-62.5 202q0 141 59.5 212t169.5 71q100 0 157.5 -60.5t57.5 -179.5v-47h-331q2 -107 38.5 -155.5t105.5 -48.5q52 0 88.5 22t54.5 51q8 -4 14.5 -14t6.5 -24q0 -22 -19.5 -45.5t-60 -39.5t-102.5 -16zM168 317h214q0 79 -23 126t-78 47
q-52 0 -80.5 -44.5t-32.5 -128.5zM281 633q-28 0 -46.5 15t-18.5 50q0 36 18.5 50.5t46.5 14.5q26 0 45.5 -14.5t19.5 -50.5q0 -35 -19.5 -50t-45.5 -15z" />
    <glyph glyph-name="Eogonek" unicode="&#x118;" horiz-adv-x="631" 
d="M35 0v45h21q30 0 52 11t22 54v489q0 46 -21.5 58t-52.5 12h-21v45h518l5 -177h-57l-5 44q-4 34 -22 57t-59 23h-168v-262h240v-52h-240v-294h195q42 0 61.5 23.5t24.5 56.5l7 44h57l-7 -177h-550zM488 -240q-67 0 -104 26.5t-37 83.5q0 31 17 58t43.5 46t57.5 26h63
q-21 -6 -42.5 -21.5t-36 -39t-14.5 -54.5t19.5 -45.5t49.5 -14.5q13 0 29 2t34 6v-57q-16 -8 -39.5 -12t-39.5 -4z" />
    <glyph glyph-name="eogonek" unicode="&#x119;" horiz-adv-x="545" 
d="M370 -229q-66 0 -103 26.5t-37 83.5q0 34 21.5 63t50.5 46h-10q-114 0 -176.5 72t-62.5 202q0 141 59.5 212t169.5 71q100 0 157.5 -60.5t57.5 -179.5v-47h-331q2 -107 38.5 -155.5t105.5 -48.5q52 0 88.5 22t54.5 51q8 -4 14.5 -14t6.5 -24q0 -29 -26 -52.5t-53 -32.5
q-32 -16 -55 -43t-23 -67q0 -32 19.5 -46t49.5 -14q14 0 29.5 2t33.5 6v-57q-16 -7 -39.5 -11.5t-39.5 -4.5zM168 317h214q0 79 -23 126t-78 47q-52 0 -80.5 -44.5t-32.5 -128.5z" />
    <glyph glyph-name="Ecaron" unicode="&#x11a;" horiz-adv-x="631" 
d="M35 0v45h21q30 0 52 11t22 54v489q0 46 -21.5 58t-52.5 12h-21v45h518l5 -177h-57l-5 44q-4 34 -22 57t-59 23h-168v-262h240v-52h-240v-294h195q42 0 61.5 23.5t24.5 56.5l7 44h57l-7 -177h-550zM262 771q-11 22 -29 49t-38 53t-36 45v13h47q27 -17 56 -42.5t52 -48.5
q23 23 53 48.5t56 42.5h48v-13q-16 -19 -36 -45t-38 -53t-29 -49h-106z" />
    <glyph glyph-name="ecaron" unicode="&#x11b;" horiz-adv-x="545" 
d="M292 -10q-114 0 -176.5 72t-62.5 202q0 141 59.5 212t169.5 71q100 0 157.5 -60.5t57.5 -179.5v-47h-331q2 -107 38.5 -155.5t105.5 -48.5q52 0 88.5 22t54.5 51q8 -4 14.5 -14t6.5 -24q0 -22 -19.5 -45.5t-60 -39.5t-102.5 -16zM168 317h214q0 79 -23 126t-78 47
q-52 0 -80.5 -44.5t-32.5 -128.5zM226 606q-11 22 -29 49t-38 53t-36 45v13h47q27 -17 56 -42.5t52 -48.5q23 23 53 48.5t56 42.5h48v-13q-16 -19 -36 -45t-38 -53t-29 -49h-106z" />
    <glyph glyph-name="Gcircumflex" unicode="&#x11c;" horiz-adv-x="729" 
d="M407 -10q-118 0 -196 46t-116.5 128.5t-38.5 193.5q0 108 40.5 190.5t120 129t196.5 46.5q115 0 172 -32.5t57 -80.5q0 -33 -28.5 -53.5t-74.5 -20.5q0 33 -13 63t-41.5 49t-75.5 19q-122 0 -174 -81t-52 -229t54.5 -228t185.5 -80q25 0 50 2.5t45 8.5v157q0 43 -22.5 56
t-56.5 13h-6v45h275v-45h-7q-29 0 -47.5 -13.5t-18.5 -59.5v-176q-53 -24 -108 -36t-120 -12zM242 771v13q16 19 36 45t38 53t29 49h106q11 -22 29 -49t38 -53t36 -45v-13h-48q-26 16 -56 41.5t-53 48.5q-23 -23 -52 -48.5t-56 -41.5h-47z" />
    <glyph glyph-name="gcircumflex" unicode="&#x11d;" horiz-adv-x="544" 
d="M232 -240q-108 0 -161.5 37.5t-53.5 106.5q0 57 37 87t91 38q-23 9 -41.5 30t-18.5 54q0 31 18.5 53.5t53.5 43.5q-43 17 -68.5 58t-25.5 94q0 86 48 135.5t146 49.5q36 0 67.5 -10t47.5 -23q18 20 43 37.5t56 17.5q32 0 47.5 -16t15.5 -37q0 -22 -13 -38t-45 -16
q0 14 -8 25t-26 11q-22 0 -41 -11q19 -22 30.5 -52t11.5 -71q0 -75 -45.5 -124t-140.5 -49q-12 0 -28.5 1.5t-25.5 3.5q-18 -9 -31 -24t-13 -36q0 -18 11.5 -27t46.5 -9h115q92 0 132 -42t40 -109q0 -88 -66 -138.5t-206 -50.5zM254 242q46 0 64.5 30.5t18.5 92.5
q0 65 -18.5 97.5t-65.5 32.5q-46 0 -65 -33.5t-19 -97.5q0 -61 19.5 -91.5t65.5 -30.5zM234 -188q68 0 107 14.5t55 40t16 60.5q0 42 -25 57t-71 15h-103q-26 0 -50 -7t-39.5 -26.5t-15.5 -56.5q0 -43 27.5 -70t98.5 -27zM104 606v13q16 19 36 45t38 53t29 49h106
q11 -22 29 -49t38 -53t36 -45v-13h-48q-26 16 -56 41.5t-53 48.5q-23 -23 -52 -48.5t-56 -41.5h-47z" />
    <glyph glyph-name="Gbreve" unicode="&#x11e;" horiz-adv-x="729" 
d="M407 -10q-118 0 -196 46t-116.5 128.5t-38.5 193.5q0 108 40.5 190.5t120 129t196.5 46.5q115 0 172 -32.5t57 -80.5q0 -33 -28.5 -53.5t-74.5 -20.5q0 33 -13 63t-41.5 49t-75.5 19q-122 0 -174 -81t-52 -229t54.5 -228t185.5 -80q25 0 50 2.5t45 8.5v157q0 43 -22.5 56
t-56.5 13h-6v45h275v-45h-7q-29 0 -47.5 -13.5t-18.5 -59.5v-176q-53 -24 -108 -36t-120 -12zM399 771q-49 0 -81 20t-48 53t-17 70h52q8 -36 32.5 -52t61.5 -16t61.5 16t32.5 52h51q-1 -37 -17 -70t-48 -53t-80 -20z" />
    <glyph glyph-name="gbreve" unicode="&#x11f;" horiz-adv-x="544" 
d="M232 -240q-108 0 -161.5 37.5t-53.5 106.5q0 57 37 87t91 38q-23 9 -41.5 30t-18.5 54q0 31 18.5 53.5t53.5 43.5q-43 17 -68.5 58t-25.5 94q0 86 48 135.5t146 49.5q36 0 67.5 -10t47.5 -23q18 20 43 37.5t56 17.5q32 0 47.5 -16t15.5 -37q0 -22 -13 -38t-45 -16
q0 14 -8 25t-26 11q-22 0 -41 -11q19 -22 30.5 -52t11.5 -71q0 -75 -45.5 -124t-140.5 -49q-12 0 -28.5 1.5t-25.5 3.5q-18 -9 -31 -24t-13 -36q0 -18 11.5 -27t46.5 -9h115q92 0 132 -42t40 -109q0 -88 -66 -138.5t-206 -50.5zM254 242q46 0 64.5 30.5t18.5 92.5
q0 65 -18.5 97.5t-65.5 32.5q-46 0 -65 -33.5t-19 -97.5q0 -61 19.5 -91.5t65.5 -30.5zM234 -188q68 0 107 14.5t55 40t16 60.5q0 42 -25 57t-71 15h-103q-26 0 -50 -7t-39.5 -26.5t-15.5 -56.5q0 -43 27.5 -70t98.5 -27zM256 606q-49 0 -81 20t-48 53t-17 70h52
q8 -36 32.5 -52t61.5 -16t61.5 16t32.5 52h51q-1 -37 -17 -70t-48 -53t-80 -20z" />
    <glyph glyph-name="Gdot" unicode="&#x120;" horiz-adv-x="729" 
d="M407 -10q-118 0 -196 46t-116.5 128.5t-38.5 193.5q0 108 40.5 190.5t120 129t196.5 46.5q115 0 172 -32.5t57 -80.5q0 -33 -28.5 -53.5t-74.5 -20.5q0 33 -13 63t-41.5 49t-75.5 19q-122 0 -174 -81t-52 -229t54.5 -228t185.5 -80q25 0 50 2.5t45 8.5v157q0 43 -22.5 56
t-56.5 13h-6v45h275v-45h-7q-29 0 -47.5 -13.5t-18.5 -59.5v-176q-53 -24 -108 -36t-120 -12zM405 798q-28 0 -46.5 15t-18.5 50q0 36 18.5 50.5t46.5 14.5q26 0 45.5 -14.5t19.5 -50.5q0 -35 -19.5 -50t-45.5 -15z" />
    <glyph glyph-name="gdot" unicode="&#x121;" horiz-adv-x="544" 
d="M232 -240q-108 0 -161.5 37.5t-53.5 106.5q0 57 37 87t91 38q-23 9 -41.5 30t-18.5 54q0 31 18.5 53.5t53.5 43.5q-43 17 -68.5 58t-25.5 94q0 86 48 135.5t146 49.5q36 0 67.5 -10t47.5 -23q18 20 43 37.5t56 17.5q32 0 47.5 -16t15.5 -37q0 -22 -13 -38t-45 -16
q0 14 -8 25t-26 11q-22 0 -41 -11q19 -22 30.5 -52t11.5 -71q0 -75 -45.5 -124t-140.5 -49q-12 0 -28.5 1.5t-25.5 3.5q-18 -9 -31 -24t-13 -36q0 -18 11.5 -27t46.5 -9h115q92 0 132 -42t40 -109q0 -88 -66 -138.5t-206 -50.5zM254 242q46 0 64.5 30.5t18.5 92.5
q0 65 -18.5 97.5t-65.5 32.5q-46 0 -65 -33.5t-19 -97.5q0 -61 19.5 -91.5t65.5 -30.5zM234 -188q68 0 107 14.5t55 40t16 60.5q0 42 -25 57t-71 15h-103q-26 0 -50 -7t-39.5 -26.5t-15.5 -56.5q0 -43 27.5 -70t98.5 -27zM256 633q-28 0 -46.5 15t-18.5 50q0 36 18.5 50.5
t46.5 14.5q26 0 45.5 -14.5t19.5 -50.5q0 -35 -19.5 -50t-45.5 -15z" />
    <glyph glyph-name="uni0122" unicode="&#x122;" horiz-adv-x="729" 
d="M407 -10q-118 0 -196 46t-116.5 128.5t-38.5 193.5q0 108 40.5 190.5t120 129t196.5 46.5q115 0 172 -32.5t57 -80.5q0 -33 -28.5 -53.5t-74.5 -20.5q0 33 -13 63t-41.5 49t-75.5 19q-122 0 -174 -81t-52 -229t54.5 -228t185.5 -80q25 0 50 2.5t45 8.5v157q0 43 -22.5 56
t-56.5 13h-6v45h275v-45h-7q-29 0 -47.5 -13.5t-18.5 -59.5v-176q-53 -24 -108 -36t-120 -12zM318 -221v13q8 32 17 72t15 75h102v-10q-9 -21 -23.5 -48t-31.5 -54t-31 -48h-48z" />
    <glyph glyph-name="uni0123" unicode="&#x123;" horiz-adv-x="544" 
d="M232 -240q-108 0 -161.5 37.5t-53.5 106.5q0 57 37 87t91 38q-23 9 -41.5 30t-18.5 54q0 31 18.5 53.5t53.5 43.5q-43 17 -68.5 58t-25.5 94q0 86 48 135.5t146 49.5q36 0 67.5 -10t47.5 -23q18 20 43 37.5t56 17.5q32 0 47.5 -16t15.5 -37q0 -22 -13 -38t-45 -16
q0 14 -8 25t-26 11q-22 0 -41 -11q19 -22 30.5 -52t11.5 -71q0 -75 -45.5 -124t-140.5 -49q-12 0 -28.5 1.5t-25.5 3.5q-18 -9 -31 -24t-13 -36q0 -18 11.5 -27t46.5 -9h115q92 0 132 -42t40 -109q0 -88 -66 -138.5t-206 -50.5zM254 242q46 0 64.5 30.5t18.5 92.5
q0 65 -18.5 97.5t-65.5 32.5q-46 0 -65 -33.5t-19 -97.5q0 -61 19.5 -91.5t65.5 -30.5zM234 -188q68 0 107 14.5t55 40t16 60.5q0 42 -25 57t-71 15h-103q-26 0 -50 -7t-39.5 -26.5t-15.5 -56.5q0 -43 27.5 -70t98.5 -27zM208 606v10q9 21 23.5 48t31.5 54t32 48h48v-13
q-8 -32 -17 -72t-15 -75h-103z" />
    <glyph glyph-name="Hcircumflex" unicode="&#x124;" horiz-adv-x="800" 
d="M35 0v45h21q31 0 52.5 12t21.5 58v488q0 43 -22 54.5t-52 11.5h-21v45h306v-45h-21q-30 0 -52 -12t-22 -58v-200h308v200q0 46 -21.5 58t-52.5 12h-21v45h306v-45h-21q-30 0 -52 -12t-22 -58v-489q0 -43 22.5 -54t51.5 -11h21v-45h-306v45h21q31 0 52.5 12t21.5 58v231
h-308v-231q0 -46 22 -58t52 -12h21v-45h-306zM245 771v13q16 19 36 45t38 53t29 49h106q11 -22 29 -49t38 -53t36 -45v-13h-48q-26 16 -56 41.5t-53 48.5q-23 -23 -52 -48.5t-56 -41.5h-47z" />
    <glyph glyph-name="hcircumflex" unicode="&#x125;" horiz-adv-x="644" 
d="M19 0v45h6q34 0 57.5 12.5t23.5 58.5v533q0 29 -11.5 43t-30 18.5t-37.5 4.5h-9v45h198v-205q0 -20 -1 -42.5t-3 -38.5l-1 -15h6q25 48 62 68t86 20q83 0 128.5 -46.5t45.5 -148.5v-235q0 -47 20 -59.5t54 -12.5h3v-45h-187v341q0 65 -23 100.5t-79 35.5q-59 0 -85 -44.5
t-26 -115.5v-206q0 -43 23 -54.5t56 -11.5h3v-45h-279zM158 798v13q16 19 36 45t38 53t29 49h106q11 -22 29 -49t38 -53t36 -45v-13h-48q-26 16 -56 41.5t-53 48.5q-23 -23 -52 -48.5t-56 -41.5h-47z" />
    <glyph glyph-name="Hbar" unicode="&#x126;" horiz-adv-x="800" 
d="M35 0v45h21q31 0 52.5 12t21.5 58v384h-98v50h98v54q0 43 -22 54.5t-52 11.5h-21v45h306v-45h-21q-30 0 -52 -12t-22 -58v-50h308v50q0 46 -21.5 58t-52.5 12h-21v45h306v-45h-21q-30 0 -52 -12t-22 -58v-50h98v-50h-98v-389q0 -43 22.5 -54t51.5 -11h21v-45h-306v45h21
q31 0 52.5 12t21.5 58v231h-308v-231q0 -46 22 -58t52 -12h21v-45h-306zM246 399h308v100h-308v-100z" />
    <glyph glyph-name="hbar" unicode="&#x127;" horiz-adv-x="644" 
d="M19 0v45h6q34 0 57.5 12.5t23.5 58.5v473h-90v49h90v11q0 29 -11.5 43t-30 18.5t-37.5 4.5h-9v45h198v-122h166v-49h-166v-57q0 -20 -1 -42.5t-3 -37.5l-1 -16h6q25 48 62 68t86 20q83 0 128.5 -46.5t45.5 -148.5v-212q0 -47 20 -59.5t54 -12.5h3v-45h-187v318
q0 65 -23 100.5t-79 35.5q-59 0 -85 -45t-26 -115v-183q0 -43 23 -54.5t56 -11.5h3v-45h-279z" />
    <glyph glyph-name="Itilde" unicode="&#x128;" horiz-adv-x="376" 
d="M35 0v45h21q31 0 52.5 12t21.5 58v484q0 46 -21.5 58t-52.5 12h-21v45h306v-45h-21q-30 0 -51.5 -12t-21.5 -58v-484q0 -46 21.5 -58t51.5 -12h21v-45h-306zM261 771q-27 0 -49 9.5t-40.5 22t-35 22t-32.5 9.5q-28 0 -37 -16.5t-12 -36.5h-51q3 50 30.5 88t81.5 38
q27 0 48.5 -9.5t40 -22t35 -22t32.5 -9.5q27 0 36.5 16.5t12.5 36.5h50q-2 -33 -14.5 -61.5t-36.5 -46.5t-59 -18z" />
    <glyph glyph-name="itilde" unicode="&#x129;" horiz-adv-x="329" 
d="M21 0v45h13q20 0 38 4.5t29.5 18.5t11.5 43v314q0 29 -11.5 43t-29.5 18.5t-38 4.5h-5v45h194v-421q0 -31 11 -45.5t29.5 -19.5t38.5 -5h13v-45h-294zM232 606q-27 0 -49 9.5t-40.5 22t-35 22t-32.5 9.5q-28 0 -37 -16.5t-12 -36.5h-51q3 50 30.5 88t81.5 38
q27 0 48.5 -9.5t40 -22t35 -22t32.5 -9.5q27 0 36.5 16.5t12.5 36.5h50q-2 -33 -14.5 -61.5t-36.5 -46.5t-59 -18z" />
    <glyph glyph-name="Imacron" unicode="&#x12a;" horiz-adv-x="376" 
d="M35 0v45h21q31 0 52.5 12t21.5 58v484q0 46 -21.5 58t-52.5 12h-21v45h306v-45h-21q-30 0 -51.5 -12t-21.5 -58v-484q0 -46 21.5 -58t51.5 -12h21v-45h-306zM42 778v65h290v-65h-290z" />
    <glyph glyph-name="imacron" unicode="&#x12b;" horiz-adv-x="329" 
d="M21 0v45h13q20 0 38 4.5t29.5 18.5t11.5 43v314q0 29 -11.5 43t-29.5 18.5t-38 4.5h-5v45h194v-421q0 -31 11 -45.5t29.5 -19.5t38.5 -5h13v-45h-294zM4 613v65h290v-65h-290z" />
    <glyph glyph-name="Ibreve" unicode="&#x12c;" horiz-adv-x="376" 
d="M35 0v45h21q31 0 52.5 12t21.5 58v484q0 46 -21.5 58t-52.5 12h-21v45h306v-45h-21q-30 0 -51.5 -12t-21.5 -58v-484q0 -46 21.5 -58t51.5 -12h21v-45h-306zM188 771q-49 0 -81 20t-48 53t-17 70h52q8 -36 32.5 -52t61.5 -16t61.5 16t32.5 52h51q-1 -37 -17 -70t-48 -53
t-80 -20z" />
    <glyph glyph-name="ibreve" unicode="&#x12d;" horiz-adv-x="329" 
d="M21 0v45h13q20 0 38 4.5t29.5 18.5t11.5 43v314q0 29 -11.5 43t-29.5 18.5t-38 4.5h-5v45h194v-421q0 -31 11 -45.5t29.5 -19.5t38.5 -5h13v-45h-294zM157 606q-49 0 -81 20t-48 53t-17 70h52q8 -36 32.5 -52t61.5 -16t61.5 16t32.5 52h51q-1 -37 -17 -70t-48 -53
t-80 -20z" />
    <glyph glyph-name="Iogonek" unicode="&#x12e;" horiz-adv-x="376" 
d="M35 0v45h21q31 0 52.5 12t21.5 58v484q0 46 -21.5 58t-52.5 12h-21v45h306v-45h-21q-30 0 -51.5 -12t-21.5 -58v-484q0 -46 21.5 -58t51.5 -12h21v-45h-306zM231 -240q-67 0 -104 26.5t-37 83.5q0 31 17 58t43.5 46t57.5 26h63q-21 -6 -42.5 -21.5t-36 -39t-14.5 -54.5
t19.5 -45.5t49.5 -14.5q13 0 29 2t34 6v-57q-16 -8 -39.5 -12t-39.5 -4z" />
    <glyph glyph-name="iogonek" unicode="&#x12f;" horiz-adv-x="329" 
d="M164 633q-28 0 -46.5 15t-18.5 50q0 36 18.5 50.5t46.5 14.5q26 0 45.5 -14.5t19.5 -50.5q0 -35 -19.5 -50t-45.5 -15zM21 0v45h13q20 0 38 4.5t29.5 18.5t11.5 43v314q0 29 -11.5 43t-29.5 18.5t-38 4.5h-5v45h194v-421q0 -31 11 -45.5t29.5 -19.5t38.5 -5h13v-45h-294z
M210 -240q-67 0 -104 26.5t-37 83.5q0 31 17 58t43.5 46t57.5 26h63q-21 -6 -42.5 -21.5t-36 -39t-14.5 -54.5t19.5 -45.5t49.5 -14.5q13 0 29 2t34 6v-57q-16 -8 -39.5 -12t-39.5 -4z" />
    <glyph glyph-name="Idotaccent" unicode="&#x130;" horiz-adv-x="376" 
d="M35 0v45h21q31 0 52.5 12t21.5 58v484q0 46 -21.5 58t-52.5 12h-21v45h306v-45h-21q-30 0 -51.5 -12t-21.5 -58v-484q0 -46 21.5 -58t51.5 -12h21v-45h-306zM187 798q-28 0 -46.5 15t-18.5 50q0 36 18.5 50.5t46.5 14.5q26 0 45.5 -14.5t19.5 -50.5q0 -35 -19.5 -50
t-45.5 -15z" />
    <glyph glyph-name="IJ" unicode="&#x132;" horiz-adv-x="724" 
d="M35 0v45h21q31 0 52.5 12t21.5 58v484q0 46 -21.5 58t-52.5 12h-21v45h306v-45h-21q-30 0 -51.5 -12t-21.5 -58v-484q0 -46 21.5 -58t51.5 -12h21v-45h-306zM342 -240v50h12q40 0 69.5 17t46 57t16.5 109v610q0 43 -22 54.5t-51 11.5h-21v45h306v-45h-21q-31 0 -52.5 -12
t-21.5 -58v-605q0 -90 -32.5 -141t-86.5 -72t-120 -21h-22z" />
    <glyph glyph-name="ij" unicode="&#x133;" horiz-adv-x="641" 
d="M164 633q-28 0 -46.5 15t-18.5 50q0 36 18.5 50.5t46.5 14.5q26 0 45.5 -14.5t19.5 -50.5q0 -35 -19.5 -50t-45.5 -15zM21 0v45h13q20 0 38 4.5t29.5 18.5t11.5 43v314q0 29 -11.5 43t-29.5 18.5t-38 4.5h-5v45h194v-421q0 -31 11 -45.5t29.5 -19.5t38.5 -5h13v-45h-294z
M486 633q-28 0 -46.5 15t-18.5 50q0 36 18.5 50.5t46.5 14.5q26 0 45.5 -14.5t19.5 -50.5q0 -35 -19.5 -50t-45.5 -15zM315 -240v51h7q54 0 83.5 39t29.5 143v431q0 44 -24.5 55.5t-57.5 11.5h-3v45h195v-544q0 -90 -27.5 -140.5t-75.5 -71t-110 -20.5h-17z" />
    <glyph glyph-name="Jcircumflex" unicode="&#x134;" horiz-adv-x="368" 
d="M-14 -240v50h12q40 0 69.5 17t46 57t16.5 109v610q0 43 -22 54.5t-51 11.5h-21v45h306v-45h-21q-31 0 -52.5 -12t-21.5 -58v-605q0 -90 -32.5 -141t-86.5 -72t-120 -21h-22zM32 771v13q16 19 36 45t38 53t29 49h106q11 -22 29 -49t38 -53t36 -45v-13h-48q-26 16 -56 41.5
t-53 48.5q-23 -23 -52 -48.5t-56 -41.5h-47z" />
    <glyph glyph-name="jcircumflex" unicode="&#x135;" horiz-adv-x="312" 
d="M-10 -240v51h7q35 0 59 16.5t37 56.5t13 109v431q0 44 -24 55.5t-57 11.5h-4v45h195v-544q0 -90 -27 -140.5t-74 -71t-108 -20.5h-17zM-14 606v13q16 19 36 45t38 53t29 49h106q11 -22 29 -49t38 -53t36 -45v-13h-48q-26 16 -56 41.5t-53 48.5q-23 -23 -52 -48.5
t-56 -41.5h-47z" />
    <glyph glyph-name="uni0136" unicode="&#x136;" horiz-adv-x="709" 
d="M35 0v45h21q30 0 52 11t22 54v493q0 43 -22 54.5t-52 11.5h-21v45h306v-45h-21q-30 0 -52 -12t-22 -58v-269l193 219q32 36 44 58.5t12 38.5q0 24 -51 24v44h234v-44q-36 0 -67 -25t-69 -67l-142 -158l204 -295q29 -41 56 -60.5t56 -19.5h2v-45h-23q-52 0 -85.5 4.5
t-55.5 15t-38.5 28t-33.5 43.5l-162 242l-74 -60v-158q0 -46 22 -58t52 -12h21v-45h-306zM303 -221v13q8 32 17 72t15 75h102v-10q-9 -21 -23.5 -48t-31.5 -54t-31 -48h-48z" />
    <glyph glyph-name="uni0137" unicode="&#x137;" horiz-adv-x="599" 
d="M18 0v45h9q20 0 38 5t29.5 19.5t11.5 45.5v534q0 29 -11.5 43t-30 18.5t-37.5 4.5h-9v45h198v-386q0 -14 -0.5 -34t-1.5 -39.5t-2 -32.5v-14l125 138q28 32 37.5 48.5t9.5 29.5t-12.5 17.5t-37.5 4.5v44h230v-44q-34 0 -68 -23.5t-73 -67.5l-68 -77l133 -198
q26 -40 52 -60.5t57 -20.5h3v-45h-14q-46 0 -77.5 3t-53 12t-39.5 28t-39 52l-97 152l-64 -48v-88q0 -29 11.5 -43t29.5 -18.5t38 -4.5h5v-45h-282zM245 -221v13q8 32 17 72t15 75h102v-10q-9 -21 -23.5 -48t-31.5 -54t-31 -48h-48z" />
    <glyph glyph-name="kgreenlandic" unicode="&#x138;" horiz-adv-x="599" 
d="M18 0v45h9q20 0 38 5t29.5 19.5t11.5 45.5v310q0 29 -11.5 43t-30 18.5t-37.5 4.5h-9v45h198v-162q0 -14 -0.5 -34t-1.5 -39.5t-2 -32.5v-14l125 138q28 32 37.5 48.5t9.5 29.5t-12.5 17.5t-37.5 4.5v44h230v-44q-34 0 -68 -23.5t-73 -67.5l-68 -77l133 -198
q26 -40 52 -60.5t57 -20.5h3v-45h-14q-46 0 -77.5 3t-53 12t-39.5 28t-39 52l-97 152l-64 -48v-88q0 -29 11.5 -43t29.5 -18.5t38 -4.5h5v-45h-282z" />
    <glyph glyph-name="Lacute" unicode="&#x139;" horiz-adv-x="632" 
d="M35 0v45h21q31 0 52.5 12t21.5 58v484q0 46 -21.5 58t-52.5 12h-21v45h306v-45h-21q-29 0 -51 -11.5t-22 -54.5v-550h194q42 0 61.5 27.5t24.5 61.5l12 75h53l-7 -217h-550zM154 771v13q14 19 31 45t33 53t26 49h121v-10q-13 -18 -41.5 -46.5t-62 -57t-61.5 -46.5h-46z
" />
    <glyph glyph-name="lacute" unicode="&#x13a;" horiz-adv-x="322" 
d="M14 0v45h13q20 0 38 5t29.5 19.5t11.5 45.5v534q0 29 -11.5 43t-30 18.5t-37.5 4.5h-13v45h202v-645q0 -31 11 -45.5t29 -19.5t39 -5h12v-45h-293zM106 799v13q14 19 31 45t33 53t26 49h121v-10q-13 -18 -41.5 -46.5t-62 -57t-61.5 -46.5h-46z" />
    <glyph glyph-name="uni013B" unicode="&#x13b;" horiz-adv-x="632" 
d="M35 0v45h21q31 0 52.5 12t21.5 58v484q0 46 -21.5 58t-52.5 12h-21v45h306v-45h-21q-29 0 -51 -11.5t-22 -54.5v-550h194q42 0 61.5 27.5t24.5 61.5l12 75h53l-7 -217h-550zM252 -221v13q8 32 17 72t15 75h102v-10q-9 -21 -23.5 -48t-31.5 -54t-31 -48h-48z" />
    <glyph glyph-name="uni013C" unicode="&#x13c;" horiz-adv-x="322" 
d="M14 0v45h13q20 0 38 5t29.5 19.5t11.5 45.5v534q0 29 -11.5 43t-30 18.5t-37.5 4.5h-13v45h202v-645q0 -31 11 -45.5t29 -19.5t39 -5h12v-45h-293zM80 -221v13q8 32 17 72t15 75h102v-10q-9 -21 -23.5 -48t-31.5 -54t-31 -48h-48z" />
    <glyph glyph-name="Lcaron" unicode="&#x13d;" horiz-adv-x="632" 
d="M35 0v45h21q31 0 52.5 12t21.5 58v484q0 46 -21.5 58t-52.5 12h-21v45h306v-45h-21q-29 0 -51 -11.5t-22 -54.5v-550h194q42 0 61.5 27.5t24.5 61.5l12 75h53l-7 -217h-550zM430 554v13q9 32 18 72t15 75h95v-10q-9 -21 -24 -48t-31.5 -54t-31.5 -48h-41z" />
    <glyph glyph-name="lcaron" unicode="&#x13e;" horiz-adv-x="322" 
d="M14 0v45h13q20 0 38 5t29.5 19.5t11.5 45.5v534q0 29 -11.5 43t-30 18.5t-37.5 4.5h-13v45h202v-645q0 -31 11 -45.5t29 -19.5t39 -5h12v-45h-293zM270 600v13q9 32 18 72t15 75h95v-10q-9 -21 -24 -48t-31.5 -54t-31.5 -48h-41z" />
    <glyph glyph-name="Ldot" unicode="&#x13f;" horiz-adv-x="632" 
d="M35 0v45h21q31 0 52.5 12t21.5 58v484q0 46 -21.5 58t-52.5 12h-21v45h306v-45h-21q-29 0 -51 -11.5t-22 -54.5v-550h194q42 0 61.5 27.5t24.5 61.5l12 75h53l-7 -217h-550zM496 315q-28 0 -46.5 15t-18.5 50q0 36 18.5 50.5t46.5 14.5q26 0 45.5 -14.5t19.5 -50.5
q0 -35 -19.5 -50t-45.5 -15z" />
    <glyph glyph-name="ldot" unicode="&#x140;" horiz-adv-x="397" 
d="M14 0v45h13q20 0 38 5t29.5 19.5t11.5 45.5v534q0 29 -11.5 43t-30 18.5t-37.5 4.5h-13v45h202v-645q0 -31 11 -45.5t29 -19.5t39 -5h12v-45h-293zM358 263q-28 0 -46.5 15t-18.5 50q0 36 18.5 50.5t46.5 14.5q26 0 45.5 -14.5t19.5 -50.5q0 -35 -19.5 -50t-45.5 -15z
" />
    <glyph glyph-name="Lslash" unicode="&#x141;" horiz-adv-x="632" 
d="M35 0v45h21q31 0 52.5 12t21.5 58v166l-92 -52v59l92 53v258q0 46 -21.5 58t-52.5 12h-21v45h306v-45h-21q-29 0 -51 -11.5t-22 -54.5v-194l152 89v-61l-152 -89v-295h194q42 0 61.5 27.5t24.5 61.5l12 75h53l-7 -217h-550z" />
    <glyph glyph-name="lslash" unicode="&#x142;" horiz-adv-x="332" 
d="M25 0v45h13q20 0 38 5t29.5 19.5t11.5 45.5v158l-82 -46v60l82 47v315q0 29 -11.5 43t-29.5 18.5t-38 4.5h-13v45h202v-363l90 51v-61l-90 -51v-221q0 -31 11 -45.5t29.5 -19.5t38.5 -5h12v-45h-293z" />
    <glyph glyph-name="Nacute" unicode="&#x143;" horiz-adv-x="770" 
d="M35 0v45h21q31 0 52.5 12t21.5 58v488q0 43 -22 54.5t-52 11.5h-21v45h194l357 -538v427q0 43 -22.5 54.5t-51.5 11.5h-21v45h254v-45h-21q-30 0 -52 -12t-22 -58v-599h-76l-379 569v-454q0 -46 21.5 -58t51.5 -12h21v-45h-254zM346 771v13q14 19 31 45t33 53t26 49h121
v-10q-13 -18 -41.5 -46.5t-62 -57t-61.5 -46.5h-46z" />
    <glyph glyph-name="nacute" unicode="&#x144;" horiz-adv-x="651" 
d="M26 0v45h6q34 0 57.5 12.5t23.5 58.5v308q0 44 -22.5 55.5t-55.5 11.5h-4v45h175l13 -78h5q31 56 69 72.5t86 16.5q79 0 123 -46.5t44 -148.5v-235q0 -47 19.5 -59.5t53.5 -12.5h5v-45h-188v341q0 65 -22.5 100.5t-78.5 35.5q-42 0 -66.5 -22.5t-35 -58.5t-10.5 -79v-206
q0 -43 22.5 -54.5t55.5 -11.5h4v-45h-279zM276 606v13q14 19 31 45t33 53t26 49h121v-10q-13 -18 -41.5 -46.5t-62 -57t-61.5 -46.5h-46z" />
    <glyph glyph-name="uni0145" unicode="&#x145;" horiz-adv-x="770" 
d="M35 0v45h21q31 0 52.5 12t21.5 58v488q0 43 -22 54.5t-52 11.5h-21v45h194l357 -538v427q0 43 -22.5 54.5t-51.5 11.5h-21v45h254v-45h-21q-30 0 -52 -12t-22 -58v-599h-76l-379 569v-454q0 -46 21.5 -58t51.5 -12h21v-45h-254zM325 -221v13q8 32 17 72t15 75h102v-10
q-9 -21 -23.5 -48t-31.5 -54t-31 -48h-48z" />
    <glyph glyph-name="uni0146" unicode="&#x146;" horiz-adv-x="651" 
d="M26 0v45h6q34 0 57.5 12.5t23.5 58.5v308q0 44 -22.5 55.5t-55.5 11.5h-4v45h175l13 -78h5q31 56 69 72.5t86 16.5q79 0 123 -46.5t44 -148.5v-235q0 -47 19.5 -59.5t53.5 -12.5h5v-45h-188v341q0 65 -22.5 100.5t-78.5 35.5q-42 0 -66.5 -22.5t-35 -58.5t-10.5 -79v-206
q0 -43 22.5 -54.5t55.5 -11.5h4v-45h-279zM257 -221v13q8 32 17 72t15 75h102v-10q-9 -21 -23.5 -48t-31.5 -54t-31 -48h-48z" />
    <glyph glyph-name="Ncaron" unicode="&#x147;" horiz-adv-x="770" 
d="M35 0v45h21q31 0 52.5 12t21.5 58v488q0 43 -22 54.5t-52 11.5h-21v45h194l357 -538v427q0 43 -22.5 54.5t-51.5 11.5h-21v45h254v-45h-21q-30 0 -52 -12t-22 -58v-599h-76l-379 569v-454q0 -46 21.5 -58t51.5 -12h21v-45h-254zM355 771q-11 22 -29 49t-38 53t-36 45v13
h47q27 -17 56 -42.5t52 -48.5q23 23 53 48.5t56 42.5h48v-13q-16 -19 -36 -45t-38 -53t-29 -49h-106z" />
    <glyph glyph-name="ncaron" unicode="&#x148;" horiz-adv-x="651" 
d="M26 0v45h6q34 0 57.5 12.5t23.5 58.5v308q0 44 -22.5 55.5t-55.5 11.5h-4v45h175l13 -78h5q31 56 69 72.5t86 16.5q79 0 123 -46.5t44 -148.5v-235q0 -47 19.5 -59.5t53.5 -12.5h5v-45h-188v341q0 65 -22.5 100.5t-78.5 35.5q-42 0 -66.5 -22.5t-35 -58.5t-10.5 -79v-206
q0 -43 22.5 -54.5t55.5 -11.5h4v-45h-279zM279 606q-11 22 -29 49t-38 53t-36 45v13h47q27 -17 56 -42.5t52 -48.5q23 23 53 48.5t56 42.5h48v-13q-16 -19 -36 -45t-38 -53t-29 -49h-106z" />
    <glyph glyph-name="napostrophe" unicode="&#x149;" horiz-adv-x="801" 
d="M176 0v45h6q34 0 57.5 12.5t23.5 58.5v308q0 44 -22.5 55.5t-55.5 11.5h-4v45h175l13 -78h5q31 56 69 72.5t86 16.5q79 0 123 -46.5t44 -148.5v-235q0 -47 19.5 -59.5t53.5 -12.5h5v-45h-188v341q0 65 -22.5 100.5t-78.5 35.5q-42 0 -66.5 -22.5t-35 -58.5t-10.5 -79
v-206q0 -43 22.5 -54.5t55.5 -11.5h4v-45h-279zM4 425v44q93 31 93 87q0 15 -11 23t-25.5 15.5t-25.5 20t-11 37.5q0 30 19 46t48 16q34 0 57.5 -24.5t23.5 -68.5q0 -64 -38 -117t-130 -79z" />
    <glyph glyph-name="Eng" unicode="&#x14a;" horiz-adv-x="770" 
d="M469 -240v50h17q45 0 72.5 39.5t27.5 141.5v9l-391 569v-454q0 -46 21.5 -58t51.5 -12h21v-45h-254v45h21q31 0 52.5 12t21.5 58v488q0 43 -22 54.5t-52 11.5h-21v45h194l357 -522v411q0 43 -22.5 54.5t-51.5 11.5h-21v45h254v-45h-21q-30 0 -52 -12t-22 -58v-607
q0 -90 -17.5 -140.5t-52 -71t-85.5 -20.5h-26z" />
    <glyph glyph-name="eng" unicode="&#x14b;" horiz-adv-x="644" 
d="M331 -240v51h6q48 0 73.5 39t25.5 143v348q0 65 -22.5 100.5t-78.5 35.5q-42 0 -66.5 -22.5t-35 -58.5t-10.5 -79v-206q0 -43 23 -54.5t56 -11.5h3v-45h-279v45h6q34 0 57.5 12.5t23.5 58.5v308q0 44 -23 55.5t-56 11.5h-3v45h175l13 -78h5q31 56 69 72.5t86 16.5
q79 0 123 -46.5t44 -148.5v-360q0 -90 -25.5 -140.5t-70.5 -71t-103 -20.5h-16z" />
    <glyph glyph-name="Omacron" unicode="&#x14c;" horiz-adv-x="754" 
d="M377 -10q-108 0 -179.5 46t-106.5 129t-35 194t35.5 193t107 127.5t179.5 45.5q102 0 173.5 -45.5t109 -128t37.5 -193.5t-37.5 -193.5t-109 -128.5t-174.5 -46zM377 47q107 0 150.5 82t43.5 229t-43.5 228.5t-149.5 81.5t-151 -81.5t-45 -228.5t44.5 -229t150.5 -82z
M230 778v65h290v-65h-290z" />
    <glyph glyph-name="omacron" unicode="&#x14d;" horiz-adv-x="587" 
d="M292 -10q-111 0 -175 69t-64 210t61 209.5t181 68.5q111 0 175 -68.5t64 -209.5t-61.5 -210t-180.5 -69zM294 45q70 0 98.5 57t28.5 167q0 111 -28.5 166.5t-99.5 55.5t-99 -55.5t-28 -166.5q0 -110 29 -167t99 -57zM146 613v65h290v-65h-290z" />
    <glyph glyph-name="Obreve" unicode="&#x14e;" horiz-adv-x="754" 
d="M377 -10q-108 0 -179.5 46t-106.5 129t-35 194t35.5 193t107 127.5t179.5 45.5q102 0 173.5 -45.5t109 -128t37.5 -193.5t-37.5 -193.5t-109 -128.5t-174.5 -46zM377 47q107 0 150.5 82t43.5 229t-43.5 228.5t-149.5 81.5t-151 -81.5t-45 -228.5t44.5 -229t150.5 -82z
M377 771q-49 0 -81 20t-48 53t-17 70h52q8 -36 32.5 -52t61.5 -16t61.5 16t32.5 52h51q-1 -37 -17 -70t-48 -53t-80 -20z" />
    <glyph glyph-name="obreve" unicode="&#x14f;" horiz-adv-x="587" 
d="M292 -10q-111 0 -175 69t-64 210t61 209.5t181 68.5q111 0 175 -68.5t64 -209.5t-61.5 -210t-180.5 -69zM294 45q70 0 98.5 57t28.5 167q0 111 -28.5 166.5t-99.5 55.5t-99 -55.5t-28 -166.5q0 -110 29 -167t99 -57zM293 606q-49 0 -81 20t-48 53t-17 70h52
q8 -36 32.5 -52t61.5 -16t61.5 16t32.5 52h51q-1 -37 -17 -70t-48 -53t-80 -20z" />
    <glyph glyph-name="Ohungarumlaut" unicode="&#x150;" horiz-adv-x="754" 
d="M377 -10q-108 0 -179.5 46t-106.5 129t-35 194t35.5 193t107 127.5t179.5 45.5q102 0 173.5 -45.5t109 -128t37.5 -193.5t-37.5 -193.5t-109 -128.5t-174.5 -46zM377 47q107 0 150.5 82t43.5 229t-43.5 228.5t-149.5 81.5t-151 -81.5t-45 -228.5t44.5 -229t150.5 -82z
M404 771v13q21 32 45 72.5t40 74.5h112v-10q-10 -18 -36 -46.5t-55 -57t-52 -46.5h-54zM221 771v13q21 32 45 72.5t40 74.5h113v-10q-10 -18 -36 -46.5t-55 -57t-52 -46.5h-55z" />
    <glyph glyph-name="ohungarumlaut" unicode="&#x151;" horiz-adv-x="587" 
d="M292 -10q-111 0 -175 69t-64 210t61 209.5t181 68.5q111 0 175 -68.5t64 -209.5t-61.5 -210t-180.5 -69zM294 45q70 0 98.5 57t28.5 167q0 111 -28.5 166.5t-99.5 55.5t-99 -55.5t-28 -166.5q0 -110 29 -167t99 -57zM321 606v13q21 32 45 72.5t40 74.5h112v-10
q-10 -18 -36 -46.5t-55 -57t-52 -46.5h-54zM138 606v13q21 32 45 72.5t40 74.5h113v-10q-10 -18 -36 -46.5t-55 -57t-52 -46.5h-55z" />
    <glyph glyph-name="OE" unicode="&#x152;" horiz-adv-x="976" 
d="M377 -10q-108 0 -179.5 46t-106.5 129t-35 194t35.5 193t107 127.5t179.5 45.5q25 0 54.5 -3t49.5 -8h416l4 -177h-57l-5 44q-4 34 -22 57t-59 23h-168v-262h240v-52h-240v-294h195q43 0 62 23.5t24 56.5l8 44h56l-7 -177h-448q-21 -4 -50.5 -7t-53.5 -3zM377 47
q29 0 53 5t44 14v581q-19 10 -43 15.5t-53 5.5q-106 0 -151 -81.5t-45 -228.5t44.5 -229t150.5 -82z" />
    <glyph glyph-name="oe" unicode="&#x153;" horiz-adv-x="913" 
d="M292 -10q-111 0 -175 69t-64 210t61 209.5t181 68.5q119 0 181 -92q59 92 174 92q100 0 157.5 -60.5t57.5 -179.5v-47h-331q1 -55 14 -101.5t44 -74.5t87 -28q52 0 88 22t54 51q21 -9 21 -38q0 -22 -19.5 -45.5t-59.5 -39.5t-102 -16q-61 0 -106 24t-76 70
q-60 -94 -187 -94zM294 45q70 0 98 55.5t29 170.5q-1 115 -31 167.5t-97 52.5q-71 0 -99 -55.5t-28 -166.5q0 -110 29 -167t99 -57zM536 317h214q0 79 -23 126t-78 47q-51 0 -80 -44.5t-33 -128.5z" />
    <glyph glyph-name="Racute" unicode="&#x154;" horiz-adv-x="670" 
d="M35 0v45h21q30 0 52 11t22 54v493q0 43 -22 54.5t-52 11.5h-21v45h284q133 0 197.5 -48t64.5 -143q0 -53 -21.5 -89.5t-54.5 -59t-68 -35.5l132 -213q25 -41 48.5 -61t54.5 -20h4v-45h-20q-62 0 -97.5 6.5t-58.5 26t-45 57.5l-130 224h-79v-204q0 -43 22.5 -54t51.5 -11
h21v-45h-306zM246 364h67q83 0 113.5 38t30.5 115q0 79 -33.5 112.5t-112.5 33.5h-65v-299zM259 771v13q14 19 31 45t33 53t26 49h121v-10q-13 -18 -41.5 -46.5t-62 -57t-61.5 -46.5h-46z" />
    <glyph glyph-name="racute" unicode="&#x155;" horiz-adv-x="485" 
d="M29 0v45h3q34 0 57.5 12.5t23.5 59.5v306q0 44 -23 56t-56 12h-3v45h167l19 -93h5q13 30 28.5 53.5t41 37t68.5 13.5q56 0 83 -20t27 -56q0 -35 -24.5 -56.5t-77.5 -21.5q0 41 -11.5 60.5t-40.5 19.5q-28 0 -46 -21t-28.5 -53t-14.5 -66t-4 -60v-161q0 -44 23.5 -55.5
t55.5 -11.5h29v-45h-302zM181 606v13q14 19 31 45t33 53t26 49h121v-10q-13 -18 -41.5 -46.5t-62 -57t-61.5 -46.5h-46z" />
    <glyph glyph-name="uni0156" unicode="&#x156;" horiz-adv-x="670" 
d="M35 0v45h21q30 0 52 11t22 54v493q0 43 -22 54.5t-52 11.5h-21v45h284q133 0 197.5 -48t64.5 -143q0 -53 -21.5 -89.5t-54.5 -59t-68 -35.5l132 -213q25 -41 48.5 -61t54.5 -20h4v-45h-20q-62 0 -97.5 6.5t-58.5 26t-45 57.5l-130 224h-79v-204q0 -43 22.5 -54t51.5 -11
h21v-45h-306zM246 364h67q83 0 113.5 38t30.5 115q0 79 -33.5 112.5t-112.5 33.5h-65v-299zM263 -221v13q8 32 17 72t15 75h102v-10q-9 -21 -23.5 -48t-31.5 -54t-31 -48h-48z" />
    <glyph glyph-name="uni0157" unicode="&#x157;" horiz-adv-x="485" 
d="M29 0v45h3q34 0 57.5 12.5t23.5 59.5v306q0 44 -23 56t-56 12h-3v45h167l19 -93h5q13 30 28.5 53.5t41 37t68.5 13.5q56 0 83 -20t27 -56q0 -35 -24.5 -56.5t-77.5 -21.5q0 41 -11.5 60.5t-40.5 19.5q-28 0 -46 -21t-28.5 -53t-14.5 -66t-4 -60v-161q0 -44 23.5 -55.5
t55.5 -11.5h29v-45h-302zM88 -221v13q8 32 17 72t15 75h102v-10q-9 -21 -23.5 -48t-31.5 -54t-31 -48h-48z" />
    <glyph glyph-name="Rcaron" unicode="&#x158;" horiz-adv-x="670" 
d="M35 0v45h21q30 0 52 11t22 54v493q0 43 -22 54.5t-52 11.5h-21v45h284q133 0 197.5 -48t64.5 -143q0 -53 -21.5 -89.5t-54.5 -59t-68 -35.5l132 -213q25 -41 48.5 -61t54.5 -20h4v-45h-20q-62 0 -97.5 6.5t-58.5 26t-45 57.5l-130 224h-79v-204q0 -43 22.5 -54t51.5 -11
h21v-45h-306zM246 364h67q83 0 113.5 38t30.5 115q0 79 -33.5 112.5t-112.5 33.5h-65v-299zM258 771q-11 22 -29 49t-38 53t-36 45v13h47q27 -17 56 -42.5t52 -48.5q23 23 53 48.5t56 42.5h48v-13q-16 -19 -36 -45t-38 -53t-29 -49h-106z" />
    <glyph glyph-name="rcaron" unicode="&#x159;" horiz-adv-x="485" 
d="M29 0v45h3q34 0 57.5 12.5t23.5 59.5v306q0 44 -23 56t-56 12h-3v45h167l19 -93h5q13 30 28.5 53.5t41 37t68.5 13.5q56 0 83 -20t27 -56q0 -35 -24.5 -56.5t-77.5 -21.5q0 41 -11.5 60.5t-40.5 19.5q-28 0 -46 -21t-28.5 -53t-14.5 -66t-4 -60v-161q0 -44 23.5 -55.5
t55.5 -11.5h29v-45h-302zM182 606q-11 22 -29 49t-38 53t-36 45v13h47q27 -17 56 -42.5t52 -48.5q23 23 53 48.5t56 42.5h48v-13q-16 -19 -36 -45t-38 -53t-29 -49h-106z" />
    <glyph glyph-name="Sacute" unicode="&#x15a;" horiz-adv-x="556" 
d="M252 -10q-109 0 -159 41t-50 100q0 35 23 54.5t60 19.5q2 -69 35 -116t101 -47q64 0 101 32.5t37 88.5q0 36 -15.5 61.5t-50.5 47t-93 45.5q-96 39 -140 90t-44 130q0 59 29.5 100.5t80.5 64t116 22.5q95 0 144.5 -34t49.5 -79q0 -33 -24 -51.5t-67 -18.5q0 30 -10.5 60
t-35 50t-65.5 20q-53 0 -84 -29t-31 -79q0 -37 14 -63.5t48 -49t95 -46.5q92 -38 140 -85t48 -123q0 -96 -68.5 -151t-184.5 -55zM227 771v13q14 19 31 45t33 53t26 49h121v-10q-13 -18 -41.5 -46.5t-62 -57t-61.5 -46.5h-46z" />
    <glyph glyph-name="sacute" unicode="&#x15b;" horiz-adv-x="461" 
d="M216 -10q-85 0 -130 28.5t-45 80.5q0 29 12 44t28.5 21t30.5 6q0 -56 25.5 -92.5t82.5 -36.5q53 0 80 23.5t27 61.5q0 24 -10.5 40t-37.5 31t-75 35q-52 22 -86.5 43.5t-51.5 51t-17 73.5q0 71 53.5 108.5t141.5 37.5q78 0 116 -28t38 -64q0 -29 -20 -46t-60 -17
q0 50 -21.5 78t-65.5 28q-46 0 -68.5 -20.5t-22.5 -54.5q0 -37 28.5 -57.5t99.5 -47.5q75 -31 112.5 -66.5t37.5 -98.5q0 -80 -55 -121t-147 -41zM181 606v13q14 19 31 45t33 53t26 49h121v-10q-13 -18 -41.5 -46.5t-62 -57t-61.5 -46.5h-46z" />
    <glyph glyph-name="Scircumflex" unicode="&#x15c;" horiz-adv-x="556" 
d="M252 -10q-109 0 -159 41t-50 100q0 35 23 54.5t60 19.5q2 -69 35 -116t101 -47q64 0 101 32.5t37 88.5q0 36 -15.5 61.5t-50.5 47t-93 45.5q-96 39 -140 90t-44 130q0 59 29.5 100.5t80.5 64t116 22.5q95 0 144.5 -34t49.5 -79q0 -33 -24 -51.5t-67 -18.5q0 30 -10.5 60
t-35 50t-65.5 20q-53 0 -84 -29t-31 -79q0 -37 14 -63.5t48 -49t95 -46.5q92 -38 140 -85t48 -123q0 -96 -68.5 -151t-184.5 -55zM128 771v13q16 19 36 45t38 53t29 49h106q11 -22 29 -49t38 -53t36 -45v-13h-48q-26 16 -56 41.5t-53 48.5q-23 -23 -52 -48.5t-56 -41.5h-47z
" />
    <glyph glyph-name="scircumflex" unicode="&#x15d;" horiz-adv-x="461" 
d="M216 -10q-85 0 -130 28.5t-45 80.5q0 29 12 44t28.5 21t30.5 6q0 -56 25.5 -92.5t82.5 -36.5q53 0 80 23.5t27 61.5q0 24 -10.5 40t-37.5 31t-75 35q-52 22 -86.5 43.5t-51.5 51t-17 73.5q0 71 53.5 108.5t141.5 37.5q78 0 116 -28t38 -64q0 -29 -20 -46t-60 -17
q0 50 -21.5 78t-65.5 28q-46 0 -68.5 -20.5t-22.5 -54.5q0 -37 28.5 -57.5t99.5 -47.5q75 -31 112.5 -66.5t37.5 -98.5q0 -80 -55 -121t-147 -41zM84 606v13q16 19 36 45t38 53t29 49h106q11 -22 29 -49t38 -53t36 -45v-13h-48q-26 16 -56 41.5t-53 48.5q-23 -23 -52 -48.5
t-56 -41.5h-47z" />
    <glyph glyph-name="Scedilla" unicode="&#x15e;" horiz-adv-x="556" 
d="M252 -10q-109 0 -159 41t-50 100q0 35 23 54.5t60 19.5q2 -69 35 -116t101 -47q64 0 101 32.5t37 88.5q0 36 -15.5 61.5t-50.5 47t-93 45.5q-96 39 -140 90t-44 130q0 59 29.5 100.5t80.5 64t116 22.5q95 0 144.5 -34t49.5 -79q0 -33 -24 -51.5t-67 -18.5q0 30 -10.5 60
t-35 50t-65.5 20q-53 0 -84 -29t-31 -79q0 -37 14 -63.5t48 -49t95 -46.5q92 -38 140 -85t48 -123q0 -96 -68.5 -151t-184.5 -55zM240 -240q-16 0 -39 3t-41 8v54q38 -8 68 -8q29 0 45 13.5t16 39.5q0 29 -21.5 42.5t-53.5 15.5l21 81h50l-10 -43q49 -4 74.5 -28t25.5 -64
q0 -53 -35.5 -83.5t-99.5 -30.5z" />
    <glyph glyph-name="scedilla" unicode="&#x15f;" horiz-adv-x="461" 
d="M216 -10q-85 0 -130 28.5t-45 80.5q0 29 12 44t28.5 21t30.5 6q0 -56 25.5 -92.5t82.5 -36.5q53 0 80 23.5t27 61.5q0 24 -10.5 40t-37.5 31t-75 35q-52 22 -86.5 43.5t-51.5 51t-17 73.5q0 71 53.5 108.5t141.5 37.5q78 0 116 -28t38 -64q0 -29 -20 -46t-60 -17
q0 50 -21.5 78t-65.5 28q-46 0 -68.5 -20.5t-22.5 -54.5q0 -37 28.5 -57.5t99.5 -47.5q75 -31 112.5 -66.5t37.5 -98.5q0 -80 -55 -121t-147 -41zM195 -240q-16 0 -39 3t-41 8v54q38 -8 68 -8q29 0 45 13.5t16 39.5q0 29 -21.5 42.5t-53.5 15.5l21 81h50l-10 -43
q49 -4 74.5 -28t25.5 -64q0 -53 -35.5 -83.5t-99.5 -30.5z" />
    <glyph glyph-name="Scaron" unicode="&#x160;" horiz-adv-x="556" 
d="M252 -10q-109 0 -159 41t-50 100q0 35 23 54.5t60 19.5q2 -69 35 -116t101 -47q64 0 101 32.5t37 88.5q0 36 -15.5 61.5t-50.5 47t-93 45.5q-96 39 -140 90t-44 130q0 59 29.5 100.5t80.5 64t116 22.5q95 0 144.5 -34t49.5 -79q0 -33 -24 -51.5t-67 -18.5q0 30 -10.5 60
t-35 50t-65.5 20q-53 0 -84 -29t-31 -79q0 -37 14 -63.5t48 -49t95 -46.5q92 -38 140 -85t48 -123q0 -96 -68.5 -151t-184.5 -55zM229 771q-11 22 -29 49t-38 53t-36 45v13h47q27 -17 56 -42.5t52 -48.5q23 23 53 48.5t56 42.5h48v-13q-16 -19 -36 -45t-38 -53t-29 -49h-106
z" />
    <glyph glyph-name="scaron" unicode="&#x161;" horiz-adv-x="461" 
d="M216 -10q-85 0 -130 28.5t-45 80.5q0 29 12 44t28.5 21t30.5 6q0 -56 25.5 -92.5t82.5 -36.5q53 0 80 23.5t27 61.5q0 24 -10.5 40t-37.5 31t-75 35q-52 22 -86.5 43.5t-51.5 51t-17 73.5q0 71 53.5 108.5t141.5 37.5q78 0 116 -28t38 -64q0 -29 -20 -46t-60 -17
q0 50 -21.5 78t-65.5 28q-46 0 -68.5 -20.5t-22.5 -54.5q0 -37 28.5 -57.5t99.5 -47.5q75 -31 112.5 -66.5t37.5 -98.5q0 -80 -55 -121t-147 -41zM181 606q-11 22 -29 49t-38 53t-36 45v13h47q27 -17 56 -42.5t52 -48.5q23 23 53 48.5t56 42.5h48v-13q-16 -19 -36 -45
t-38 -53t-29 -49h-106z" />
    <glyph glyph-name="uni021A" unicode="&#x21a;" horiz-adv-x="624" 
d="M151 0v45h28q30 0 52 11.5t22 54.5v550h-92q-44 0 -61 -23t-21 -56l-6 -48h-56l5 180h580l5 -180h-56l-6 48q-4 33 -21 56t-62 23h-92v-546q0 -46 21.5 -58t51.5 -12h28v-45h-320zM230 -221v13q8 32 17 72t15 75h102v-10q-9 -21 -23.5 -48t-31.5 -54t-31 -48h-48z" />
    <glyph glyph-name="uni021B" unicode="&#x21b;" horiz-adv-x="367" 
d="M241 -10q-73 0 -109.5 34.5t-36.5 121.5v330h-75v43q22 0 44.5 9t38.5 26q31 33 46 105h56v-123h130v-60h-130v-330q0 -49 19.5 -72t54.5 -23q18 0 33.5 2t31.5 5v-50q-14 -6 -43 -12t-60 -6zM134 -221v13q8 32 17 72t15 75h102v-10q-9 -21 -23.5 -48t-31.5 -54t-31 -48
h-48z" />
    <glyph glyph-name="Tcaron" unicode="&#x164;" horiz-adv-x="624" 
d="M151 0v45h28q30 0 52 11.5t22 54.5v550h-92q-44 0 -61 -23t-21 -56l-6 -48h-56l5 180h580l5 -180h-56l-6 48q-4 33 -21 56t-62 23h-92v-546q0 -46 21.5 -58t51.5 -12h28v-45h-320zM259 771q-11 22 -29 49t-38 53t-36 45v13h47q27 -17 56 -42.5t52 -48.5q23 23 53 48.5
t56 42.5h48v-13q-16 -19 -36 -45t-38 -53t-29 -49h-106z" />
    <glyph glyph-name="tcaron" unicode="&#x165;" horiz-adv-x="367" 
d="M241 -10q-73 0 -109.5 34.5t-36.5 121.5v330h-75v43q22 0 44.5 9t38.5 26q31 33 46 105h56v-123h130v-60h-130v-330q0 -49 19.5 -72t54.5 -23q18 0 33.5 2t31.5 5v-50q-14 -6 -43 -12t-60 -6zM273 600v13q9 32 18 72t15 75h95v-10q-9 -21 -24 -48t-31.5 -54t-31.5 -48
h-41z" />
    <glyph glyph-name="Tbar" unicode="&#x166;" horiz-adv-x="624" 
d="M151 0v45h28q30 0 52 11.5t22 54.5v217h-161v50h161v283h-92q-44 0 -61 -23t-21 -56l-6 -48h-56l5 180h580l5 -180h-56l-6 48q-4 33 -21 56t-62 23h-92v-283h162v-50h-162v-213q0 -46 21.5 -58t51.5 -12h28v-45h-320z" />
    <glyph glyph-name="tbar" unicode="&#x167;" horiz-adv-x="367" 
d="M241 -10q-73 0 -109.5 34.5t-36.5 121.5v142h-68v49h68v139h-75v43q22 0 44.5 9t38.5 26q31 33 46 105h56v-123h130v-60h-130v-139h119v-49h-119v-142q0 -49 19.5 -72t54.5 -23q18 0 33.5 2t31.5 5v-50q-14 -6 -43 -12t-60 -6z" />
    <glyph glyph-name="Utilde" unicode="&#x168;" horiz-adv-x="725" 
d="M369 -10q-122 0 -190.5 52t-68.5 175v386q0 43 -22 54.5t-51 11.5h-22v45h306v-45h-21q-30 0 -51.5 -12t-21.5 -58v-389q0 -86 45 -121.5t117 -35.5q81 0 121 41.5t40 112.5v396q0 43 -21.5 54.5t-51.5 11.5h-21v45h254v-45h-21q-31 0 -52.5 -12t-21.5 -58v-394
q0 -101 -62 -158t-184 -57zM452 771q-27 0 -49 9.5t-40.5 22t-35 22t-32.5 9.5q-28 0 -37 -16.5t-12 -36.5h-51q3 50 30.5 88t81.5 38q27 0 48.5 -9.5t40 -22t35 -22t32.5 -9.5q27 0 36.5 16.5t12.5 36.5h50q-2 -33 -14.5 -61.5t-36.5 -46.5t-59 -18z" />
    <glyph glyph-name="utilde" unicode="&#x169;" horiz-adv-x="644" 
d="M269 -10q-79 0 -121.5 47t-42.5 150v235q0 44 -22 56.5t-56 12.5h-3v45h191v-338q0 -65 20.5 -101.5t76.5 -36.5q61 0 88.5 43.5t27.5 115.5v202q0 31 -11 46t-29 19.5t-39 4.5h-3v45h192v-425q0 -44 23 -55t55 -11h4v-45h-170l-15 78h-5q-31 -55 -72 -71.5t-89 -16.5z
M389 606q-27 0 -49 9.5t-40.5 22t-35 22t-32.5 9.5q-28 0 -37 -16.5t-12 -36.5h-51q3 50 30.5 88t81.5 38q27 0 48.5 -9.5t40 -22t35 -22t32.5 -9.5q27 0 36.5 16.5t12.5 36.5h50q-2 -33 -14.5 -61.5t-36.5 -46.5t-59 -18z" />
    <glyph glyph-name="Umacron" unicode="&#x16a;" horiz-adv-x="725" 
d="M369 -10q-122 0 -190.5 52t-68.5 175v386q0 43 -22 54.5t-51 11.5h-22v45h306v-45h-21q-30 0 -51.5 -12t-21.5 -58v-389q0 -86 45 -121.5t117 -35.5q81 0 121 41.5t40 112.5v396q0 43 -21.5 54.5t-51.5 11.5h-21v45h254v-45h-21q-31 0 -52.5 -12t-21.5 -58v-394
q0 -101 -62 -158t-184 -57zM239 778v65h290v-65h-290z" />
    <glyph glyph-name="umacron" unicode="&#x16b;" horiz-adv-x="644" 
d="M269 -10q-79 0 -121.5 47t-42.5 150v235q0 44 -22 56.5t-56 12.5h-3v45h191v-338q0 -65 20.5 -101.5t76.5 -36.5q61 0 88.5 43.5t27.5 115.5v202q0 31 -11 46t-29 19.5t-39 4.5h-3v45h192v-425q0 -44 23 -55t55 -11h4v-45h-170l-15 78h-5q-31 -55 -72 -71.5t-89 -16.5z
M164 613v65h290v-65h-290z" />
    <glyph glyph-name="Ubreve" unicode="&#x16c;" horiz-adv-x="725" 
d="M369 -10q-122 0 -190.5 52t-68.5 175v386q0 43 -22 54.5t-51 11.5h-22v45h306v-45h-21q-30 0 -51.5 -12t-21.5 -58v-389q0 -86 45 -121.5t117 -35.5q81 0 121 41.5t40 112.5v396q0 43 -21.5 54.5t-51.5 11.5h-21v45h254v-45h-21q-31 0 -52.5 -12t-21.5 -58v-394
q0 -101 -62 -158t-184 -57zM378 771q-49 0 -81 20t-48 53t-17 70h52q8 -36 32.5 -52t61.5 -16t61.5 16t32.5 52h51q-1 -37 -17 -70t-48 -53t-80 -20z" />
    <glyph glyph-name="ubreve" unicode="&#x16d;" horiz-adv-x="644" 
d="M269 -10q-79 0 -121.5 47t-42.5 150v235q0 44 -22 56.5t-56 12.5h-3v45h191v-338q0 -65 20.5 -101.5t76.5 -36.5q61 0 88.5 43.5t27.5 115.5v202q0 31 -11 46t-29 19.5t-39 4.5h-3v45h192v-425q0 -44 23 -55t55 -11h4v-45h-170l-15 78h-5q-31 -55 -72 -71.5t-89 -16.5z
M315 606q-49 0 -81 20t-48 53t-17 70h52q8 -36 32.5 -52t61.5 -16t61.5 16t32.5 52h51q-1 -37 -17 -70t-48 -53t-80 -20z" />
    <glyph glyph-name="Uring" unicode="&#x16e;" horiz-adv-x="725" 
d="M369 -10q-122 0 -190.5 52t-68.5 175v386q0 43 -22 54.5t-51 11.5h-22v45h306v-45h-21q-30 0 -51.5 -12t-21.5 -58v-389q0 -86 45 -121.5t117 -35.5q81 0 121 41.5t40 112.5v396q0 43 -21.5 54.5t-51.5 11.5h-21v45h254v-45h-21q-31 0 -52.5 -12t-21.5 -58v-394
q0 -101 -62 -158t-184 -57zM374 761q-50 0 -85 28t-35 81t35 81t85 28t85 -28t35 -81t-35 -81t-85 -28zM374 812q26 0 45 13.5t19 44.5t-19 44.5t-45 13.5t-45 -13.5t-19 -44.5t19 -44.5t45 -13.5z" />
    <glyph glyph-name="uring" unicode="&#x16f;" horiz-adv-x="644" 
d="M269 -10q-79 0 -121.5 47t-42.5 150v235q0 44 -22 56.5t-56 12.5h-3v45h191v-338q0 -65 20.5 -101.5t76.5 -36.5q61 0 88.5 43.5t27.5 115.5v202q0 31 -11 46t-29 19.5t-39 4.5h-3v45h192v-425q0 -44 23 -55t55 -11h4v-45h-170l-15 78h-5q-31 -55 -72 -71.5t-89 -16.5z
M308 596q-50 0 -85 28t-35 81t35 81t85 28t85 -28t35 -81t-35 -81t-85 -28zM308 647q26 0 45 13.5t19 44.5t-19 44.5t-45 13.5t-45 -13.5t-19 -44.5t19 -44.5t45 -13.5z" />
    <glyph glyph-name="Uhungarumlaut" unicode="&#x170;" horiz-adv-x="725" 
d="M369 -10q-122 0 -190.5 52t-68.5 175v386q0 43 -22 54.5t-51 11.5h-22v45h306v-45h-21q-30 0 -51.5 -12t-21.5 -58v-389q0 -86 45 -121.5t117 -35.5q81 0 121 41.5t40 112.5v396q0 43 -21.5 54.5t-51.5 11.5h-21v45h254v-45h-21q-31 0 -52.5 -12t-21.5 -58v-394
q0 -101 -62 -158t-184 -57zM412 771v13q21 32 45 72.5t40 74.5h112v-10q-10 -18 -36 -46.5t-55 -57t-52 -46.5h-54zM229 771v13q21 32 45 72.5t40 74.5h113v-10q-10 -18 -36 -46.5t-55 -57t-52 -46.5h-55z" />
    <glyph glyph-name="uhungarumlaut" unicode="&#x171;" horiz-adv-x="644" 
d="M269 -10q-79 0 -121.5 47t-42.5 150v235q0 44 -22 56.5t-56 12.5h-3v45h191v-338q0 -65 20.5 -101.5t76.5 -36.5q61 0 88.5 43.5t27.5 115.5v202q0 31 -11 46t-29 19.5t-39 4.5h-3v45h192v-425q0 -44 23 -55t55 -11h4v-45h-170l-15 78h-5q-31 -55 -72 -71.5t-89 -16.5z
M349 606v13q21 32 45 72.5t40 74.5h112v-10q-10 -18 -36 -46.5t-55 -57t-52 -46.5h-54zM166 606v13q21 32 45 72.5t40 74.5h113v-10q-10 -18 -36 -46.5t-55 -57t-52 -46.5h-55z" />
    <glyph glyph-name="Uogonek" unicode="&#x172;" horiz-adv-x="734" 
d="M378 -10q-122 0 -190.5 52t-68.5 175v386q0 43 -22 54.5t-51 11.5h-22v45h306v-45h-21q-30 0 -51.5 -12t-21.5 -58v-389q0 -86 45 -121.5t117 -35.5q81 0 121 41.5t40 112.5v396q0 43 -21.5 54.5t-51.5 11.5h-21v45h254v-45h-21q-31 0 -52.5 -12t-21.5 -58v-394
q0 -101 -62 -158t-184 -57zM416 -240q-67 0 -104 26.5t-37 83.5q0 31 17 58t43.5 46t57.5 26h63q-21 -6 -42.5 -21.5t-36 -39t-14.5 -54.5t19.5 -45.5t49.5 -14.5q13 0 29 2t34 6v-57q-16 -8 -39.5 -12t-39.5 -4z" />
    <glyph glyph-name="uogonek" unicode="&#x173;" horiz-adv-x="644" 
d="M269 -10q-79 0 -121.5 47t-42.5 150v235q0 44 -22 56.5t-56 12.5h-3v45h191v-338q0 -65 20.5 -101.5t76.5 -36.5q61 0 88.5 43.5t27.5 115.5v202q0 31 -11 46t-29 19.5t-39 4.5h-3v45h192v-425q0 -44 23 -55t55 -11h4v-45h-170l-15 78h-5q-31 -55 -72 -71.5t-89 -16.5z
M473 -240q-67 0 -104 26.5t-37 83.5q0 31 17 58t44 46t57 26h63q-21 -6 -42.5 -21.5t-36 -39t-14.5 -54.5t19.5 -45.5t49.5 -14.5q13 0 29 2t34 6v-57q-16 -8 -39.5 -12t-39.5 -4z" />
    <glyph glyph-name="Wcircumflex" unicode="&#x174;" horiz-adv-x="1053" 
d="M274 0l-183 616q-10 32 -26 42.5t-45 10.5h-13v45h291v-45h-23q-60 0 -60 -48q0 -8 2.5 -19t5.5 -23l85 -295q13 -43 24 -88.5t18 -80.5q8 37 17.5 78.5t21.5 84.5l122 429h73l128 -419q15 -49 27 -95t18 -78q7 36 17 79t23 91l78 283q3 12 7 28.5t4 24.5q0 48 -66 48
h-23v45h249v-45h-19q-29 0 -45.5 -14.5t-30.5 -63.5l-165 -591h-97l-164 535l-151 -535h-100zM392 771v13q16 19 36 45t38 53t29 49h106q11 -22 29 -49t38 -53t36 -45v-13h-48q-26 16 -56 41.5t-53 48.5q-23 -23 -52 -48.5t-56 -41.5h-47z" />
    <glyph glyph-name="wcircumflex" unicode="&#x175;" horiz-adv-x="860" 
d="M204 0l-130 438q-11 32 -26.5 42.5t-44.5 10.5h-3v45h260v-45h-13q-30 0 -45 -8.5t-15 -33.5q0 -8 2.5 -20t5.5 -23l44 -158q10 -36 19.5 -79.5t13.5 -68.5h3q5 25 15.5 61.5t23.5 73.5l103 297h64l99 -295q12 -36 23 -75t16 -62h3q8 47 35 135l49 157q4 13 6.5 27.5
t2.5 22.5q0 49 -66 49h-7v45h218v-45h-13q-29 0 -44.5 -14.5t-30.5 -63.5l-129 -413h-88l-129 394l-135 -394h-87zM293 606v13q16 19 36 45t38 53t29 49h106q11 -22 29 -49t38 -53t36 -45v-13h-48q-26 16 -56 41.5t-53 48.5q-23 -23 -52 -48.5t-56 -41.5h-47z" />
    <glyph glyph-name="Ycircumflex" unicode="&#x176;" horiz-adv-x="644" 
d="M160 0v45h30q31 0 53 10.5t22 54.5v176l-185 330q-16 28 -30 40.5t-41 12.5h-13v45h292v-45h-32q-28 0 -38 -10.5t-10 -25.5q0 -13 5.5 -27.5t11.5 -25.5l74 -138q17 -31 29 -59.5t20 -51.5q9 23 25 53.5t33 62.5l62 117q10 18 14 33.5t4 26.5q0 45 -62 45h-27v45h249
v-45h-14q-22 0 -39 -16t-42 -62l-169 -306v-171q0 -46 22 -57.5t53 -11.5h30v-45h-327zM169 771v13q16 19 36 45t38 53t29 49h106q11 -22 29 -49t38 -53t36 -45v-13h-48q-26 16 -56 41.5t-53 48.5q-23 -23 -52 -48.5t-56 -41.5h-47z" />
    <glyph glyph-name="ycircumflex" unicode="&#x177;" horiz-adv-x="569" 
d="M35 -240v50q68 0 111.5 25t69.5 68t43 99l-184 437q-13 30 -27.5 40t-41.5 10h-3v47h252v-45h-3q-60 0 -60 -45q0 -17 9 -38l72 -179q14 -35 26 -73t16 -61q5 26 16 56t19 54l67 195q5 11 7 23.5t2 20.5q0 47 -67 47h-3v45h213v-45h-3q-29 0 -44.5 -15.5t-31.5 -61.5
l-152 -417q-26 -73 -50 -119.5t-54 -72t-74.5 -35.5t-113.5 -10h-11zM140 606v13q16 19 36 45t38 53t29 49h106q11 -22 29 -49t38 -53t36 -45v-13h-48q-26 16 -56 41.5t-53 48.5q-23 -23 -52 -48.5t-56 -41.5h-47z" />
    <glyph glyph-name="Ydieresis" unicode="&#x178;" horiz-adv-x="644" 
d="M160 0v45h30q31 0 53 10.5t22 54.5v176l-185 330q-16 28 -30 40.5t-41 12.5h-13v45h292v-45h-32q-28 0 -38 -10.5t-10 -25.5q0 -13 5.5 -27.5t11.5 -25.5l74 -138q17 -31 29 -59.5t20 -51.5q9 23 25 53.5t33 62.5l62 117q10 18 14 33.5t4 26.5q0 45 -62 45h-27v45h249
v-45h-14q-22 0 -39 -16t-42 -62l-169 -306v-171q0 -46 22 -57.5t53 -11.5h30v-45h-327zM428 795q-23 0 -38 13t-15 45t15 45t38 13q22 0 37.5 -13t15.5 -45t-15.5 -45t-37.5 -13zM234 795q-23 0 -38 13t-15 45t15 45t38 13q22 0 37.5 -13t15.5 -45t-15.5 -45t-37.5 -13z" />
    <glyph glyph-name="Zacute" unicode="&#x179;" horiz-adv-x="612" 
d="M38 0v43l375 618h-212q-45 0 -61.5 -24.5t-20.5 -60.5l-5 -46h-57l5 184h490v-44l-376 -617h242q50 0 67.5 26.5t21.5 60.5l5 44h58l-5 -184h-527zM248 771v13q14 19 31 45t33 53t26 49h121v-10q-13 -18 -41.5 -46.5t-62 -57t-61.5 -46.5h-46z" />
    <glyph glyph-name="zacute" unicode="&#x17a;" horiz-adv-x="516" 
d="M35 0v40l292 436h-153q-35 0 -48.5 -19t-23.5 -59l-2 -10h-47l10 148h397v-42l-293 -434h181q33 0 46.5 23.5t20.5 58.5l5 25h47l-5 -167h-427zM207 606v13q14 19 31 45t33 53t26 49h121v-10q-13 -18 -41.5 -46.5t-62 -57t-61.5 -46.5h-46z" />
    <glyph glyph-name="Zdotaccent" unicode="&#x17b;" horiz-adv-x="612" 
d="M38 0v43l375 618h-212q-45 0 -61.5 -24.5t-20.5 -60.5l-5 -46h-57l5 184h490v-44l-376 -617h242q50 0 67.5 26.5t21.5 60.5l5 44h58l-5 -184h-527zM322 798q-28 0 -46.5 15t-18.5 50q0 36 18.5 50.5t46.5 14.5q26 0 45.5 -14.5t19.5 -50.5q0 -35 -19.5 -50t-45.5 -15z
" />
    <glyph glyph-name="zdotaccent" unicode="&#x17c;" horiz-adv-x="516" 
d="M35 0v40l292 436h-153q-35 0 -48.5 -19t-23.5 -59l-2 -10h-47l10 148h397v-42l-293 -434h181q33 0 46.5 23.5t20.5 58.5l5 25h47l-5 -167h-427zM271 633q-28 0 -46.5 15t-18.5 50q0 36 18.5 50.5t46.5 14.5q26 0 45.5 -14.5t19.5 -50.5q0 -35 -19.5 -50t-45.5 -15z" />
    <glyph glyph-name="Zcaron" unicode="&#x17d;" horiz-adv-x="612" 
d="M38 0v43l375 618h-212q-45 0 -61.5 -24.5t-20.5 -60.5l-5 -46h-57l5 184h490v-44l-376 -617h242q50 0 67.5 26.5t21.5 60.5l5 44h58l-5 -184h-527zM261 771q-11 22 -29 49t-38 53t-36 45v13h47q27 -17 56 -42.5t52 -48.5q23 23 53 48.5t56 42.5h48v-13q-16 -19 -36 -45
t-38 -53t-29 -49h-106z" />
    <glyph glyph-name="zcaron" unicode="&#x17e;" horiz-adv-x="516" 
d="M35 0v40l292 436h-153q-35 0 -48.5 -19t-23.5 -59l-2 -10h-47l10 148h397v-42l-293 -434h181q33 0 46.5 23.5t20.5 58.5l5 25h47l-5 -167h-427zM218 606q-11 22 -29 49t-38 53t-36 45v13h47q27 -17 56 -42.5t52 -48.5q23 23 53 48.5t56 42.5h48v-13q-16 -19 -36 -45
t-38 -53t-29 -49h-106z" />
    <glyph glyph-name="longs" unicode="&#x17f;" horiz-adv-x="365" 
d="M11 0v45h16q20 0 38 5t29.5 19.5t11.5 45.5v467q0 91 48 139.5t136 48.5q83 0 115.5 -20t32.5 -51q0 -29 -25 -44t-69 -15q0 28 -13 54.5t-48 26.5q-38 0 -52.5 -31.5t-14.5 -95.5v-479q0 -31 11 -45.5t29 -19.5t39 -5h40v-45h-324z" />
    <glyph glyph-name="florin" unicode="&#x192;" horiz-adv-x="559" 
d="M135 -240q-17 0 -37 2.5t-33 6.5v51q12 -4 25.5 -6.5t27.5 -2.5q46 0 65.5 40.5t19.5 140.5v401h-100v53h100v92q0 86 45 136t126 50q73 0 108.5 -24.5t35.5 -62.5q0 -28 -21.5 -43t-60.5 -15q-3 41 -15.5 68.5t-44.5 27.5q-63 0 -63 -122v-107h130v-53h-130v-401
q0 -90 -21 -140.5t-61 -71t-96 -20.5z" />
    <glyph glyph-name="Aringacute" unicode="&#x1fa;" horiz-adv-x="718" 
d="M311 830v10q22 23 48 57t42 61h121v-8q-13 -14 -41.5 -37t-61.5 -46t-61 -37h-47zM1 0v45h17q28 0 44 13.5t33 56.5l205 489q-27 12 -43.5 36.5t-16.5 59.5q0 53 35 81t85 28t85 -28t35 -81q0 -34 -15 -57.5t-41 -36.5l207 -508q13 -32 29 -42.5t44 -10.5h14v-45h-290v45
h27q26 0 41 10t15 32q0 14 -8 35l-38 93h-259l-35 -85q-10 -25 -10 -42q0 -43 60 -43h29v-45h-249zM360 642q27 0 46 13.5t19 44.5q0 32 -19.5 45.5t-45.5 13.5t-45 -13.5t-19 -45.5t18.5 -45t45.5 -13zM229 268h214l-57 154q-14 37 -27 73.5t-21 69.5q-16 -58 -47 -136z
" />
    <glyph glyph-name="aringacute" unicode="&#x1fb;" horiz-adv-x="573" 
d="M233 830v10q22 23 47.5 57t41.5 61h121v-8q-13 -14 -41 -37t-61.5 -46t-61.5 -37h-46zM286 583q-50 0 -85 28t-35 81t35 81t85 28t85 -28t35 -81t-35 -81t-85 -28zM286 634q26 0 45 13t19 45t-19 45.5t-45 13.5t-45 -13.5t-19 -45.5t19 -45t45 -13zM204 -10
q-67 0 -111 39t-44 122q0 79 56 118t171 43l82 3v58q0 35 -5.5 62.5t-23.5 43t-55 15.5q-52 0 -68.5 -31t-16.5 -78q-49 0 -73.5 14.5t-24.5 49.5t25.5 56.5t67.5 31.5t94 10q95 0 142.5 -38.5t47.5 -133.5v-258q0 -42 14 -57t48 -15h3v-45h-149l-17 81h-9
q-21 -27 -41 -47.5t-46.5 -32t-66.5 -11.5zM236 55q56 0 89 37t33 99v79l-59 -3q-77 -3 -107 -33.5t-30 -87.5q0 -91 74 -91z" />
    <glyph glyph-name="AEacute" unicode="&#x1fc;" horiz-adv-x="963" 
d="M0 0v45h15q26 0 47 18.5t42 59.5l287 541l-75 5v45h569l4 -177h-57l-5 44q-4 34 -22 56.5t-59 23.5h-168v-262h240v-52h-240v-294h195q43 0 62 23.5t24 56.5l8 44h56l-7 -177h-549v45h21q32 0 52 13t21 52v126h-230l-51 -99q-8 -16 -12 -30t-4 -23q0 -39 60 -39h21v-45
h-245zM259 289h202v372h-13zM530 771v13q14 19 31 45t33 53t26 49h121v-10q-13 -18 -41.5 -46.5t-62 -57t-61.5 -46.5h-46z" />
    <glyph glyph-name="aeacute" unicode="&#x1fd;" horiz-adv-x="850" 
d="M204 -10q-67 0 -111 39t-44 122q0 79 56 118t171 43l82 3v58q0 35 -5.5 62.5t-23.5 43t-55 15.5q-52 0 -68.5 -31t-16.5 -78q-49 0 -73.5 14.5t-24.5 49.5t25.5 56.5t67.5 31.5t94 10q56 0 95 -14.5t62 -45.5q57 60 152 60q101 0 158.5 -60.5t57.5 -179.5v-47h-332
q2 -107 38.5 -155.5t110.5 -48.5q46 0 82.5 21t55.5 52q21 -9 21 -38q0 -22 -19.5 -45.5t-59 -39.5t-100.5 -16q-147 0 -205 109q-23 -47 -71.5 -78t-119.5 -31zM473 317h214q0 79 -22.5 126t-77.5 47q-52 0 -80.5 -44.5t-33.5 -128.5zM236 55q56 0 89 37t33 99v79l-59 -3
q-77 -3 -107 -33.5t-30 -87.5q0 -91 74 -91zM380 606v13q14 19 31 45t33 53t26 49h121v-10q-13 -18 -41.5 -46.5t-62 -57t-61.5 -46.5h-46z" />
    <glyph glyph-name="Oslashacute" unicode="&#x1fe;" horiz-adv-x="754" 
d="M319 771v13q14 19 31 45t33 53t26 49h121v-10q-13 -18 -41.5 -46.5t-62 -57t-61.5 -46.5h-46zM128 -40l50 90q-62 47 -92 126.5t-30 182.5q0 111 35.5 193t107 127.5t179.5 45.5q86 0 152 -34l35 64h61l-50 -92q59 -47 90.5 -125.5t31.5 -179.5q0 -111 -37.5 -193.5
t-109 -128.5t-174.5 -46q-87 0 -153 32l-33 -62h-63zM224 135l271 492q-44 41 -117 41q-106 0 -151 -81.5t-45 -228.5q0 -71 10 -127t32 -96zM377 47q107 0 150.5 82t43.5 229q0 70 -9.5 126t-31.5 96l-270 -493q44 -40 117 -40z" />
    <glyph glyph-name="oslashacute" unicode="&#x1ff;" horiz-adv-x="587" 
d="M234 606v13q14 19 31 45t33 53t26 49h121v-10q-13 -18 -41.5 -46.5t-62 -57t-61.5 -46.5h-46zM75 -40l53 86q-75 70 -75 223q0 141 61 209.5t181 68.5q72 0 124 -29l36 58h62l-55 -90q34 -34 53 -88t19 -129q0 -141 -61.5 -210t-180.5 -69q-34 0 -64 6t-55 20l-35 -56
h-63zM182 134l198 319q-32 38 -87 38q-71 0 -99 -55.5t-28 -166.5q0 -41 4 -75t12 -60zM294 45q70 0 98.5 57t28.5 167q0 77 -15 127l-196 -318q30 -33 84 -33z" />
    <glyph glyph-name="uni0218" unicode="&#x218;" horiz-adv-x="556" 
d="M252 -10q-109 0 -159 41t-50 100q0 35 23 54.5t60 19.5q2 -69 35 -116t101 -47q64 0 101 32.5t37 88.5q0 36 -15.5 61.5t-50.5 47t-93 45.5q-96 39 -140 90t-44 130q0 59 29.5 100.5t80.5 64t116 22.5q95 0 144.5 -34t49.5 -79q0 -33 -24 -51.5t-67 -18.5q0 30 -10.5 60
t-35 50t-65.5 20q-53 0 -84 -29t-31 -79q0 -37 14 -63.5t48 -49t95 -46.5q92 -38 140 -85t48 -123q0 -96 -68.5 -151t-184.5 -55zM193 -221v13q8 32 17 72t15 75h102v-10q-9 -21 -23.5 -48t-31.5 -54t-31 -48h-48z" />
    <glyph glyph-name="uni0219" unicode="&#x219;" horiz-adv-x="461" 
d="M216 -10q-85 0 -130 28.5t-45 80.5q0 29 12 44t28.5 21t30.5 6q0 -56 25.5 -92.5t82.5 -36.5q53 0 80 23.5t27 61.5q0 24 -10.5 40t-37.5 31t-75 35q-52 22 -86.5 43.5t-51.5 51t-17 73.5q0 71 53.5 108.5t141.5 37.5q78 0 116 -28t38 -64q0 -29 -20 -46t-60 -17
q0 50 -21.5 78t-65.5 28q-46 0 -68.5 -20.5t-22.5 -54.5q0 -37 28.5 -57.5t99.5 -47.5q75 -31 112.5 -66.5t37.5 -98.5q0 -80 -55 -121t-147 -41zM149 -221v13q8 32 17 72t15 75h102v-10q-9 -21 -23.5 -48t-31.5 -54t-31 -48h-48z" />
    <glyph glyph-name="circumflex" unicode="&#x2c6;" horiz-adv-x="392" 
d="M40 606v13q16 19 36 45t38 53t29 49h106q11 -22 29 -49t38 -53t36 -45v-13h-48q-26 16 -56 41.5t-53 48.5q-23 -23 -52 -48.5t-56 -41.5h-47z" />
    <glyph glyph-name="caron" unicode="&#x2c7;" horiz-adv-x="392" 
d="M143 606q-11 22 -29 49t-38 53t-36 45v13h47q27 -17 56 -42.5t52 -48.5q23 23 53 48.5t56 42.5h48v-13q-16 -19 -36 -45t-38 -53t-29 -49h-106z" />
    <glyph glyph-name="macron" unicode="&#x2c9;" horiz-adv-x="370" 
d="M40 613v65h290v-65h-290z" />
    <glyph glyph-name="breve" unicode="&#x2d8;" horiz-adv-x="371" 
d="M186 606q-49 0 -81 20t-48 53t-17 70h52q8 -36 32.5 -52t61.5 -16t61.5 16t32.5 52h51q-1 -37 -17 -70t-48 -53t-80 -20z" />
    <glyph glyph-name="dotaccent" unicode="&#x2d9;" horiz-adv-x="210" 
d="M105 633q-28 0 -46.5 15t-18.5 50q0 36 18.5 50.5t46.5 14.5q26 0 45.5 -14.5t19.5 -50.5q0 -35 -19.5 -50t-45.5 -15z" />
    <glyph glyph-name="ring" unicode="&#x2da;" horiz-adv-x="333" 
d="M166 596q-50 0 -85 28t-35 81t35 81t85 28t85 -28t35 -81t-35 -81t-85 -28zM166 647q26 0 45 13.5t19 44.5t-19 44.5t-45 13.5t-45 -13.5t-19 -44.5t19 -44.5t45 -13.5z" />
    <glyph glyph-name="ogonek" unicode="&#x2db;" horiz-adv-x="500" 
d="M307 -240q-67 0 -104 26.5t-37 83.5q0 31 17 58t44 46t57 26h63q-21 -6 -42.5 -21.5t-36 -39t-14.5 -54.5t19.5 -45.5t49.5 -14.5q13 0 29 2t34 6v-57q-16 -8 -39.5 -12t-39.5 -4z" />
    <glyph glyph-name="tilde" unicode="&#x2dc;" horiz-adv-x="447" 
d="M297 606q-27 0 -49 9.5t-40.5 22t-35 22t-32.5 9.5q-28 0 -37 -16.5t-12 -36.5h-51q3 50 30.5 88t81.5 38q27 0 48.5 -9.5t40 -22t35 -22t32.5 -9.5q27 0 36.5 16.5t12.5 36.5h50q-2 -33 -14.5 -61.5t-36.5 -46.5t-59 -18z" />
    <glyph glyph-name="hungarumlaut" unicode="&#x2dd;" horiz-adv-x="460" 
d="M223 606v13q21 32 45 72.5t40 74.5h112v-10q-10 -18 -36 -46.5t-55 -57t-52 -46.5h-54zM40 606v13q21 32 45 72.5t40 74.5h113v-10q-10 -18 -36 -46.5t-55 -57t-52 -46.5h-55z" />
    <glyph glyph-name="tonos" unicode="&#x384;" horiz-adv-x="577" 
d="M239 606v15q10 22 21.5 53.5t21.5 63.5t15 58h102v-12q-7 -20 -26.5 -53.5t-44.5 -67t-46 -57.5h-43z" />
    <glyph glyph-name="dieresistonos" unicode="&#x385;" horiz-adv-x="577" 
d="M249 681v13q7 18 15 44.5t15 53.5t10 49h97v-10q-5 -17 -21.5 -45t-37.5 -57t-38 -48h-40zM176 630q-20 0 -35 12.5t-15 40.5q0 29 15 41t35 12t35.5 -12t15.5 -41q0 -28 -15.5 -40.5t-35.5 -12.5zM398 630q-20 0 -35 12.5t-15 40.5q0 29 15 41t35 12t35.5 -12t15.5 -41
q0 -28 -15.5 -40.5t-35.5 -12.5z" />
    <glyph glyph-name="Alphatonos" unicode="&#x386;" horiz-adv-x="718" 
d="M1 0v45h17q28 0 44 15t33 62l221 592h94l221 -611q13 -35 29 -46.5t44 -11.5h14v-45h-290v45h27q26 0 41 11t15 35q0 9 -2.5 18t-5.5 20l-39 109h-258l-35 -100q-10 -27 -10 -47q0 -46 60 -46h29v-45h-249zM226 291h219l-59 172q-14 41 -27 81t-21 76q-8 -35 -19 -70.5
t-28 -78.5zM61 524v15q10 22 21.5 53.5t21.5 63.5t15 58h102v-12q-7 -20 -26.5 -53.5t-44.5 -67t-46 -57.5h-43z" />
    <glyph glyph-name="anoteleia" unicode="&#x387;" horiz-adv-x="275" 
d="M138 399q-28 0 -48 16.5t-20 55.5q0 40 20 55.5t48 15.5q27 0 47 -15.5t20 -55.5q0 -39 -20 -55.5t-47 -16.5z" />
    <glyph glyph-name="Epsilontonos" unicode="&#x388;" horiz-adv-x="724" 
d="M127 0v45h21q30 0 52 11t22 54v489q0 46 -21.5 58t-52.5 12h-21v45h518l5 -177h-57l-5 44q-4 34 -22 57t-59 23h-168v-262h240v-52h-240v-294h195q42 0 61.5 23.5t24.5 56.5l7 44h57l-7 -177h-550zM-51 524v15q10 22 21.5 53.5t21.5 63.5t15 58h102v-12
q-7 -20 -26.5 -53.5t-44.5 -67t-46 -57.5h-43z" />
    <glyph glyph-name="Etatonos" unicode="&#x389;" horiz-adv-x="891" 
d="M126 0v45h21q31 0 52.5 12t21.5 58v488q0 43 -22 54.5t-52 11.5h-21v45h306v-45h-21q-30 0 -52 -12t-22 -58v-200h308v200q0 46 -21.5 58t-52.5 12h-21v45h306v-45h-21q-30 0 -52 -12t-22 -58v-489q0 -43 22.5 -54t51.5 -11h21v-45h-306v45h21q31 0 52.5 12t21.5 58v231
h-308v-231q0 -46 22 -58t52 -12h21v-45h-306zM-51 524v15q10 22 21.5 53.5t21.5 63.5t15 58h102v-12q-7 -20 -26.5 -53.5t-44.5 -67t-46 -57.5h-43z" />
    <glyph glyph-name="Iotatonos" unicode="&#x38a;" horiz-adv-x="467" 
d="M126 0v45h21q31 0 52.5 12t21.5 58v484q0 46 -21.5 58t-52.5 12h-21v45h306v-45h-21q-30 0 -51.5 -12t-21.5 -58v-484q0 -46 21.5 -58t51.5 -12h21v-45h-306zM-51 524v15q10 22 21.5 53.5t21.5 63.5t15 58h102v-12q-7 -20 -26.5 -53.5t-44.5 -67t-46 -57.5h-43z" />
    <glyph glyph-name="Omicrontonos" unicode="&#x38c;" horiz-adv-x="756" 
d="M379 -10q-108 0 -179.5 46t-106.5 129t-35 194t35.5 193t107 127.5t179.5 45.5q102 0 173.5 -45.5t109 -128t37.5 -193.5t-37.5 -193.5t-109 -128.5t-174.5 -46zM379 47q107 0 150.5 82t43.5 229t-43.5 228.5t-149.5 81.5t-151 -81.5t-45 -228.5t44.5 -229t150.5 -82z
M-41 524v15q10 22 21.5 53.5t21.5 63.5t15 58h102v-12q-7 -20 -26.5 -53.5t-44.5 -67t-46 -57.5h-43z" />
    <glyph glyph-name="Upsilontonos" unicode="&#x38e;" horiz-adv-x="773" 
d="M289 0v45h30q31 0 53 10.5t22 54.5v176l-185 330q-16 28 -30 40.5t-41 12.5h-13v45h292v-45h-32q-28 0 -38 -10.5t-10 -25.5q0 -13 5.5 -27.5t11.5 -25.5l74 -138q17 -31 29 -59.5t20 -51.5q9 23 25 53.5t33 62.5l62 117q10 18 14 33.5t4 26.5q0 45 -62 45h-27v45h249
v-45h-14q-22 0 -39 -16t-42 -62l-169 -306v-171q0 -46 22 -57.5t53 -11.5h30v-45h-327zM-53 524v15q10 22 21.5 53.5t21.5 63.5t15 58h102v-12q-7 -20 -26.5 -53.5t-44.5 -67t-46 -57.5h-43z" />
    <glyph glyph-name="Omegatonos" unicode="&#x38f;" horiz-adv-x="777" 
d="M-38 524v15q10 22 21.5 53.5t21.5 63.5t15 58h102v-12q-7 -20 -26.5 -53.5t-44.5 -67t-46 -57.5h-43zM59 0l-7 182h52l8 -33q7 -33 27.5 -47.5t69.5 -14.5h97l-3 88q-112 21 -171.5 89.5t-59.5 176.5q0 85 35.5 149t107 99.5t180.5 35.5q102 0 173.5 -35.5t109 -99.5
t37.5 -149q0 -108 -60 -176.5t-172 -90.5l-2 -87h96q49 0 69.5 14.5t28.5 47.5l7 33h53l-7 -182h-305l7 218q85 10 121 68t36 156q0 107 -43.5 166.5t-149.5 59.5t-150.5 -59.5t-44.5 -166.5q0 -98 35.5 -156t120.5 -68l7 -218h-303z" />
    <glyph glyph-name="iotadieresistonos" unicode="&#x390;" horiz-adv-x="350" 
d="M241 -10q-71 0 -107.5 34.5t-36.5 120.5v391h109v-388q0 -50 20 -73.5t54 -23.5q18 0 34 2t32 5v-51q-13 -6 -41.5 -11.5t-63.5 -5.5zM127 681v13q7 18 15 44.5t15 53.5t10 49h97v-10q-5 -17 -21.5 -45t-37.5 -57t-38 -48h-40zM54 630q-20 0 -35 12.5t-15 40.5
q0 29 15 41t35 12t35.5 -12t15.5 -41q0 -28 -15.5 -40.5t-35.5 -12.5zM276 630q-20 0 -35 12.5t-15 40.5q0 29 15 41t35 12t35.5 -12t15.5 -41q0 -28 -15.5 -40.5t-35.5 -12.5z" />
    <glyph glyph-name="Alpha" unicode="&#x391;" horiz-adv-x="718" 
d="M1 0v45h17q28 0 44 15t33 62l221 592h94l221 -611q13 -35 29 -46.5t44 -11.5h14v-45h-290v45h27q26 0 41 11t15 35q0 9 -2.5 18t-5.5 20l-39 109h-258l-35 -100q-10 -27 -10 -47q0 -46 60 -46h29v-45h-249zM226 291h219l-59 172q-14 41 -27 81t-21 76q-8 -35 -19 -70.5
t-28 -78.5z" />
    <glyph glyph-name="Beta" unicode="&#x392;" horiz-adv-x="659" 
d="M35 0v45h21q31 0 52.5 12t21.5 58v487q0 43 -22 55t-52 12h-21v45h275q134 0 199.5 -43.5t65.5 -136.5q0 -67 -35.5 -102.5t-89.5 -52.5v-5q69 -14 112 -58.5t43 -121.5q0 -194 -265 -194h-305zM246 400h61q83 0 113.5 32t30.5 102q0 72 -33 99.5t-113 27.5h-59v-261z
M246 53h89q79 0 112.5 32.5t33.5 111.5q0 77 -30.5 113.5t-113.5 36.5h-91v-294z" />
    <glyph glyph-name="Gamma" unicode="&#x393;" horiz-adv-x="569" 
d="M35 0v45h21q31 0 52.5 12t21.5 58v484q0 46 -21.5 58t-52.5 12h-21v45h511l6 -181h-53l-6 39q-7 42 -26.5 65.5t-72.5 23.5h-147v-550q0 -43 22 -54.5t51 -11.5h41v-45h-326z" />
    <glyph glyph-name="uni0394" unicode="&#x394;" horiz-adv-x="633" 
d="M36 0v56l234 658h102l225 -651v-63h-561zM110 70h364l-129 388q-15 44 -28 85.5t-21 77.5q-8 -36 -19 -71.5t-28 -82.5z" />
    <glyph glyph-name="Epsilon" unicode="&#x395;" horiz-adv-x="631" 
d="M35 0v45h21q30 0 52 11t22 54v489q0 46 -21.5 58t-52.5 12h-21v45h518l5 -177h-57l-5 44q-4 34 -22 57t-59 23h-168v-262h240v-52h-240v-294h195q42 0 61.5 23.5t24.5 56.5l7 44h57l-7 -177h-550z" />
    <glyph glyph-name="Zeta" unicode="&#x396;" horiz-adv-x="612" 
d="M38 0v43l375 618h-212q-45 0 -61.5 -24.5t-20.5 -60.5l-5 -46h-57l5 184h490v-44l-376 -617h242q50 0 67.5 26.5t21.5 60.5l5 44h58l-5 -184h-527z" />
    <glyph glyph-name="Eta" unicode="&#x397;" horiz-adv-x="800" 
d="M35 0v45h21q31 0 52.5 12t21.5 58v488q0 43 -22 54.5t-52 11.5h-21v45h306v-45h-21q-30 0 -52 -12t-22 -58v-200h308v200q0 46 -21.5 58t-52.5 12h-21v45h306v-45h-21q-30 0 -52 -12t-22 -58v-489q0 -43 22.5 -54t51.5 -11h21v-45h-306v45h21q31 0 52.5 12t21.5 58v231
h-308v-231q0 -46 22 -58t52 -12h21v-45h-306z" />
    <glyph glyph-name="Theta" unicode="&#x398;" horiz-adv-x="754" 
d="M377 -10q-108 0 -179.5 46t-106.5 129t-35 194t35.5 193t107 127.5t179.5 45.5q102 0 173.5 -45.5t109 -128t37.5 -193.5t-37.5 -193.5t-109 -128.5t-174.5 -46zM377 47q107 0 150.5 82t43.5 229t-43.5 228.5t-149.5 81.5t-151 -81.5t-45 -228.5t44.5 -229t150.5 -82z
M236 273v183h45l5 -19q6 -22 20.5 -34t59.5 -12h20q40 0 58.5 12.5t23.5 33.5l5 19h45v-183h-45l-5 19q-5 21 -23.5 33.5t-58.5 12.5h-20q-45 0 -59.5 -12t-20.5 -34l-5 -19h-45z" />
    <glyph glyph-name="Iota" unicode="&#x399;" horiz-adv-x="376" 
d="M35 0v45h21q31 0 52.5 12t21.5 58v484q0 46 -21.5 58t-52.5 12h-21v45h306v-45h-21q-30 0 -51.5 -12t-21.5 -58v-484q0 -46 21.5 -58t51.5 -12h21v-45h-306z" />
    <glyph glyph-name="Kappa" unicode="&#x39a;" horiz-adv-x="709" 
d="M35 0v45h21q30 0 52 11t22 54v493q0 43 -22 54.5t-52 11.5h-21v45h306v-45h-21q-30 0 -52 -12t-22 -58v-269l193 219q32 36 44 58.5t12 38.5q0 24 -51 24v44h234v-44q-36 0 -67 -25t-69 -67l-142 -158l204 -295q29 -41 56 -60.5t56 -19.5h2v-45h-23q-52 0 -85.5 4.5
t-55.5 15t-38.5 28t-33.5 43.5l-162 242l-74 -60v-158q0 -46 22 -58t52 -12h21v-45h-306z" />
    <glyph glyph-name="Lambda" unicode="&#x39b;" horiz-adv-x="681" 
d="M1 0v45h27q25 0 38.5 14.5t29.5 62.5l206 592h81l215 -617q10 -31 26.5 -41.5t41.5 -10.5h16v-45h-290v45h29q54 0 54 44q0 17 -8 39l-108 322q-13 38 -23 77t-17 73q-6 -31 -17.5 -69.5t-24.5 -79.5l-108 -316q-4 -12 -7 -24.5t-3 -20.5q0 -45 59 -45h31v-45h-248z" />
    <glyph glyph-name="Mu" unicode="&#x39c;" horiz-adv-x="942" 
d="M35 0v45h21q30 0 52 11t22 54v493q0 43 -22 54.5t-52 11.5h-21v45h245l195 -547l193 547h239v-45h-21q-31 0 -52.5 -12t-21.5 -58v-484q0 -46 21.5 -58t52.5 -12h21v-45h-281v45h5q31 0 49 10.5t20 50.5v526l-221 -632h-58l-226 631v-516q0 -46 19 -58t53 -12h4v-45h-236
z" />
    <glyph glyph-name="Nu" unicode="&#x39d;" horiz-adv-x="770" 
d="M35 0v45h21q31 0 52.5 12t21.5 58v488q0 43 -22 54.5t-52 11.5h-21v45h194l357 -538v427q0 43 -22.5 54.5t-51.5 11.5h-21v45h254v-45h-21q-30 0 -52 -12t-22 -58v-599h-76l-379 569v-454q0 -46 21.5 -58t51.5 -12h21v-45h-254z" />
    <glyph glyph-name="Xi" unicode="&#x39e;" horiz-adv-x="624" 
d="M69 521l5 193h476l5 -193h-55l-4 30q-4 30 -21.5 52.5t-62.5 22.5h-200q-45 0 -62.5 -22.5t-21.5 -52.5l-4 -30h-55zM156 272v190h45l5 -19q6 -22 20.5 -34t59.5 -12h50q40 0 58.5 12.5t23.5 33.5l5 19h45v-190h-45l-5 19q-5 21 -23.5 33.5t-58.5 12.5h-50
q-45 0 -59.5 -12t-20.5 -34l-5 -19h-45zM44 0l-5 205h55l4 -30q4 -30 21.5 -52.5t62.5 -22.5h260q45 0 62.5 22.5t21.5 52.5l4 30h55l-5 -205h-536z" />
    <glyph glyph-name="Omicron" unicode="&#x39f;" horiz-adv-x="754" 
d="M377 -10q-108 0 -179.5 46t-106.5 129t-35 194t35.5 193t107 127.5t179.5 45.5q102 0 173.5 -45.5t109 -128t37.5 -193.5t-37.5 -193.5t-109 -128.5t-174.5 -46zM377 47q107 0 150.5 82t43.5 229t-43.5 228.5t-149.5 81.5t-151 -81.5t-45 -228.5t44.5 -229t150.5 -82z
" />
    <glyph glyph-name="Pi" unicode="&#x3a0;" horiz-adv-x="776" 
d="M35 0v45h21q31 0 52.5 12t21.5 58v488q0 43 -22 54.5t-52 11.5h-21v45h705v-45h-21q-30 0 -51.5 -12t-21.5 -58v-489q0 -43 22 -54t51 -11h21v-45h-305v45h21q30 0 51.5 12t21.5 58v546h-283v-546q0 -46 22 -58t52 -12h21v-45h-306z" />
    <glyph glyph-name="Rho" unicode="&#x3a1;" horiz-adv-x="613" 
d="M35 0v45h21q31 0 52.5 12t21.5 58v488q0 43 -22 54.5t-52 11.5h-21v45h288q130 0 192 -56t62 -154q0 -60 -26.5 -111.5t-87.5 -83.5t-162 -32h-55v-167q0 -43 22.5 -54t51.5 -11h41v-45h-326zM246 327h45q86 0 123.5 39.5t37.5 133.5q0 83 -33 123t-113 40h-60v-336z" />
    <glyph glyph-name="Sigma" unicode="&#x3a3;" horiz-adv-x="613" 
d="M23 0v40l207 309l-185 333v32h477l5 -178h-54l-5 46q-4 33 -23.5 55.5t-64.5 22.5h-204l145 -262v-15l-191 -283h289q47 0 68 27t26 68l4 30h54l-5 -225h-543z" />
    <glyph glyph-name="Tau" unicode="&#x3a4;" horiz-adv-x="624" 
d="M151 0v45h28q30 0 52 11.5t22 54.5v550h-92q-44 0 -61 -23t-21 -56l-6 -48h-56l5 180h580l5 -180h-56l-6 48q-4 33 -21 56t-62 23h-92v-546q0 -46 21.5 -58t51.5 -12h28v-45h-320z" />
    <glyph glyph-name="Upsilon" unicode="&#x3a5;" horiz-adv-x="644" 
d="M160 0v45h30q31 0 53 10.5t22 54.5v176l-185 330q-16 28 -30 40.5t-41 12.5h-13v45h292v-45h-32q-28 0 -38 -10.5t-10 -25.5q0 -13 5.5 -27.5t11.5 -25.5l74 -138q17 -31 29 -59.5t20 -51.5q9 23 25 53.5t33 62.5l62 117q10 18 14 33.5t4 26.5q0 45 -62 45h-27v45h249
v-45h-14q-22 0 -39 -16t-42 -62l-169 -306v-171q0 -46 22 -57.5t53 -11.5h30v-45h-327z" />
    <glyph glyph-name="Phi" unicode="&#x3a6;" horiz-adv-x="790" 
d="M244 0v45h13q34 0 58 12t24 57v20h-32q-76 0 -128.5 20t-85 54t-47 76t-14.5 87q0 97 61.5 158t190.5 61h55v10q0 45 -24 57t-58 12h-13v45h300v-45h-13q-34 0 -58 -12t-24 -57v-10h55q129 0 190.5 -61t61.5 -158q0 -45 -14.5 -87t-47 -76t-85 -54t-128.5 -20h-32v-20
q0 -45 24 -57t58 -12h13v-45h-300zM314 184h25v355h-39q-81 0 -114.5 -44t-33.5 -128q0 -95 38 -139t124 -44zM449 184h24q87 0 125 44t38 139q0 84 -33.5 128t-114.5 44h-39v-355z" />
    <glyph glyph-name="Chi" unicode="&#x3a7;" horiz-adv-x="680" 
d="M9 0v45h6q36 0 56.5 16.5t47.5 53.5l169 236l-165 265q-34 53 -86 53h-13v45h287v-45h-3q-34 0 -45.5 -8.5t-11.5 -20.5q0 -10 4.5 -22.5t19.5 -36.5l88 -140l93 138q10 17 18 32t8 29q0 18 -16 23.5t-39 5.5h-3v45h223v-45h-9q-29 0 -49.5 -15.5t-49.5 -56.5l-145 -206
l184 -293q21 -30 41 -41.5t39 -11.5h13v-45h-286v45h5q60 0 60 33q0 11 -6 23.5t-27 45.5l-97 154l-110 -160q-9 -13 -17.5 -30.5t-8.5 -33.5q0 -32 63 -32h3v-45h-241z" />
    <glyph glyph-name="Psi" unicode="&#x3a8;" horiz-adv-x="869" 
d="M284 0v45h13q34 0 58 12t24 57v132h-34q-77 0 -126 18.5t-75.5 50.5t-36.5 72.5t-10 85.5v124q0 47 -24 59.5t-58 12.5v45h194v-236q0 -64 12 -104t44 -59t92 -19h22v304q0 45 -24 57t-58 12h-13v45h300v-45h-13q-34 0 -58 -12t-24 -57v-304h23q60 0 92 19t44 59t12 104
v236h194v-45q-34 0 -58 -12.5t-24 -59.5v-124q0 -45 -10 -85.5t-37 -72.5t-76 -50.5t-126 -18.5h-34v-132q0 -45 24 -57t58 -12h13v-45h-300z" />
    <glyph glyph-name="uni03A9" unicode="&#x3a9;" horiz-adv-x="768" 
d="M50 0l-7 182h52l8 -33q7 -33 27.5 -47.5t69.5 -14.5h97l-3 88q-112 21 -171.5 89.5t-59.5 176.5q0 85 35.5 149t107 99.5t180.5 35.5q102 0 173.5 -35.5t109 -99.5t37.5 -149q0 -108 -60 -176.5t-172 -90.5l-2 -87h96q49 0 69.5 14.5t28.5 47.5l7 33h53l-7 -182h-305
l7 218q85 10 121 68t36 156q0 107 -43.5 166.5t-149.5 59.5t-150.5 -59.5t-44.5 -166.5q0 -98 35.5 -156t120.5 -68l7 -218h-303z" />
    <glyph glyph-name="Iotadieresis" unicode="&#x3aa;" horiz-adv-x="376" 
d="M35 0v45h21q31 0 52.5 12t21.5 58v484q0 46 -21.5 58t-52.5 12h-21v45h306v-45h-21q-30 0 -51.5 -12t-21.5 -58v-484q0 -46 21.5 -58t51.5 -12h21v-45h-306zM283 795q-23 0 -38 13t-15 45t15 45t38 13q22 0 37.5 -13t15.5 -45t-15.5 -45t-37.5 -13zM89 795q-23 0 -38 13
t-15 45t15 45t38 13q22 0 37.5 -13t15.5 -45t-15.5 -45t-37.5 -13z" />
    <glyph glyph-name="Upsilondieresis" unicode="&#x3ab;" horiz-adv-x="644" 
d="M160 0v45h30q31 0 53 10.5t22 54.5v176l-185 330q-16 28 -30 40.5t-41 12.5h-13v45h292v-45h-32q-28 0 -38 -10.5t-10 -25.5q0 -13 5.5 -27.5t11.5 -25.5l74 -138q17 -31 29 -59.5t20 -51.5q9 23 25 53.5t33 62.5l62 117q10 18 14 33.5t4 26.5q0 45 -62 45h-27v45h249
v-45h-14q-22 0 -39 -16t-42 -62l-169 -306v-171q0 -46 22 -57.5t53 -11.5h30v-45h-327zM428 795q-23 0 -38 13t-15 45t15 45t38 13q22 0 37.5 -13t15.5 -45t-15.5 -45t-37.5 -13zM234 795q-23 0 -38 13t-15 45t15 45t38 13q22 0 37.5 -13t15.5 -45t-15.5 -45t-37.5 -13z" />
    <glyph glyph-name="alphatonos" unicode="&#x3ac;" horiz-adv-x="621" 
d="M257 -10q-99 0 -151.5 66.5t-52.5 210.5q0 145 60 212t159 67q59 0 95.5 -29.5t55.5 -73.5h7q8 25 20 49t29 44h65q-6 -20 -12 -54t-10 -72.5t-4 -71.5v-202q0 -44 21 -67.5t61 -23.5h8v-45h-84q-38 0 -60.5 14t-34 35t-15.5 43h-4q-22 -44 -58 -73t-95 -29zM281 57
q49 0 76.5 33.5t39 90.5t11.5 128v38q-13 71 -45.5 102.5t-72.5 31.5q-65 0 -94.5 -54.5t-29.5 -160.5q0 -105 26.5 -157t88.5 -52zM260 606v15q10 22 21.5 53.5t21.5 63.5t15 58h102v-12q-7 -20 -26.5 -53.5t-44.5 -67t-46 -57.5h-43z" />
    <glyph glyph-name="epsilontonos" unicode="&#x3ad;" horiz-adv-x="507" 
d="M238 606v15q10 22 21.5 53.5t21.5 63.5t15 58h102v-12q-7 -20 -26.5 -53.5t-44.5 -67t-46 -57.5h-43zM261 -10q-109 0 -160.5 45.5t-51.5 111.5q0 40 16.5 65.5t42.5 41t55 25.5v5q-45 14 -71 47t-26 74q0 68 56 104.5t157 36.5q90 0 132.5 -30t42.5 -67q0 -60 -95 -60
q0 50 -23 79t-69 29q-52 0 -71 -27.5t-19 -65.5q0 -39 20 -65.5t62 -30.5q19 4 42 8.5t40 4.5q19 0 30.5 -8.5t11.5 -26.5q0 -19 -16 -31t-44 -12q-15 0 -42 4.5t-42 11.5q-33 -8 -55 -35.5t-22 -70.5q0 -97 129 -97q59 0 99 21.5t63 49.5q7 -3 13.5 -13t6.5 -23
q0 -25 -21 -48t-67.5 -38t-123.5 -15z" />
    <glyph glyph-name="etatonos" unicode="&#x3ae;" horiz-adv-x="619" 
d="M432 -240q-6 12 -10.5 44t-6.5 69t-2 68v410q0 62 -26 94t-67 32q-64 0 -88.5 -50.5t-24.5 -138.5v-288h-110v339q0 62 -6.5 112.5t-19.5 84.5h77q29 -41 43 -91h5q22 40 57.5 71t97.5 31q87 0 129.5 -46.5t42.5 -149.5v-421q0 -24 2.5 -59.5t6.5 -66.5t10 -44h-110z
M283 606v15q10 22 21.5 53.5t21.5 63.5t15 58h102v-12q-7 -20 -26.5 -53.5t-44.5 -67t-46 -57.5h-43z" />
    <glyph glyph-name="iotatonos" unicode="&#x3af;" horiz-adv-x="350" 
d="M241 -10q-71 0 -107.5 34.5t-36.5 120.5v391h109v-388q0 -50 20 -73.5t54 -23.5q18 0 34 2t32 5v-51q-13 -6 -41.5 -11.5t-63.5 -5.5zM110 606v15q10 22 21.5 53.5t21.5 63.5t15 58h102v-12q-7 -20 -26.5 -53.5t-44.5 -67t-46 -57.5h-43z" />
    <glyph glyph-name="upsilondieresistonos" unicode="&#x3b0;" horiz-adv-x="604" 
d="M313 -10q-105 0 -156.5 56.5t-51.5 155.5v223q0 43 -24 54.5t-57 11.5h-4v45h194v-327q0 -77 32 -114.5t89 -37.5q59 0 92 30.5t46 83.5t13 122q0 58 -15.5 96.5t-38.5 60.5t-45 28q0 30 17 48t44 18q34 0 57 -32t35 -84t12 -112q0 -62 -11 -120.5t-37.5 -105t-73 -73.5
t-117.5 -27zM270 681v13q7 18 15 44.5t15 53.5t10 49h97v-10q-5 -17 -21.5 -45t-37.5 -57t-38 -48h-40zM197 630q-20 0 -35 12.5t-15 40.5q0 29 15 41t35 12t35.5 -12t15.5 -41q0 -28 -15.5 -40.5t-35.5 -12.5zM419 630q-20 0 -35 12.5t-15 40.5q0 29 15 41t35 12t35.5 -12
t15.5 -41q0 -28 -15.5 -40.5t-35.5 -12.5z" />
    <glyph glyph-name="alpha" unicode="&#x3b1;" horiz-adv-x="621" 
d="M257 -10q-99 0 -151.5 66.5t-52.5 210.5q0 145 60 212t159 67q59 0 95.5 -29.5t55.5 -73.5h7q8 25 20 49t29 44h65q-6 -20 -12 -54t-10 -72.5t-4 -71.5v-202q0 -44 21 -67.5t61 -23.5h8v-45h-84q-38 0 -60.5 14t-34 35t-15.5 43h-4q-22 -44 -58 -73t-95 -29zM281 57
q49 0 76.5 33.5t39 90.5t11.5 128v38q-13 71 -45.5 102.5t-72.5 31.5q-65 0 -94.5 -54.5t-29.5 -160.5q0 -105 26.5 -157t88.5 -52z" />
    <glyph glyph-name="beta" unicode="&#x3b2;" horiz-adv-x="622" 
d="M97 -240v807q0 74 30 117.5t80.5 62t114.5 18.5q109 0 163 -43.5t54 -119.5q0 -49 -19 -82t-43.5 -53t-43.5 -29l-19 -9v-6q69 -23 112.5 -68t43.5 -133q0 -116 -59 -174t-159 -58q-52 0 -88 12.5t-58 32.5v-275h-109zM340 44q56 0 86.5 42.5t30.5 133.5q0 80 -28 119.5
t-80 56.5q-13 -5 -28.5 -9.5t-34.5 -4.5q-16 0 -27 9t-11 25q0 37 54 37q11 0 29 -2.5t27 -5.5q35 13 54.5 49t19.5 95q0 57 -28 92.5t-83 35.5q-58 0 -86.5 -37.5t-28.5 -99.5v-476q21 -24 56 -42t78 -18z" />
    <glyph glyph-name="gamma" unicode="&#x3b3;" horiz-adv-x="574" 
d="M230 -240q-24 0 -35.5 16.5t-11.5 43.5q0 52 17 101t35 85q-25 96 -48 181t-45.5 149.5t-45 101t-45.5 36.5q-11 0 -21 -4t-19 -9l-20 33q22 17 53.5 32t63.5 15q34 0 58.5 -22t46.5 -73t46 -138t57 -217q40 41 69 97.5t44.5 114t15.5 100.5q0 31 -12.5 52t-38.5 28
q0 31 17 47t43 16q28 0 43 -14.5t20.5 -37t5.5 -45.5q0 -54 -18 -115.5t-47.5 -120.5t-64 -108t-67.5 -79q1 -13 1.5 -27t0.5 -26q0 -63 -12.5 -111t-35 -75t-50.5 -27z" />
    <glyph glyph-name="delta" unicode="&#x3b4;" horiz-adv-x="587" 
d="M291 -10q-69 0 -123 26t-85 76t-31 122q0 69 27 116t72.5 76.5t102.5 46.5q-50 33 -83.5 74t-33.5 97q0 69 52.5 105t134.5 36q59 0 97.5 -16t57 -39.5t18.5 -47.5q0 -32 -21.5 -48.5t-59.5 -16.5q0 50 -26 84.5t-73 34.5t-67.5 -22t-20.5 -56q0 -28 12.5 -50t40.5 -43
t73 -50q54 -34 94.5 -70t62.5 -80.5t22 -101.5q0 -124 -67 -188.5t-176 -64.5zM292 45q64 0 98.5 46t34.5 130q0 49 -19 87t-49 67t-63 50q-34 -11 -64 -37t-48.5 -71.5t-18.5 -114.5t34 -113t95 -44z" />
    <glyph glyph-name="epsilon" unicode="&#x3b5;" horiz-adv-x="507" 
d="M261 -10q-109 0 -160.5 45.5t-51.5 111.5q0 40 16.5 65.5t42.5 41t55 25.5v5q-45 14 -71 47t-26 74q0 68 56 104.5t157 36.5q90 0 132.5 -30t42.5 -67q0 -60 -95 -60q0 50 -23 79t-69 29q-52 0 -71 -27.5t-19 -65.5q0 -39 20 -65.5t62 -30.5q19 4 42 8.5t40 4.5
q19 0 30.5 -8.5t11.5 -26.5q0 -19 -16 -31t-44 -12q-15 0 -42 4.5t-42 11.5q-33 -8 -55 -35.5t-22 -70.5q0 -97 129 -97q59 0 99 21.5t63 49.5q7 -3 13.5 -13t6.5 -23q0 -25 -21 -48t-67.5 -38t-123.5 -15z" />
    <glyph glyph-name="zeta" unicode="&#x3b6;" horiz-adv-x="472" 
d="M271 -203v52q43 12 59.5 30.5t16.5 45.5q0 20 -9.5 33.5t-35 23.5t-73.5 19q-85 17 -131 62.5t-46 140.5q0 82 26.5 164.5t75 156.5t116.5 133q-44 6 -93 28t-89 55l30 40q34 -29 85 -52.5t106 -28.5q23 17 55.5 33t63.5 16q49 0 49 -37q0 -32 -31 -48t-99 -18
q-6 0 -12.5 0.5t-13.5 0.5q-82 -95 -119 -205t-37 -212q0 -54 14 -83t46.5 -44t87.5 -28q59 -13 93 -38.5t34 -74.5q0 -36 -18 -70.5t-55.5 -60t-95.5 -34.5z" />
    <glyph glyph-name="eta" unicode="&#x3b7;" horiz-adv-x="619" 
d="M432 -240q-6 12 -10.5 44t-6.5 69t-2 68v410q0 62 -26 94t-67 32q-64 0 -88.5 -50.5t-24.5 -138.5v-288h-110v339q0 62 -6.5 112.5t-19.5 84.5h77q29 -41 43 -91h5q22 40 57.5 71t97.5 31q87 0 129.5 -46.5t42.5 -149.5v-421q0 -24 2.5 -59.5t6.5 -66.5t10 -44h-110z" />
    <glyph glyph-name="theta" unicode="&#x3b8;" horiz-adv-x="588" 
d="M295 -10q-85 0 -138.5 47t-78.5 134t-25 208t25 207t78.5 132t139.5 46q120 0 180 -102t60 -284q0 -181 -60 -284.5t-181 -103.5zM164 411h260q-3 141 -34 219.5t-94 78.5q-65 0 -97 -78.5t-35 -219.5zM295 44q65 0 96.5 84t33.5 232h-261q1 -148 32.5 -232t98.5 -84z
" />
    <glyph glyph-name="iota" unicode="&#x3b9;" horiz-adv-x="350" 
d="M241 -10q-71 0 -107.5 34.5t-36.5 120.5v391h109v-388q0 -50 20 -73.5t54 -23.5q18 0 34 2t32 5v-51q-13 -6 -41.5 -11.5t-63.5 -5.5z" />
    <glyph glyph-name="kappa" unicode="&#x3ba;" horiz-adv-x="616" 
d="M106 0v425q0 29 -11.5 43t-30 18.5t-37.5 4.5h-9v45h198v-166q0 -14 -0.5 -36.5t-1.5 -46t-2 -39.5v-16l88 129q46 65 80.5 104.5t65.5 57.5t66 18q37 0 55.5 -18.5t18.5 -46.5q0 -11 -3 -23t-7 -19q-8 8 -22 15t-40 7q-34 0 -64 -17t-64 -57l-37 -45l138 -213
q26 -40 52.5 -59.5t57.5 -19.5h3v-45h-14q-46 0 -77.5 2.5t-53.5 12t-40 28.5t-38 52l-92 156l-69 -88v-163h-110z" />
    <glyph glyph-name="lambda" unicode="&#x3bb;" horiz-adv-x="545" 
d="M6 0l269 521q-17 72 -36.5 111t-42 54t-48.5 15q-28 0 -49.5 -13t-33.5 -28q-17 15 -17 44q0 28 25 47t73 19q65 0 106 -43.5t68 -149.5l90 -343q28 -107 59 -148t68 -41h5v-45h-23q-41 0 -68.5 10.5t-47 42.5t-38.5 97q-17 60 -29.5 111.5t-19.5 87t-8 46.5h-3
q-11 -39 -26 -76t-32 -70l-122 -249h-119z" />
    <glyph glyph-name="uni03BC" unicode="&#x3bc;" horiz-adv-x="629" 
d="M169 -240q-33 0 -58.5 26.5t-25.5 95.5q0 40 2.5 87.5t5.5 110t4 145.5v311h110v-334q0 -62 19.5 -102t73.5 -40q52 0 82.5 44t30.5 116v316h110v-405q0 -44 19.5 -65t44.5 -21h4v-45h-63q-44 0 -70 21.5t-36 60.5h-4q-23 -41 -54.5 -66.5t-84.5 -25.5q-42 0 -72.5 15.5
t-49.5 43.5q1 -55 6.5 -98.5t24 -70.5t57.5 -33q0 -37 -19 -62t-57 -25z" />
    <glyph glyph-name="nu" unicode="&#x3bd;" horiz-adv-x="579" 
d="M228 0q-26 97 -48.5 182.5t-44.5 150.5t-44 102t-45 37q-19 0 -36 -10l-19 34q22 17 51.5 30.5t60.5 13.5q33 0 56.5 -20.5t44.5 -70.5t45.5 -137.5t58.5 -220.5q42 43 73.5 99t49 112t17.5 99q0 69 -52 82q0 32 17 47.5t42 15.5q27 0 42.5 -14.5t22 -37t6.5 -45.5
q0 -54 -20 -117t-53 -126t-75 -116.5t-85 -89.5h-65z" />
    <glyph glyph-name="xi" unicode="&#x3be;" horiz-adv-x="480" 
d="M292 -204v53q43 12 58.5 30.5t15.5 44.5q0 31 -22 46.5t-90 29.5q-62 12 -107.5 33.5t-70 58t-24.5 94.5q0 54 26 100t71 82t103 58v6q-42 8 -78.5 23t-58.5 37t-22 52q0 41 35.5 76.5t87.5 60.5q-39 6 -81.5 21t-72.5 39l31 39q28 -20 76.5 -38t95.5 -22q22 15 58.5 29
t70.5 14q26 0 36.5 -9t10.5 -24q0 -28 -33 -45t-83 -17q-19 0 -34.5 0.5t-24.5 1.5q-33 -23 -51 -50.5t-18 -62.5q0 -37 32 -62t73 -35q17 10 43.5 18.5t48.5 8.5q21 0 33.5 -9t12.5 -24q0 -19 -19.5 -34.5t-55.5 -15.5q-17 0 -36 2t-27 4q-32 -12 -63.5 -42.5t-52.5 -72.5
t-21 -87q0 -44 18 -68t54.5 -38t89.5 -26q63 -14 97 -39t34 -74q0 -35 -17.5 -69.5t-54 -61t-94.5 -36.5z" />
    <glyph glyph-name="omicron" unicode="&#x3bf;" horiz-adv-x="587" 
d="M292 -10q-111 0 -175 69t-64 210t61 209.5t181 68.5q111 0 175 -68.5t64 -209.5t-61.5 -210t-180.5 -69zM294 45q70 0 98.5 57t28.5 167q0 111 -28.5 166.5t-99.5 55.5t-99 -55.5t-28 -166.5q0 -110 29 -167t99 -57z" />
    <glyph glyph-name="pi" unicode="&#x3c0;" horiz-adv-x="640" 
d="M501 -8q-47 0 -74.5 27.5t-27.5 91.5q0 27 2 65.5t5.5 81t7 81t7 66t4.5 35.5h-185l-12 -274q-4 -85 -33.5 -125.5t-100.5 -40.5h-49v45q25 0 46.5 13t37 44.5t22.5 89.5l29 248h-40q-29 0 -43 -17.5t-18 -45.5h-47q0 43 12.5 79t40 58t72.5 22h446v-96h-117
q-1 -8 -1.5 -33.5t-1.5 -61.5t-2 -75t-1.5 -75t-0.5 -61q0 -49 18 -62.5t40 -13.5q12 0 22.5 2.5t20.5 6.5v-51q-12 -10 -33.5 -17t-45.5 -7z" />
    <glyph glyph-name="rho" unicode="&#x3c1;" horiz-adv-x="620" 
d="M87 -240v533q0 122 55.5 188t174.5 66q75 0 131.5 -33.5t88 -97.5t31.5 -158q0 -141 -58 -204.5t-162 -63.5q-44 0 -83 14t-71 38q1 -14 1.5 -39t0.5 -52v-191h-109zM339 45q51 0 83.5 47.5t32.5 166.5q0 110 -34.5 171t-104.5 61t-95 -54t-25 -144v-190
q29 -25 64.5 -41.5t78.5 -16.5z" />
    <glyph glyph-name="sigma1" unicode="&#x3c2;" horiz-adv-x="482" 
d="M282 -204v53q43 14 58.5 35.5t15.5 52.5q0 25 -9 39t-33.5 23t-69.5 20q-96 23 -143.5 75t-47.5 160q0 104 30.5 169t82.5 94.5t116 29.5q78 0 129 -26.5t51 -76.5q0 -34 -23 -51.5t-77 -17.5q0 49 -16 84t-63 35q-53 0 -85.5 -51.5t-32.5 -174.5q0 -58 15.5 -89.5
t49 -48t87.5 -30.5q63 -17 97 -44t34 -82q0 -59 -40 -109.5t-126 -68.5z" />
    <glyph glyph-name="sigma" unicode="&#x3c3;" horiz-adv-x="615" 
d="M296 -10q-74 0 -128.5 31t-84.5 89.5t-30 139.5q0 85 27 140.5t72.5 87.5t103 45t117.5 13h230v-91h-157q19 -18 42 -48.5t40 -71t17 -87.5q0 -119 -62.5 -183.5t-186.5 -64.5zM306 45q60 0 93 46t33 134q0 53 -9.5 96.5t-23 75.5t-25.5 48h-18q-48 0 -92 -18t-72.5 -62
t-28.5 -123q0 -88 37 -142.5t106 -54.5z" />
    <glyph glyph-name="tau" unicode="&#x3c4;" horiz-adv-x="503" 
d="M306 -10q-67 0 -98.5 35t-31.5 99q0 63 20 142t48 174h-92q-44 0 -61 -25t-17 -60h-45q0 66 17.5 105.5t47.5 57.5t67 18h320v-96h-179q-35 -195 -35 -298q0 -49 19.5 -70t47.5 -21q42 0 76 14v-51q-19 -11 -42.5 -17.5t-61.5 -6.5z" />
    <glyph glyph-name="upsilon" unicode="&#x3c5;" horiz-adv-x="604" 
d="M313 -10q-105 0 -156.5 56.5t-51.5 155.5v223q0 43 -24 54.5t-57 11.5h-4v45h194v-327q0 -77 32 -114.5t89 -37.5q59 0 92 30.5t46 83.5t13 122q0 58 -15.5 96.5t-38.5 60.5t-45 28q0 30 17 48t44 18q34 0 57 -32t35 -84t12 -112q0 -62 -11 -120.5t-37.5 -105t-73 -73.5
t-117.5 -27z" />
    <glyph glyph-name="phi" unicode="&#x3c6;" horiz-adv-x="713" 
d="M326 -240v229q-124 6 -198.5 74.5t-74.5 206.5q0 62 17 118t53.5 98t94.5 61l29 -45q-43 -25 -62 -85t-19 -147q0 -111 38 -165t122 -61v337q0 80 32.5 123t101.5 43q63 0 107.5 -34.5t68.5 -96.5t24 -144q0 -138 -72.5 -208t-201.5 -75v-229h-60zM386 44
q84 7 122.5 61.5t38.5 166.5q0 111 -25.5 167t-71.5 56q-29 0 -46.5 -29t-17.5 -85v-337z" />
    <glyph glyph-name="chi" unicode="&#x3c7;" horiz-adv-x="549" 
d="M1 -240l235 423l-79 206q-14 39 -31.5 64t-44.5 25q-11 0 -27 -4t-25 -9l-19 34q21 17 46.5 28.5t55.5 11.5q44 0 65 -29t41 -90l56 -167l139 283h113l-204 -384l86 -238q14 -38 31.5 -64.5t43.5 -26.5q12 0 27.5 4t24.5 9l17 -35q-21 -17 -45 -28t-55 -11
q-44 0 -65 30.5t-40 90.5l-63 196l-162 -319h-121z" />
    <glyph glyph-name="psi" unicode="&#x3c8;" horiz-adv-x="701" 
d="M357 -240v230q-125 1 -188.5 59t-63.5 162v214q0 43 -24.5 54.5t-56.5 11.5h-4v45h194v-321q0 -71 36 -111.5t107 -45.5v702h60v-701q89 11 129 74t40 155q0 86 -25 130t-60 60q0 30 16.5 47.5t41.5 17.5q41 0 65 -59.5t24 -166.5q0 -58 -11 -112t-37.5 -98.5t-71 -74
t-111.5 -38.5v-234h-60z" />
    <glyph glyph-name="omega" unicode="&#x3c9;" horiz-adv-x="777" 
d="M246 -10q-90 0 -141.5 63.5t-51.5 191.5q0 97 36.5 172t95.5 131l50 -36q-34 -57 -51.5 -118.5t-17.5 -150.5q0 -101 30 -147t71 -46q43 0 65 30t30 84q-10 30 -17.5 64t-7.5 68q0 43 14.5 61t36.5 18q23 0 37.5 -18t14.5 -61q0 -34 -8 -68t-17 -64q7 -53 29.5 -83.5
t65.5 -30.5q40 0 70.5 46t30.5 147q0 89 -18 150.5t-51 118.5l50 36q58 -56 95 -131t37 -172q0 -128 -51.5 -191.5t-141.5 -63.5q-55 0 -89 29t-53 75q-17 -46 -52.5 -75t-90.5 -29z" />
    <glyph glyph-name="iotadieresis" unicode="&#x3ca;" horiz-adv-x="350" 
d="M241 -10q-71 0 -107.5 34.5t-36.5 120.5v391h109v-388q0 -50 20 -73.5t54 -23.5q18 0 34 2t32 5v-51q-13 -6 -41.5 -11.5t-63.5 -5.5zM251 630q-23 0 -38 13t-15 45t15 45t38 13q22 0 37.5 -13t15.5 -45t-15.5 -45t-37.5 -13zM57 630q-23 0 -38 13t-15 45t15 45t38 13
q22 0 37.5 -13t15.5 -45t-15.5 -45t-37.5 -13z" />
    <glyph glyph-name="upsilondieresis" unicode="&#x3cb;" horiz-adv-x="604" 
d="M313 -10q-105 0 -156.5 56.5t-51.5 155.5v223q0 43 -24 54.5t-57 11.5h-4v45h194v-327q0 -77 32 -114.5t89 -37.5q59 0 92 30.5t46 83.5t13 122q0 58 -15.5 96.5t-38.5 60.5t-45 28q0 30 17 48t44 18q34 0 57 -32t35 -84t12 -112q0 -62 -11 -120.5t-37.5 -105t-73 -73.5
t-117.5 -27zM398 630q-23 0 -38 13t-15 45t15 45t38 13q22 0 37.5 -13t15.5 -45t-15.5 -45t-37.5 -13zM204 630q-23 0 -38 13t-15 45t15 45t38 13q22 0 37.5 -13t15.5 -45t-15.5 -45t-37.5 -13z" />
    <glyph glyph-name="omicrontonos" unicode="&#x3cc;" horiz-adv-x="587" 
d="M292 -10q-111 0 -175 69t-64 210t61 209.5t181 68.5q111 0 175 -68.5t64 -209.5t-61.5 -210t-180.5 -69zM294 45q70 0 98.5 57t28.5 167q0 111 -28.5 166.5t-99.5 55.5t-99 -55.5t-28 -166.5q0 -110 29 -167t99 -57zM251 606v15q10 22 21.5 53.5t21.5 63.5t15 58h102v-12
q-7 -20 -26.5 -53.5t-44.5 -67t-46 -57.5h-43z" />
    <glyph glyph-name="upsilontonos" unicode="&#x3cd;" horiz-adv-x="604" 
d="M280 606v15q10 22 21.5 53.5t21.5 63.5t15 58h102v-12q-7 -20 -26.5 -53.5t-44.5 -67t-46 -57.5h-43zM313 -10q-105 0 -156.5 56.5t-51.5 155.5v223q0 43 -24 54.5t-57 11.5h-4v45h194v-327q0 -77 32 -114.5t89 -37.5q59 0 92 30.5t46 83.5t13 122q0 58 -15.5 96.5
t-38.5 60.5t-45 28q0 30 17 48t44 18q34 0 57 -32t35 -84t12 -112q0 -62 -11 -120.5t-37.5 -105t-73 -73.5t-117.5 -27z" />
    <glyph glyph-name="omegatonos" unicode="&#x3ce;" horiz-adv-x="777" 
d="M246 -10q-90 0 -141.5 63.5t-51.5 191.5q0 97 36.5 172t95.5 131l50 -36q-34 -57 -51.5 -118.5t-17.5 -150.5q0 -101 30 -147t71 -46q43 0 65 30t30 84q-10 30 -17.5 64t-7.5 68q0 43 14.5 61t36.5 18q23 0 37.5 -18t14.5 -61q0 -34 -8 -68t-17 -64q7 -53 29.5 -83.5
t65.5 -30.5q40 0 70.5 46t30.5 147q0 89 -18 150.5t-51 118.5l50 36q58 -56 95 -131t37 -172q0 -128 -51.5 -191.5t-141.5 -63.5q-55 0 -89 29t-53 75q-17 -46 -52.5 -75t-90.5 -29zM344 606v15q10 22 21.5 53.5t21.5 63.5t15 58h102v-12q-7 -20 -26.5 -53.5t-44.5 -67
t-46 -57.5h-43z" />
    <glyph glyph-name="afii10023" unicode="&#x401;" horiz-adv-x="631" 
d="M35 0v45h21q30 0 52 11t22 54v489q0 46 -21.5 58t-52.5 12h-21v45h518l5 -177h-57l-5 44q-4 34 -22 57t-59 23h-168v-262h240v-52h-240v-294h195q42 0 61.5 23.5t24.5 56.5l7 44h57l-7 -177h-550zM416 795q-23 0 -38 13t-15 45t15 45t38 13q22 0 37.5 -13t15.5 -45
t-15.5 -45t-37.5 -13zM222 795q-23 0 -38 13t-15 45t15 45t38 13q22 0 37.5 -13t15.5 -45t-15.5 -45t-37.5 -13z" />
    <glyph glyph-name="afii10051" unicode="&#x402;" horiz-adv-x="781" 
d="M131 0v45h28q30 0 52 11.5t22 54.5v550h-72q-44 0 -61 -23t-21 -56l-6 -48h-56l5 180h538l5 -180h-56l-5 48q-4 33 -21 56t-62 23h-71v-252q23 9 63.5 19t89.5 10q74 0 125.5 -19.5t78 -66.5t26.5 -130q0 -86 -23.5 -134.5t-68.5 -68t-108 -19.5h-24v50h13q30 0 51 14
t32 49.5t11 101.5t-16.5 99.5t-46 45.5t-68.5 12q-42 0 -78.5 -8t-56.5 -16v-233q0 -46 21.5 -58t51.5 -12h21v-45h-313z" />
    <glyph glyph-name="afii10052" unicode="&#x403;" horiz-adv-x="569" 
d="M35 0v45h21q31 0 52.5 12t21.5 58v484q0 46 -21.5 58t-52.5 12h-21v45h511l6 -181h-53l-6 39q-7 42 -26.5 65.5t-72.5 23.5h-147v-550q0 -43 22 -54.5t51 -11.5h41v-45h-326zM248 771v13q14 19 31 45t33 53t26 49h121v-10q-13 -18 -41.5 -46.5t-62 -57t-61.5 -46.5h-46z
" />
    <glyph glyph-name="afii10053" unicode="&#x404;" horiz-adv-x="629" 
d="M372 -10q-104 0 -174.5 46t-106 128.5t-35.5 193.5q0 108 37 190.5t110 129t181 46.5q106 0 157.5 -32.5t51.5 -80.5q0 -34 -26.5 -54.5t-70.5 -20.5q0 32 -11 62t-36 50t-68 20q-103 0 -148.5 -73.5t-49.5 -208.5h265v-52h-265q4 -127 52.5 -200.5t154.5 -73.5
q73 0 114.5 27t67.5 61q8 -6 13 -16t5 -24q0 -26 -22.5 -53.5t-70.5 -46t-125 -18.5z" />
    <glyph glyph-name="afii10054" unicode="&#x405;" horiz-adv-x="556" 
d="M252 -10q-109 0 -159 41t-50 100q0 35 23 54.5t60 19.5q2 -69 35 -116t101 -47q64 0 101 32.5t37 88.5q0 36 -15.5 61.5t-50.5 47t-93 45.5q-96 39 -140 90t-44 130q0 59 29.5 100.5t80.5 64t116 22.5q95 0 144.5 -34t49.5 -79q0 -33 -24 -51.5t-67 -18.5q0 30 -10.5 60
t-35 50t-65.5 20q-53 0 -84 -29t-31 -79q0 -37 14 -63.5t48 -49t95 -46.5q92 -38 140 -85t48 -123q0 -96 -68.5 -151t-184.5 -55z" />
    <glyph glyph-name="afii10055" unicode="&#x406;" horiz-adv-x="376" 
d="M35 0v45h21q31 0 52.5 12t21.5 58v484q0 46 -21.5 58t-52.5 12h-21v45h306v-45h-21q-30 0 -51.5 -12t-21.5 -58v-484q0 -46 21.5 -58t51.5 -12h21v-45h-306z" />
    <glyph glyph-name="afii10056" unicode="&#x407;" horiz-adv-x="376" 
d="M35 0v45h21q31 0 52.5 12t21.5 58v484q0 46 -21.5 58t-52.5 12h-21v45h306v-45h-21q-30 0 -51.5 -12t-21.5 -58v-484q0 -46 21.5 -58t51.5 -12h21v-45h-306zM283 795q-23 0 -38 13t-15 45t15 45t38 13q22 0 37.5 -13t15.5 -45t-15.5 -45t-37.5 -13zM89 795q-23 0 -38 13
t-15 45t15 45t38 13q22 0 37.5 -13t15.5 -45t-15.5 -45t-37.5 -13z" />
    <glyph glyph-name="afii10057" unicode="&#x408;" horiz-adv-x="368" 
d="M-14 -240v50h12q40 0 69.5 17t46 57t16.5 109v610q0 43 -22 54.5t-51 11.5h-21v45h306v-45h-21q-31 0 -52.5 -12t-21.5 -58v-605q0 -90 -32.5 -141t-86.5 -72t-120 -21h-22z" />
    <glyph glyph-name="afii10058" unicode="&#x409;" horiz-adv-x="907" 
d="M80 -7q-39 0 -59.5 18.5t-20.5 52.5q0 27 13 45t32 18q0 -15 12.5 -31t35.5 -16q19 0 36 9.5t32.5 39t31.5 89.5q13 48 23 109t17 121t10.5 108.5t3.5 71.5q0 28 -23.5 34.5t-56.5 6.5h-15v45h513v-45h-34q-31 0 -52.5 -11.5t-21.5 -50.5v-210h46q97 0 155.5 -25
t85.5 -69.5t27 -103.5q0 -89 -62 -144t-191 -55h-272v45h21q31 0 52.5 12t21.5 52v554h-132q-4 -83 -13.5 -176t-24.5 -180t-34 -153q-27 -92 -64 -126.5t-93 -34.5zM557 51h46q78 0 110.5 35t32.5 108q0 82 -36.5 117.5t-120.5 35.5h-32v-296z" />
    <glyph glyph-name="afii10059" unicode="&#x40a;" horiz-adv-x="983" 
d="M35 0v45h21q31 0 52.5 12t21.5 58v488q0 43 -22 54.5t-52 11.5h-21v45h303v-45h-18q-30 0 -52 -12t-22 -58v-200h270v200q0 46 -21 58t-52 12h-18v45h303v-45h-21q-31 0 -52.5 -11.5t-21.5 -50.5v-210h46q96 0 154.5 -25t85.5 -69.5t27 -103.5q0 -89 -61.5 -144
t-191.5 -55h-268v45h18q31 0 52 12t21 52v237h-270v-231q0 -46 22 -58t52 -12h18v-45h-303zM633 51h45q79 0 111 35t32 108q0 82 -36.5 117.5t-119.5 35.5h-32v-296z" />
    <glyph glyph-name="afii10060" unicode="&#x40b;" horiz-adv-x="841" 
d="M131 0v45h28q30 0 52 11.5t22 54.5v550h-72q-44 0 -61 -23t-21 -56l-6 -48h-56l5 180h538l5 -180h-56l-5 48q-4 33 -21 56t-62 23h-71v-253q23 9 65 19.5t93 10.5q72 0 122 -19.5t76.5 -66.5t26.5 -130v-107q0 -46 21.5 -58t52.5 -12h18v-45h-303v45h21q30 0 51.5 12
t21.5 58v102q0 62 -16 95.5t-45 46.5t-70 13q-42 0 -78.5 -8t-56.5 -16v-233q0 -46 21.5 -58t51.5 -12h21v-45h-313z" />
    <glyph glyph-name="afii10061" unicode="&#x40c;" horiz-adv-x="706" 
d="M327 771v13q14 19 31 45t33 53t26 49h121v-10q-13 -18 -41.5 -46.5t-62 -57t-61.5 -46.5h-46zM35 0v45h21q30 0 52 11t22 54v493q0 43 -22 54.5t-52 11.5h-21v45h303v-45h-21q-30 0 -51.5 -12t-21.5 -58v-216q43 0 58.5 7t29.5 23q13 16 32.5 52.5t47.5 91.5
q40 79 79.5 121t98.5 42q44 0 62.5 -18t18.5 -45q0 -29 -14.5 -47t-34.5 -22q-4 22 -17.5 38.5t-40.5 16.5q-29 0 -54 -28t-56 -88q-32 -62 -51 -95t-42 -53q50 -1 78.5 -24.5t50.5 -64.5l90 -162q25 -44 51.5 -63.5t59.5 -19.5h4v-45h-30q-61 0 -96.5 8.5t-57.5 29
t-41 56.5l-92 174q-16 30 -31 44t-38.5 18t-64.5 4v-219q0 -46 21.5 -58t51.5 -12h21v-45h-303z" />
    <glyph glyph-name="afii10062" unicode="&#x40e;" horiz-adv-x="677" 
d="M104 0v50h52q50 0 95 25.5t62 68.5l-229 472q-14 30 -28 41.5t-43 11.5h-13v45h297v-45h-21q-58 0 -58 -46q0 -10 3 -20t7 -23l101 -216q17 -35 31 -71.5t21 -68.5q7 28 17 56t25 65l88 225q6 15 9 28.5t3 21.5q0 49 -66 49h-21v45h244v-45h-19q-19 0 -31 -6.5t-22 -23.5
t-23 -48l-162 -401q-25 -60 -46 -97.5t-46.5 -57.5t-62.5 -27.5t-94 -7.5h-70zM346 771q-73 0 -114 18t-59 50t-21 73h95q4 -55 27.5 -74.5t72.5 -19.5q43 0 69.5 21t31.5 73h96q-4 -41 -23 -72.5t-61 -50t-114 -18.5z" />
    <glyph glyph-name="afii10145" unicode="&#x40f;" horiz-adv-x="776" 
d="M363 -210q0 110 -33 160t-87 50h-208v45h21q30 0 52 11.5t22 54.5v488q0 46 -21.5 58t-52.5 12h-21v45h306v-45h-21q-30 0 -52 -12t-22 -58v-546h283v546q0 46 -21.5 58t-51.5 12h-21v45h305v-45h-21q-29 0 -51 -11t-22 -54v-489q0 -46 21.5 -58t51.5 -12h21v-45h-215
q-54 0 -82.5 -49.5t-28.5 -160.5h-51z" />
    <glyph glyph-name="afii10017" unicode="&#x410;" horiz-adv-x="718" 
d="M1 0v45h17q28 0 44 15t33 62l221 592h94l221 -611q13 -35 29 -46.5t44 -11.5h14v-45h-290v45h27q26 0 41 11t15 35q0 9 -2.5 18t-5.5 20l-39 109h-258l-35 -100q-10 -27 -10 -47q0 -46 60 -46h29v-45h-249zM226 291h219l-59 172q-14 41 -27 81t-21 76q-8 -35 -19 -70.5
t-28 -78.5z" />
    <glyph glyph-name="afii10018" unicode="&#x411;" horiz-adv-x="617" 
d="M39 0v45h21q32 0 52.5 13t20.5 54v487q0 46 -21 58t-52 12h-21v45h497l5 -180h-56l-6 48q-4 33 -21 56t-62 23h-146v-264h63q96 0 154.5 -25t85.5 -69.5t27 -103.5q0 -89 -61.5 -144t-190.5 -55h-289zM250 51h63q78 0 110.5 35t32.5 108q0 82 -37 117.5t-120 35.5h-49
v-296z" />
    <glyph glyph-name="afii10019" unicode="&#x412;" horiz-adv-x="659" 
d="M35 0v45h21q31 0 52.5 12t21.5 58v487q0 43 -22 55t-52 12h-21v45h275q134 0 199.5 -43.5t65.5 -136.5q0 -67 -35.5 -102.5t-89.5 -52.5v-5q69 -14 112 -58.5t43 -121.5q0 -194 -265 -194h-305zM246 400h61q83 0 113.5 32t30.5 102q0 72 -33 99.5t-113 27.5h-59v-261z
M246 53h89q79 0 112.5 32.5t33.5 111.5q0 77 -30.5 113.5t-113.5 36.5h-91v-294z" />
    <glyph glyph-name="afii10020" unicode="&#x413;" horiz-adv-x="569" 
d="M35 0v45h21q31 0 52.5 12t21.5 58v484q0 46 -21.5 58t-52.5 12h-21v45h511l6 -181h-53l-6 39q-7 42 -26.5 65.5t-72.5 23.5h-147v-550q0 -43 22 -54.5t51 -11.5h41v-45h-326z" />
    <glyph glyph-name="afii10021" unicode="&#x414;" horiz-adv-x="689" 
d="M12 -210v263h61q36 73 69.5 150t60 152.5t42 145t15.5 127.5q0 28 -27 34.5t-60 6.5h-3v45h471v-45h-13q-28 0 -49 -11.5t-21 -55.5v-477q0 -47 24 -59.5t58 -12.5h20v-263h-52q0 111 -36.5 160.5t-105.5 49.5h-260q-69 0 -105.5 -49.5t-36.5 -160.5h-52zM140 53h302v608
h-120q0 -74 -17 -155.5t-44.5 -163t-59.5 -155.5t-61 -134z" />
    <glyph glyph-name="afii10022" unicode="&#x415;" horiz-adv-x="631" 
d="M35 0v45h21q30 0 52 11t22 54v489q0 46 -21.5 58t-52.5 12h-21v45h518l5 -177h-57l-5 44q-4 34 -22 57t-59 23h-168v-262h240v-52h-240v-294h195q42 0 61.5 23.5t24.5 56.5l7 44h57l-7 -177h-550z" />
    <glyph glyph-name="afii10024" unicode="&#x416;" horiz-adv-x="996" 
d="M0 0v45h4q33 0 59.5 19.5t50.5 63.5l91 162q23 41 50.5 64.5t78.5 24.5q-23 20 -42 53t-51 95q-31 60 -56 88t-55 28q-26 0 -40 -16.5t-18 -38.5q-20 4 -34 22t-14 47q0 27 18 45t62 18q59 0 99 -42t80 -121q28 -55 47.5 -91.5t32.5 -52.5t29 -23t53 -7v220
q0 43 -22 54.5t-51 11.5h-14v45h280v-45h-14q-30 0 -51.5 -12t-21.5 -58v-216q37 0 53 7t29 23t32.5 52.5t47.5 91.5q40 79 79.5 121t98.5 42q44 0 62.5 -18t18.5 -45q0 -29 -14 -47t-34 -22q-4 22 -18 38.5t-41 16.5q-29 0 -54 -28t-56 -88q-32 -62 -51 -95t-42 -53
q51 -1 78.5 -24.5t50.5 -64.5l91 -162q24 -44 50.5 -63.5t59.5 -19.5h4v-45h-30q-60 0 -95.5 8.5t-56.5 29t-40 56.5l-92 174q-16 30 -30.5 44t-37 18t-63.5 4v-219q0 -46 21.5 -58t51.5 -12h14v-45h-280v45h14q29 0 51 11t22 54v224q-41 0 -63.5 -4t-37 -18t-30.5 -44
l-92 -174q-19 -36 -40 -56.5t-56.5 -29t-95.5 -8.5h-30z" />
    <glyph glyph-name="afii10025" unicode="&#x417;" horiz-adv-x="607" 
d="M277 -11q-85 0 -136.5 19.5t-74.5 49.5t-23 62q0 38 23.5 57.5t66.5 19.5q1 -39 17 -73.5t47 -56t80 -21.5q69 0 111 36t42 121q0 64 -43 101.5t-129 37.5h-87v54h87q68 0 111.5 40.5t43.5 112.5q0 58 -29 90t-97 32q-52 0 -79.5 -21t-38 -55.5t-10.5 -74.5
q-41 0 -70 14.5t-29 55.5q0 57 59 95.5t169 38.5q72 0 126.5 -17.5t85.5 -54.5t31 -95q0 -52 -21.5 -89t-58.5 -59.5t-81 -33.5q28 -5 60 -14.5t60 -28t45.5 -49.5t17.5 -79q0 -77 -38 -124.5t-101 -69t-137 -21.5z" />
    <glyph glyph-name="afii10026" unicode="&#x418;" horiz-adv-x="807" 
d="M35 0v45h21q31 0 52.5 12t21.5 58v488q0 43 -22 54.5t-52 11.5h-21v45h306v-45h-21q-30 0 -52 -12t-22 -58v-384l315 365v19q0 46 -21.5 58t-51.5 12h-22v45h306v-45h-21q-30 0 -51.5 -12t-21.5 -58v-489q0 -43 22 -54t51 -11h21v-45h-306v45h22q30 0 51.5 12t21.5 58
v390l-315 -364v-26q0 -46 22 -58t52 -12h21v-45h-306z" />
    <glyph glyph-name="afii10027" unicode="&#x419;" horiz-adv-x="807" 
d="M35 0v45h21q31 0 52.5 12t21.5 58v488q0 43 -22 54.5t-52 11.5h-21v45h306v-45h-21q-30 0 -52 -12t-22 -58v-384l315 365v19q0 46 -21.5 58t-51.5 12h-22v45h306v-45h-21q-30 0 -51.5 -12t-21.5 -58v-489q0 -43 22 -54t51 -11h21v-45h-306v45h22q30 0 51.5 12t21.5 58
v390l-315 -364v-26q0 -46 22 -58t52 -12h21v-45h-306zM401 771q-73 0 -114 18t-59 50t-21 73h95q4 -55 27.5 -74.5t72.5 -19.5q43 0 69.5 21t31.5 73h96q-4 -41 -23 -72.5t-61 -50t-114 -18.5z" />
    <glyph glyph-name="afii10028" unicode="&#x41a;" horiz-adv-x="706" 
d="M35 0v45h21q30 0 52 11t22 54v493q0 43 -22 54.5t-52 11.5h-21v45h303v-45h-21q-30 0 -51.5 -12t-21.5 -58v-216q43 0 58.5 7t29.5 23q13 16 32.5 52.5t47.5 91.5q40 79 79.5 121t98.5 42q44 0 62.5 -18t18.5 -45q0 -29 -14.5 -47t-34.5 -22q-4 22 -17.5 38.5t-40.5 16.5
q-29 0 -54 -28t-56 -88q-32 -62 -51 -95t-42 -53q50 -1 78.5 -24.5t50.5 -64.5l90 -162q25 -44 51.5 -63.5t59.5 -19.5h4v-45h-30q-61 0 -96.5 8.5t-57.5 29t-41 56.5l-92 174q-16 30 -31 44t-38.5 18t-64.5 4v-219q0 -46 21.5 -58t51.5 -12h21v-45h-303z" />
    <glyph glyph-name="afii10029" unicode="&#x41b;" horiz-adv-x="709" 
d="M80 -7q-39 0 -59.5 18.5t-20.5 52.5q0 27 13 45t32 18q0 -15 12.5 -31t35.5 -16q19 0 36 9.5t32.5 39t31.5 89.5q13 48 23 108.5t17 120.5t10.5 108.5t3.5 72.5q0 28 -23.5 34.5t-56.5 6.5h-15v45h522v-45h-21q-31 0 -52.5 -12t-21.5 -58v-485q0 -46 22 -57.5t52 -11.5
h21v-45h-306v45h21q30 0 51.5 12t21.5 58v548h-153q-4 -83 -13.5 -176t-24.5 -180t-34 -153q-27 -92 -64 -126.5t-93 -34.5z" />
    <glyph glyph-name="afii10030" unicode="&#x41c;" horiz-adv-x="942" 
d="M35 0v45h21q30 0 52 11t22 54v493q0 43 -22 54.5t-52 11.5h-21v45h245l195 -547l193 547h239v-45h-21q-31 0 -52.5 -12t-21.5 -58v-484q0 -46 21.5 -58t52.5 -12h21v-45h-281v45h5q31 0 49 10.5t20 50.5v526l-221 -632h-58l-226 631v-516q0 -46 19 -58t53 -12h4v-45h-236
z" />
    <glyph glyph-name="afii10031" unicode="&#x41d;" horiz-adv-x="800" 
d="M35 0v45h21q31 0 52.5 12t21.5 58v488q0 43 -22 54.5t-52 11.5h-21v45h306v-45h-21q-30 0 -52 -12t-22 -58v-200h308v200q0 46 -21.5 58t-52.5 12h-21v45h306v-45h-21q-30 0 -52 -12t-22 -58v-489q0 -43 22.5 -54t51.5 -11h21v-45h-306v45h21q31 0 52.5 12t21.5 58v231
h-308v-231q0 -46 22 -58t52 -12h21v-45h-306z" />
    <glyph glyph-name="afii10032" unicode="&#x41e;" horiz-adv-x="754" 
d="M377 -10q-108 0 -179.5 46t-106.5 129t-35 194t35.5 193t107 127.5t179.5 45.5q102 0 173.5 -45.5t109 -128t37.5 -193.5t-37.5 -193.5t-109 -128.5t-174.5 -46zM377 47q107 0 150.5 82t43.5 229t-43.5 228.5t-149.5 81.5t-151 -81.5t-45 -228.5t44.5 -229t150.5 -82z
" />
    <glyph glyph-name="afii10033" unicode="&#x41f;" horiz-adv-x="776" 
d="M35 0v45h21q31 0 52.5 12t21.5 58v488q0 43 -22 54.5t-52 11.5h-21v45h705v-45h-21q-30 0 -51.5 -12t-21.5 -58v-489q0 -43 22 -54t51 -11h21v-45h-305v45h21q30 0 51.5 12t21.5 58v546h-283v-546q0 -46 22 -58t52 -12h21v-45h-306z" />
    <glyph glyph-name="afii10034" unicode="&#x420;" horiz-adv-x="613" 
d="M35 0v45h21q31 0 52.5 12t21.5 58v488q0 43 -22 54.5t-52 11.5h-21v45h288q130 0 192 -56t62 -154q0 -60 -26.5 -111.5t-87.5 -83.5t-162 -32h-55v-167q0 -43 22.5 -54t51.5 -11h41v-45h-326zM246 327h45q86 0 123.5 39.5t37.5 133.5q0 83 -33 123t-113 40h-60v-336z" />
    <glyph glyph-name="afii10035" unicode="&#x421;" horiz-adv-x="629" 
d="M372 -10q-104 0 -174.5 46t-106 128.5t-35.5 193.5q0 108 37 190.5t110 129t181 46.5q106 0 157.5 -32.5t51.5 -80.5q0 -34 -26.5 -54.5t-70.5 -20.5q0 32 -11 62t-36 50t-68 20q-109 0 -153.5 -81t-44.5 -229q0 -92 21 -158.5t66.5 -103t119.5 -36.5q73 0 114.5 27
t67.5 61q8 -6 13 -16t5 -24q0 -26 -22.5 -53.5t-70.5 -46t-125 -18.5z" />
    <glyph glyph-name="afii10036" unicode="&#x422;" horiz-adv-x="624" 
d="M151 0v45h28q30 0 52 11.5t22 54.5v550h-92q-44 0 -61 -23t-21 -56l-6 -48h-56l5 180h580l5 -180h-56l-6 48q-4 33 -21 56t-62 23h-92v-546q0 -46 21.5 -58t51.5 -12h28v-45h-320z" />
    <glyph glyph-name="afii10037" unicode="&#x423;" horiz-adv-x="677" 
d="M104 0v50h52q50 0 95 25.5t62 68.5l-229 472q-14 30 -28 41.5t-43 11.5h-13v45h297v-45h-21q-58 0 -58 -46q0 -10 3 -20t7 -23l101 -216q17 -35 31 -71.5t21 -68.5q7 28 17 56t25 65l88 225q6 15 9 28.5t3 21.5q0 49 -66 49h-21v45h244v-45h-19q-19 0 -31 -6.5t-22 -23.5
t-23 -48l-162 -401q-25 -60 -46 -97.5t-46.5 -57.5t-62.5 -27.5t-94 -7.5h-70z" />
    <glyph glyph-name="afii10038" unicode="&#x424;" horiz-adv-x="790" 
d="M244 0v45h13q34 0 58 12t24 57v20h-32q-76 0 -128.5 20t-85 54t-47 76t-14.5 87q0 97 61.5 158t190.5 61h55v10q0 45 -24 57t-58 12h-13v45h300v-45h-13q-34 0 -58 -12t-24 -57v-10h55q129 0 190.5 -61t61.5 -158q0 -45 -14.5 -87t-47 -76t-85 -54t-128.5 -20h-32v-20
q0 -45 24 -57t58 -12h13v-45h-300zM314 184h25v355h-39q-81 0 -114.5 -44t-33.5 -128q0 -95 38 -139t124 -44zM449 184h24q87 0 125 44t38 139q0 84 -33.5 128t-114.5 44h-39v-355z" />
    <glyph glyph-name="afii10039" unicode="&#x425;" horiz-adv-x="680" 
d="M9 0v45h6q36 0 56.5 16.5t47.5 53.5l169 236l-165 265q-34 53 -86 53h-13v45h287v-45h-3q-34 0 -45.5 -8.5t-11.5 -20.5q0 -10 4.5 -22.5t19.5 -36.5l88 -140l93 138q10 17 18 32t8 29q0 18 -16 23.5t-39 5.5h-3v45h223v-45h-9q-29 0 -49.5 -15.5t-49.5 -56.5l-145 -206
l184 -293q21 -30 41 -41.5t39 -11.5h13v-45h-286v45h5q60 0 60 33q0 11 -6 23.5t-27 45.5l-97 154l-110 -160q-9 -13 -17.5 -30.5t-8.5 -33.5q0 -32 63 -32h3v-45h-241z" />
    <glyph glyph-name="afii10040" unicode="&#x426;" horiz-adv-x="777" 
d="M695 -210q0 111 -37.5 160.5t-109.5 49.5h-513v45h21q30 0 52 11.5t22 54.5v488q0 46 -21.5 58t-52.5 12h-21v45h306v-45h-21q-30 0 -52 -12t-22 -58v-546h283v546q0 46 -21.5 58t-51.5 12h-21v45h305v-45h-21q-29 0 -51 -11t-22 -54v-492q0 -40 22 -52.5t50 -12.5h28
v-257h-51z" />
    <glyph glyph-name="afii10041" unicode="&#x427;" horiz-adv-x="763" 
d="M421 0v45h21q31 0 52.5 12t21.5 58v200q-46 -23 -92.5 -39t-115.5 -16q-94 0 -145 45.5t-51 145.5v151q0 44 -21.5 55.5t-51.5 11.5h-19v45h304v-45h-21q-31 0 -52.5 -12t-21.5 -58v-147q0 -66 30.5 -95t86.5 -29q46 0 86.5 12.5t83.5 32.5v226q0 46 -21.5 58t-52.5 12
h-21v45h306v-45h-21q-30 0 -51.5 -12t-21.5 -58v-488q0 -43 22 -54.5t51 -11.5h21v-45h-306z" />
    <glyph glyph-name="afii10042" unicode="&#x428;" horiz-adv-x="1095" 
d="M35 0v45h21q30 0 52 11.5t22 54.5v488q0 46 -21.5 58t-52.5 12h-21v45h302v-45h-19q-30 0 -51.5 -12t-21.5 -58v-546h245v549q0 41 -19.5 54t-46.5 13h-11v45h269v-45h-11q-28 0 -47 -13t-19 -56v-547h246v546q0 46 -22 58t-52 12h-18v45h301v-45h-21q-30 0 -51.5 -12
t-21.5 -58v-488q0 -43 22 -54.5t51 -11.5h21v-45h-1025z" />
    <glyph glyph-name="afii10043" unicode="&#x429;" horiz-adv-x="1097" 
d="M1014 -210q0 210 -139 210h-840v45h21q30 0 52 11.5t22 54.5v488q0 46 -21.5 58t-52.5 12h-21v45h302v-45h-19q-30 0 -51.5 -12t-21.5 -58v-546h245v549q0 41 -19.5 54t-46.5 13h-11v45h269v-45h-11q-28 0 -47 -13t-19 -56v-547h246v546q0 46 -22 58t-52 12h-18v45h301
v-45h-21q-30 0 -51.5 -12t-21.5 -58v-488q0 -40 21 -52t52 -12h27v-257h-52z" />
    <glyph glyph-name="afii10044" unicode="&#x42a;" horiz-adv-x="716" 
d="M138 0v45h21q32 0 53 13t21 54v549h-72q-44 0 -61 -23t-21 -56l-6 -48h-56l5 180h442v-45h-40q-32 0 -53 -12t-21 -53v-207h63q96 0 154.5 -25t85.5 -69.5t27 -103.5q0 -89 -61.5 -144t-191.5 -55h-289zM350 51h62q78 0 110.5 35t32.5 108q0 82 -36.5 117.5t-120.5 35.5
h-48v-296z" />
    <glyph glyph-name="afii10045" unicode="&#x42b;" horiz-adv-x="929" 
d="M35 0v45h21q32 0 53 13t21 54v487q0 46 -21.5 58t-52.5 12h-21v45h326v-45h-41q-31 0 -52.5 -12t-21.5 -53v-207h46q96 0 155 -25t86 -69.5t27 -103.5q0 -89 -62 -144t-191 -55h-272zM588 0v45h21q31 0 52.5 12t21.5 58v484q0 46 -21.5 58t-52.5 12h-21v45h306v-45h-21
q-30 0 -51.5 -12t-21.5 -58v-484q0 -46 21.5 -58t51.5 -12h21v-45h-306zM246 51h46q78 0 110.5 35t32.5 108q0 82 -36.5 117.5t-120.5 35.5h-32v-296z" />
    <glyph glyph-name="afii10046" unicode="&#x42c;" horiz-adv-x="613" 
d="M35 0v45h21q32 0 53 13t21 54v487q0 46 -21.5 58t-52.5 12h-21v45h326v-45h-41q-31 0 -52.5 -12t-21.5 -53v-207h63q97 0 155.5 -25t85.5 -69.5t27 -103.5q0 -89 -61.5 -144t-191.5 -55h-289zM246 51h63q78 0 110.5 35t32.5 108q0 82 -36.5 117.5t-120.5 35.5h-49v-296z
" />
    <glyph glyph-name="afii10047" unicode="&#x42d;" horiz-adv-x="632" 
d="M268 -10q-85 0 -134 19.5t-70 50t-21 62.5q0 37 24 56.5t65 19.5q2 -39 16.5 -73.5t44 -56.5t77.5 -22q59 0 98 37.5t58.5 103t22.5 147.5h-265v52h265q-4 135 -42 208.5t-128 73.5q-43 0 -72 -20.5t-43.5 -52t-14.5 -66.5q-42 0 -68 17.5t-26 51.5q0 33 24.5 61.5
t74 46.5t125.5 18q143 0 220 -94.5t77 -264.5q0 -114 -36 -198.5t-105 -130.5t-167 -46z" />
    <glyph glyph-name="afii10048" unicode="&#x42e;" horiz-adv-x="1060" 
d="M699 -10q-101 0 -168 44t-101 124t-36 188h-148v-231q0 -46 22 -58t52 -12h21v-45h-306v45h21q31 0 52.5 12t21.5 58v488q0 43 -22 54.5t-52 11.5h-21v45h306v-45h-21q-30 0 -52 -12t-22 -58v-200h149q5 99 40.5 172.5t101.5 113.5t163 40t164.5 -45.5t103 -128
t35.5 -193.5t-35.5 -193.5t-103.5 -128.5t-165 -46zM699 47q97 0 137.5 82t40.5 229t-40 228.5t-137 81.5q-98 0 -138.5 -81.5t-40.5 -228.5t40.5 -229t137.5 -82z" />
    <glyph glyph-name="afii10049" unicode="&#x42f;" horiz-adv-x="670" 
d="M-9 0v45h3q31 0 55.5 19.5t49.5 61.5l123 205q-33 13 -63.5 36t-50 61t-19.5 96q0 97 67.5 143.5t200.5 46.5h278v-45h-21q-30 0 -52 -11.5t-22 -54.5v-493q0 -43 22 -54t52 -11h21v-45h-306v45h21q29 0 51 11t22 54v199h-92l-121 -213q-22 -40 -45.5 -61t-59 -28
t-95.5 -7h-19zM356 359h67v304h-50q-85 0 -122.5 -35.5t-37.5 -116.5q0 -72 34 -112t109 -40z" />
    <glyph glyph-name="afii10065" unicode="&#x430;" horiz-adv-x="573" 
d="M204 -10q-67 0 -111 39t-44 122q0 79 56 118t171 43l82 3v58q0 35 -5.5 62.5t-23.5 43t-55 15.5q-52 0 -68.5 -31t-16.5 -78q-49 0 -73.5 14.5t-24.5 49.5t25.5 56.5t67.5 31.5t94 10q95 0 142.5 -38.5t47.5 -133.5v-258q0 -42 14 -57t48 -15h3v-45h-149l-17 81h-9
q-21 -27 -41 -47.5t-46.5 -32t-66.5 -11.5zM236 55q56 0 89 37t33 99v79l-59 -3q-77 -3 -107 -33.5t-30 -87.5q0 -91 74 -91z" />
    <glyph glyph-name="afii10066" unicode="&#x431;" horiz-adv-x="586" 
d="M290 -10q-117 0 -177 79t-60 243q0 84 10 154.5t36.5 124t75.5 86.5t127 42q46 5 84 9.5t64 13t34 25.5h36q-2 -59 -27.5 -86.5t-74.5 -38.5t-121 -20q-57 -6 -91.5 -18.5t-53 -36t-25.5 -62t-10 -97.5h4q17 46 61 78t115 32q118 0 177 -66.5t59 -196.5
q0 -128 -59.5 -196.5t-183.5 -68.5zM290 45q74 0 102.5 53.5t28.5 156.5t-28.5 156t-102.5 53t-99.5 -53t-25.5 -156t30 -156.5t95 -53.5z" />
    <glyph glyph-name="afii10067" unicode="&#x432;" horiz-adv-x="602" 
d="M21 0v45h13q20 0 38 4.5t29.5 18.5t11.5 43v314q0 29 -11.5 43t-29.5 18.5t-38 4.5h-13v45h298q107 0 157 -33.5t50 -95.5q0 -60 -31.5 -89.5t-82.5 -36.5v-5q62 -8 100 -37t38 -87q0 -66 -51 -109t-158 -43h-320zM223 301h89q56 0 79.5 26.5t23.5 69.5q0 39 -23 64.5
t-80 25.5h-89v-186zM223 49h93q63 0 90 24t27 83q0 52 -31.5 73.5t-90.5 21.5h-88v-202z" />
    <glyph glyph-name="afii10068" unicode="&#x433;" horiz-adv-x="472" 
d="M21 0v45h13q20 0 38 4.5t29.5 18.5t11.5 43v313q0 29 -11.5 43.5t-29.5 19t-38 4.5h-13v45h431v-163h-55l-5 36q-7 47 -21.5 62.5t-48.5 15.5h-99v-376q0 -29 11 -43t29 -18.5t38 -4.5h22v-45h-302z" />
    <glyph glyph-name="afii10069" unicode="&#x434;" horiz-adv-x="593" 
d="M13 -210v259h69q15 24 31 65.5t32 100.5q9 30 17.5 70.5t14.5 79.5t6 65q0 39 -24.5 50t-57.5 11h-11v45h476v-45h-12q-20 0 -38 -4.5t-29.5 -18.5t-11.5 -43v-316q0 -31 14 -44t36 -17h47v-258h-55l-5 73q-5 76 -34 105.5t-62 31.5h-246q-47 0 -69.5 -31t-27.5 -106
l-5 -73h-55zM144 49h222v438h-123q-5 -83 -19 -162.5t-34.5 -150t-45.5 -125.5z" />
    <glyph glyph-name="afii10070" unicode="&#x435;" horiz-adv-x="545" 
d="M292 -10q-114 0 -176.5 72t-62.5 202q0 141 59.5 212t169.5 71q100 0 157.5 -60.5t57.5 -179.5v-47h-331q2 -107 38.5 -155.5t105.5 -48.5q52 0 88.5 22t54.5 51q8 -4 14.5 -14t6.5 -24q0 -22 -19.5 -45.5t-60 -39.5t-102.5 -16zM168 317h214q0 79 -23 126t-78 47
q-52 0 -80.5 -44.5t-32.5 -128.5z" />
    <glyph glyph-name="afii10072" unicode="&#x436;" horiz-adv-x="892" 
d="M2 0v45h3q34 0 57.5 17.5t46.5 58.5l53 93q45 81 130 87q-19 13 -36 34.5t-44 61.5q-26 38 -45.5 57t-42.5 19q-24 0 -37 -16.5t-17 -38.5q-20 3 -35.5 19t-15.5 44q0 26 21 43.5t65 17.5q39 0 63.5 -14t44 -39.5t42.5 -60.5q25 -38 42 -63.5t30 -37.5q12 -11 25.5 -16
t41.5 -5v118q0 29 -10.5 43.5t-27 19t-33.5 4.5h-4v45h251v-45h-2q-18 0 -34 -4.5t-26.5 -18t-10.5 -41.5v-121q29 0 42.5 5t25.5 16q13 12 29.5 37.5t41.5 63.5q23 35 42.5 60.5t44.5 39.5t64 14q44 0 65 -17.5t21 -43.5q0 -28 -15.5 -44t-35.5 -19q-4 22 -17.5 38.5
t-36.5 16.5t-43 -19t-46 -57q-26 -40 -43 -61.5t-36 -34.5q84 -6 130 -87l52 -93q24 -41 47 -58.5t57 -17.5h3v-45h-37q-52 0 -84 7t-54 27.5t-42 59.5l-50 97q-14 29 -30.5 43t-39 18.5t-55.5 4.5v-146q0 -29 10.5 -43t26.5 -18.5t34 -4.5h2v-45h-251v45h4q18 0 34.5 5
t26.5 19.5t10 45.5v142q-33 0 -55.5 -4.5t-38.5 -18.5t-31 -43l-49 -97q-21 -39 -43 -59.5t-54 -27.5t-84 -7h-37z" />
    <glyph glyph-name="afii10073" unicode="&#x437;" horiz-adv-x="490" 
d="M227 -10q-68 0 -109.5 15t-60 38t-18.5 47q0 28 19 41q18 -32 54 -53t101 -21q59 0 91.5 24t32.5 75q0 50 -30 73t-86 23h-86v57h87q52 0 76 29t24 68q0 38 -19 64.5t-65 26.5q-50 0 -73.5 -31t-23.5 -80q-46 0 -66.5 16t-20.5 47q0 37 43 67t141 30q92 0 143.5 -36
t51.5 -98q0 -50 -29.5 -82.5t-76.5 -45.5v-5q55 -12 89 -44t34 -87q0 -70 -55 -114t-168 -44z" />
    <glyph glyph-name="afii10074" unicode="&#x438;" horiz-adv-x="689" 
d="M21 0v45h13q20 0 38 4.5t29.5 18.5t11.5 43v313q0 29 -11.5 43.5t-29.5 19t-38 4.5h-13v45h290v-45h-10q-20 0 -38 -4.5t-29 -18.5t-11 -43v-240l243 234v5q0 44 -24 55.5t-54 11.5h-3v45h282v-45h-12q-20 0 -38 -4.5t-29.5 -18.5t-11.5 -43v-314q0 -29 11.5 -43
t29.5 -18.5t38 -4.5h12v-45h-289v45h10q20 0 38 4.5t29 18.5t11 43v240l-243 -233v-7q0 -29 11 -43t29 -18.5t38 -4.5h10v-45h-290z" />
    <glyph glyph-name="afii10075" unicode="&#x439;" horiz-adv-x="689" 
d="M21 0v45h13q20 0 38 4.5t29.5 18.5t11.5 43v313q0 29 -11.5 43.5t-29.5 19t-38 4.5h-13v45h290v-45h-10q-20 0 -38 -4.5t-29 -18.5t-11 -43v-240l243 234v5q0 44 -24 55.5t-54 11.5h-3v45h282v-45h-12q-20 0 -38 -4.5t-29.5 -18.5t-11.5 -43v-314q0 -29 11.5 -43
t29.5 -18.5t38 -4.5h12v-45h-289v45h10q20 0 38 4.5t29 18.5t11 43v240l-243 -233v-7q0 -29 11 -43t29 -18.5t38 -4.5h10v-45h-290zM346 606q-73 0 -114 18t-59 50t-21 73h95q4 -55 27.5 -74.5t72.5 -19.5q43 0 69.5 21t31.5 73h96q-4 -41 -23 -72.5t-61 -50t-114 -18.5z
" />
    <glyph glyph-name="afii10076" unicode="&#x43a;" horiz-adv-x="622" 
d="M18 0v45h16q20 0 38.5 5t29.5 19.5t11 45.5v309q0 29 -11.5 43.5t-29.5 19t-38 4.5h-16v45h285v-45h-2q-19 0 -37 -4.5t-29.5 -18t-11.5 -41.5v-121q28 0 43 5t27 16q12 12 29 37.5t42 63.5q23 35 43 60.5t45 39.5t64 14q44 0 65 -17.5t21 -43.5q0 -28 -15.5 -44
t-35.5 -19q-4 22 -17.5 38.5t-37.5 16.5q-22 0 -42 -19t-46 -57q-26 -40 -43 -61.5t-36 -34.5q42 -3 70.5 -24t51.5 -63l53 -93q23 -41 48.5 -58.5t59.5 -17.5h3v-45h-37q-52 0 -86.5 7t-59 27.5t-44.5 59.5l-50 97q-14 29 -28 43t-34 18.5t-53 4.5v-146q0 -29 11 -43
t29 -18.5t38 -4.5h2v-45h-285z" />
    <glyph glyph-name="afii10077" unicode="&#x43b;" horiz-adv-x="637" 
d="M81 -7q-40 0 -60.5 18.5t-20.5 51.5q0 28 14 45t33 17q0 -15 12 -30.5t35 -15.5q18 0 34 8.5t32 38t33 92.5q7 28 16 68t15 79t6 64q0 40 -24 51t-57 11h-13v45h480v-45h-13q-20 0 -38 -4.5t-29.5 -18.5t-11.5 -43v-314q0 -29 11.5 -43t29.5 -18.5t38 -4.5h13v-45h-285
v45h5q20 0 38 4.5t29 18.5t11 43v376h-125q-10 -92 -24.5 -178.5t-34.5 -153.5q-26 -91 -59.5 -126.5t-89.5 -35.5z" />
    <glyph glyph-name="afii10078" unicode="&#x43c;" horiz-adv-x="808" 
d="M21 0v45h13q20 0 38 4.5t29.5 18.5t11.5 43v313q0 29 -11.5 43.5t-29.5 19t-38 4.5h-13v45h228l155 -385l161 385h222v-45h-13q-33 0 -57.5 -11.5t-24.5 -55.5v-312q0 -44 24.5 -55.5t57.5 -11.5h13v-45h-288v45h3q33 0 57.5 11.5t24.5 55.5v317h-7l-180 -429h-46
l-174 429h-7v-317q0 -44 24.5 -55.5t57.5 -11.5h3v-45h-234z" />
    <glyph glyph-name="afii10079" unicode="&#x43d;" horiz-adv-x="689" 
d="M21 0v45h13q20 0 38 4.5t29.5 18.5t11.5 43v313q0 29 -11.5 43.5t-29.5 19t-38 4.5h-13v45h282v-45h-2q-20 0 -38 -4.5t-29 -18.5t-11 -43v-125h243v124q0 44 -24 55.5t-54 11.5h-3v45h282v-45h-12q-20 0 -38 -4.5t-29.5 -18.5t-11.5 -43v-314q0 -29 11.5 -43t29.5 -18.5
t38 -4.5h12v-45h-282v45h3q20 0 38 4.5t29 18.5t11 43v140h-243v-140q0 -29 11 -43t29 -18.5t38 -4.5h2v-45h-282z" />
    <glyph glyph-name="afii10080" unicode="&#x43e;" horiz-adv-x="587" 
d="M292 -10q-111 0 -175 69t-64 210t61 209.5t181 68.5q111 0 175 -68.5t64 -209.5t-61.5 -210t-180.5 -69zM294 45q70 0 98.5 57t28.5 167q0 111 -28.5 166.5t-99.5 55.5t-99 -55.5t-28 -166.5q0 -110 29 -167t99 -57z" />
    <glyph glyph-name="afii10081" unicode="&#x43f;" horiz-adv-x="669" 
d="M21 0v45h13q20 0 38 4.5t29.5 18.5t11.5 43v314q0 29 -11.5 43t-29.5 18.5t-38 4.5h-13v45h626v-45h-12q-20 0 -38 -4.5t-29.5 -18.5t-11.5 -42v-315q0 -29 11.5 -43t29.5 -18.5t38 -4.5h12v-45h-282v45h3q20 0 38 4.5t29 18.5t11 43v376h-223v-376q0 -29 11 -43
t29 -18.5t38 -4.5h2v-45h-282z" />
    <glyph glyph-name="afii10082" unicode="&#x440;" horiz-adv-x="623" 
d="M17 -240v45h9q20 0 38 5t29.5 19.5t11.5 45.5v547q0 45 -23.5 57t-54.5 12h-12v45h181l12 -87h4q22 44 58.5 70.5t94.5 26.5q100 0 152.5 -66.5t52.5 -211.5t-52.5 -212t-150.5 -67q-58 0 -94.5 24t-58.5 62h-4q2 -27 3.5 -61t1.5 -54v-89q0 -29 11.5 -43t29.5 -18.5
t38 -4.5h8v-45h-285zM342 56q62 0 88.5 54.5t26.5 158.5t-26.5 157t-88.5 53q-74 0 -100.5 -52.5t-26.5 -158.5q0 -104 26.5 -158t100.5 -54z" />
    <glyph glyph-name="afii10083" unicode="&#x441;" horiz-adv-x="502" 
d="M286 -10q-68 0 -121 27.5t-82.5 88t-29.5 159.5q0 107 30 169t82 87.5t117 25.5q48 0 89 -12t66 -35t25 -56q0 -34 -23 -51.5t-77 -17.5q0 49 -16 84t-63 35q-36 0 -62.5 -20t-40.5 -70t-14 -138q0 -105 33 -156.5t109 -51.5q48 0 83.5 20.5t52.5 52.5q19 -14 19 -41
q0 -24 -19.5 -47t-58.5 -38t-99 -15z" />
    <glyph glyph-name="afii10084" unicode="&#x442;" horiz-adv-x="553" 
d="M130 0v45h13q31 0 55 12t24 55v375h-76q-33 0 -46.5 -17t-20.5 -64l-4 -33h-55l6 163h501l6 -163h-55l-5 33q-7 47 -20.5 64t-45.5 17h-75v-375q0 -43 23 -55t55 -12h19v-45h-299z" />
    <glyph glyph-name="afii10085" unicode="&#x443;" horiz-adv-x="569" 
d="M35 -240v50q68 0 111.5 25t69.5 68t43 99l-184 437q-13 30 -27.5 40t-41.5 10h-3v47h252v-45h-3q-60 0 -60 -45q0 -17 9 -38l72 -179q14 -35 26 -73t16 -61q5 26 16 56t19 54l67 195q5 11 7 23.5t2 20.5q0 47 -67 47h-3v45h213v-45h-3q-29 0 -44.5 -15.5t-31.5 -61.5
l-152 -417q-26 -73 -50 -119.5t-54 -72t-74.5 -35.5t-113.5 -10h-11z" />
    <glyph glyph-name="afii10086" unicode="&#x444;" horiz-adv-x="746" 
d="M231 -241v45h13q20 0 38 5t29.5 20t11.5 45v119q-127 8 -198.5 78t-71.5 198q0 127 68.5 196.5t201.5 77.5v106q0 29 -11.5 43t-29.5 18.5t-38 4.5h-13v45h194v-217q125 -10 196.5 -78.5t71.5 -195.5q0 -128 -68.5 -198t-199.5 -78v-119q0 -30 11 -45t29.5 -20t38.5 -5
h12v-45h-285zM323 48v439q-85 -11 -120.5 -65.5t-35.5 -152.5t35.5 -154.5t120.5 -66.5zM425 48q83 10 118.5 66.5t35.5 154.5q0 97 -35.5 152t-118.5 66v-439z" />
    <glyph glyph-name="afii10087" unicode="&#x445;" horiz-adv-x="597" 
d="M7 0v45h9q36 0 57.5 13.5t51.5 50.5l126 160l-126 169q-22 26 -42.5 39.5t-43.5 13.5h-13v45h270v-45h-3q-35 0 -46 -8.5t-11 -20.5q0 -10 6 -20t17 -26l63 -84l51 70q11 16 18 31t7 29q0 18 -15 23.5t-38 5.5h-3v45h222v-45h-9q-29 0 -49.5 -12t-51.5 -52l-103 -134
l147 -195q22 -29 41.5 -41t38.5 -12h13v-45h-274v45h5q60 0 60 33q0 11 -7.5 24.5t-30.5 44.5l-65 84l-70 -95q-9 -12 -17 -28t-8 -31q0 -17 14.5 -24.5t47.5 -7.5h3v-45h-242z" />
    <glyph glyph-name="afii10088" unicode="&#x446;" horiz-adv-x="680" 
d="M604 -210l-5 73q-5 76 -34.5 106.5t-62.5 30.5h-473v45h5q20 0 38 4.5t29.5 18.5t11.5 43v314q0 29 -11.5 43t-29.5 18.5t-38 4.5h-13v45h288v-45h-10q-19 0 -37 -4.5t-29 -18.5t-11 -43v-376h232v377q0 28 -11 42t-29 18.5t-37 4.5h-10v45h288v-45h-13q-20 0 -38 -4.5
t-29.5 -18.5t-11.5 -43v-314q0 -39 21.5 -50.5t50.5 -12.5h23v-258h-54z" />
    <glyph glyph-name="afii10089" unicode="&#x447;" horiz-adv-x="651" 
d="M333 0v45h14q33 0 57 11.5t24 55.5v138q-48 -30 -90.5 -48.5t-99.5 -18.5q-68 0 -104.5 35.5t-36.5 93.5v111q0 42 -23 55t-56 13h-3v45h273v-45h-3q-30 0 -54 -11.5t-24 -55.5v-101q0 -70 76 -70q36 0 68 10.5t77 32.5v127q0 43 -23 55.5t-54 12.5h-3v45h282v-45h-12
q-32 0 -56 -11.5t-24 -55.5v-312q0 -44 24 -55.5t56 -11.5h12v-45h-297z" />
    <glyph glyph-name="afii10090" unicode="&#x448;" horiz-adv-x="960" 
d="M21 0v45h13q20 0 38 4.5t29.5 18.5t11.5 43v314q0 29 -11.5 43t-29.5 18.5t-38 4.5h-13v45h277v-45h-3q-19 0 -37 -4.5t-29.5 -18.5t-11.5 -43v-376h211v377q0 28 -11.5 42t-29 18.5t-37.5 4.5h-3v45h265v-45h-3q-19 0 -37 -4.5t-29 -18.5t-11 -43v-376h210v376
q0 29 -11 43t-29 18.5t-37 4.5h-3v45h276v-45h-13q-19 0 -37.5 -4.5t-30 -18.5t-11.5 -43v-314q0 -29 11.5 -43t30 -18.5t37.5 -4.5h13v-45h-917z" />
    <glyph glyph-name="afii10091" unicode="&#x449;" horiz-adv-x="964" 
d="M887 -210l-5 73q-5 76 -34 106.5t-62 30.5h-765v45h13q20 0 38 4.5t29.5 18.5t11.5 43v314q0 29 -11.5 43t-29.5 18.5t-38 4.5h-13v45h277v-45h-3q-19 0 -37 -4.5t-29.5 -18.5t-11.5 -43v-376h211v377q0 28 -11.5 42t-29 18.5t-37.5 4.5h-3v45h265v-45h-3q-19 0 -37 -4.5
t-29 -18.5t-11 -43v-376h210v376q0 29 -11 43t-29 18.5t-37 4.5h-3v45h276v-45h-13q-19 0 -37.5 -4.5t-30 -18.5t-11.5 -43v-320q0 -35 22 -45.5t50 -11.5h23v-258h-54z" />
    <glyph glyph-name="afii10092" unicode="&#x44a;" horiz-adv-x="706" 
d="M137 0v45h13q34 0 56.5 12.5t22.5 53.5v376h-76q-33 0 -46 -17t-21 -64l-4 -33h-55l6 163h401v-46h-13q-33 0 -57.5 -12.5t-24.5 -53.5v-124h89q62 0 114.5 -10.5t84.5 -42t32 -93.5q0 -66 -52 -110t-160 -44h-310zM339 49h87q62 0 89 25t27 85q0 49 -31 70.5t-90 21.5
h-82v-202z" />
    <glyph glyph-name="afii10093" unicode="&#x44b;" horiz-adv-x="848" 
d="M21 0v45h13q34 0 56.5 12.5t22.5 53.5v313q0 41 -22.5 54t-56.5 13h-13v45h297v-46h-13q-33 0 -57.5 -12.5t-24.5 -53.5v-124h70q61 0 113.5 -10.5t84.5 -42t32 -93.5q0 -66 -52 -110t-160 -44h-290zM540 0v45h6q20 0 38 4.5t29.5 18.5t11.5 43v313q0 29 -11.5 43.5
t-29.5 19t-38 4.5h-6v45h278v-45h-6q-20 0 -37.5 -4.5t-28.5 -18.5t-11 -43v-314q0 -29 11 -43t28.5 -18.5t37.5 -4.5h6v-45h-278zM223 49h67q62 0 89 25t27 85q0 49 -31 70.5t-90 21.5h-62v-202z" />
    <glyph glyph-name="afii10094" unicode="&#x44c;" horiz-adv-x="597" 
d="M21 0v45h13q34 0 56.5 12.5t22.5 53.5v313q0 41 -22.5 54t-56.5 13h-13v45h297v-46h-13q-33 0 -57.5 -12.5t-24.5 -53.5v-124h97q62 0 114 -10.5t84 -42t32 -93.5q0 -66 -52 -110t-159 -44h-318zM223 49h95q62 0 88.5 25t26.5 85q0 49 -31.5 70.5t-89.5 21.5h-89v-202z
" />
    <glyph glyph-name="afii10095" unicode="&#x44d;" horiz-adv-x="499" 
d="M220 -10q-72 0 -111.5 17t-55 42.5t-15.5 50.5q0 68 81 68q0 -54 23.5 -90.5t76.5 -36.5q55 0 82.5 50t30.5 154h-208v57h208q-3 105 -31.5 149t-78.5 44q-44 0 -67.5 -32.5t-23.5 -78.5q-80 0 -80 61q0 23 17.5 47t56.5 39.5t104 15.5q101 0 159 -63.5t58 -209.5
q0 -103 -29 -165.5t-80 -90.5t-117 -28z" />
    <glyph glyph-name="afii10096" unicode="&#x44e;" horiz-adv-x="877" 
d="M592 -10q-104 0 -164.5 64.5t-64.5 196.5h-140v-140q0 -29 11 -43t29 -18.5t38 -4.5h4v-45h-284v45h13q20 0 38 4.5t29.5 18.5t11.5 43v313q0 29 -11.5 43.5t-29.5 19t-38 4.5h-13v45h284v-45h-4q-20 0 -38 -4.5t-29 -18.5t-11 -43v-125h140q6 124 65 185.5t167 61.5
q107 0 168 -68.5t61 -209.5t-59.5 -210t-172.5 -69zM594 45q64 0 90.5 57t26.5 167q0 111 -26.5 166.5t-91.5 55.5t-91 -55.5t-26 -166.5q0 -110 26.5 -167t91.5 -57z" />
    <glyph glyph-name="afii10097" unicode="&#x44f;" horiz-adv-x="572" 
d="M6 0v45h3q27 0 45 14t37 46l88 149q-29 6 -58.5 23t-49 46t-19.5 71q0 67 49 104.5t158 37.5h291v-45h-3q-35 0 -58 -12.5t-23 -53.5v-313q0 -40 22 -53.5t57 -13.5h13v-45h-295v45h11q33 0 57.5 11.5t24.5 55.5v124h-75l-81 -152q-16 -30 -38 -48.5t-58.5 -27
t-97.5 -8.5zM267 287h89v200h-89q-56 0 -78.5 -29t-22.5 -68q0 -43 23 -73t78 -30z" />
    <glyph glyph-name="afii10071" unicode="&#x451;" horiz-adv-x="545" 
d="M292 -10q-114 0 -176.5 72t-62.5 202q0 141 59.5 212t169.5 71q100 0 157.5 -60.5t57.5 -179.5v-47h-331q2 -107 38.5 -155.5t105.5 -48.5q52 0 88.5 22t54.5 51q8 -4 14.5 -14t6.5 -24q0 -22 -19.5 -45.5t-60 -39.5t-102.5 -16zM168 317h214q0 79 -23 126t-78 47
q-52 0 -80.5 -44.5t-32.5 -128.5zM374 630q-23 0 -38 13t-15 45t15 45t38 13q22 0 37.5 -13t15.5 -45t-15.5 -45t-37.5 -13zM180 630q-23 0 -38 13t-15 45t15 45t38 13q22 0 37.5 -13t15.5 -45t-15.5 -45t-37.5 -13z" />
    <glyph glyph-name="afii10099" unicode="&#x452;" horiz-adv-x="623" 
d="M324 -240v51h6q47 0 73 39t26 143v325q0 65 -23 100.5t-79 35.5q-59 0 -85 -45t-26 -115v-183q0 -43 23 -54.5t56 -11.5h3v-45h-279v45h6q34 0 57.5 12.5t23.5 58.5v473h-90v49h90v11q0 29 -11.5 43t-30 18.5t-37.5 4.5h-9v45h198v-122h166v-49h-166v-57q0 -20 -1 -42.5
t-3 -37.5l-1 -16h6q25 48 62 68t86 20q83 0 128.5 -46.5t45.5 -148.5v-337q0 -90 -25.5 -140.5t-70.5 -71t-103 -20.5h-16z" />
    <glyph glyph-name="afii10100" unicode="&#x453;" horiz-adv-x="472" 
d="M174 606v13q14 19 31 45t33 53t26 49h121v-10q-13 -18 -41.5 -46.5t-62 -57t-61.5 -46.5h-46zM21 0v45h13q20 0 38 4.5t29.5 18.5t11.5 43v313q0 29 -11.5 43.5t-29.5 19t-38 4.5h-13v45h431v-163h-55l-5 36q-7 47 -21.5 62.5t-48.5 15.5h-99v-376q0 -29 11 -43t29 -18.5
t38 -4.5h22v-45h-302z" />
    <glyph glyph-name="afii10101" unicode="&#x454;" horiz-adv-x="502" 
d="M286 -10q-68 0 -121 27.5t-82.5 88t-29.5 159.5q0 107 30 169t82 87.5t117 25.5q48 0 89 -12t66 -35t25 -56q0 -34 -23 -51.5t-77 -17.5q0 49 -16 84t-63 35q-33 0 -58.5 -17.5t-41 -60.5t-17.5 -119h209v-57h-209q4 -92 37.5 -137t104.5 -45q48 0 83.5 20.5t52.5 52.5
q19 -14 19 -41q0 -24 -19.5 -47t-58.5 -38t-99 -15z" />
    <glyph glyph-name="afii10102" unicode="&#x455;" horiz-adv-x="461" 
d="M216 -10q-85 0 -130 28.5t-45 80.5q0 29 12 44t28.5 21t30.5 6q0 -56 25.5 -92.5t82.5 -36.5q53 0 80 23.5t27 61.5q0 24 -10.5 40t-37.5 31t-75 35q-52 22 -86.5 43.5t-51.5 51t-17 73.5q0 71 53.5 108.5t141.5 37.5q78 0 116 -28t38 -64q0 -29 -20 -46t-60 -17
q0 50 -21.5 78t-65.5 28q-46 0 -68.5 -20.5t-22.5 -54.5q0 -37 28.5 -57.5t99.5 -47.5q75 -31 112.5 -66.5t37.5 -98.5q0 -80 -55 -121t-147 -41z" />
    <glyph glyph-name="afii10103" unicode="&#x456;" horiz-adv-x="329" 
d="M164 633q-28 0 -46.5 15t-18.5 50q0 36 18.5 50.5t46.5 14.5q26 0 45.5 -14.5t19.5 -50.5q0 -35 -19.5 -50t-45.5 -15zM21 0v45h13q20 0 38 4.5t29.5 18.5t11.5 43v314q0 29 -11.5 43t-29.5 18.5t-38 4.5h-5v45h194v-421q0 -31 11 -45.5t29.5 -19.5t38.5 -5h13v-45h-294z
" />
    </font>
</defs>
</svg>
